SplineFontDB: 3.0
FontName: FantasqueSansMono-RegItalic
FullName: Fantasque Sans Mono Regular Italic
FamilyName: Fantasque Sans Mono
Weight: Regular
Copyright: Created by Jany Belluz with FontForge 2.0 (http://fontforge.sf.net)
UComments: "2013-9-13: Created." 
Version: 1.4.1
ItalicAngle: -11
UnderlinePosition: -192
UnderlineWidth: 96
Ascent: 1650
Descent: 398
LayerCount: 2
Layer: 0 0 "Back"  1
Layer: 1 0 "Fore"  0
XUID: [1021 607 50037791 3178130]
FSType: 8
OS2Version: 3
OS2_WeightWidthSlopeOnly: 0
OS2_UseTypoMetrics: 1
CreationTime: 1379052706
ModificationTime: 1390486466
PfmFamily: 49
TTFWeight: 400
TTFWidth: 5
LineGap: 0
VLineGap: 0
Panose: 2 11 5 9 2 2 4 3 2 4
OS2TypoAscent: 1650
OS2TypoAOffset: 0
OS2TypoDescent: -398
OS2TypoDOffset: 0
OS2TypoLinegap: 100
OS2WinAscent: 1750
OS2WinAOffset: 0
OS2WinDescent: 398
OS2WinDOffset: 0
HheadAscent: 1750
HheadAOffset: 0
HheadDescent: -398
HheadDOffset: 0
OS2FamilyClass: 2057
OS2Vendor: 'PfEd'
MarkAttachClasses: 1
DEI: 91125

StartChar: a
Encoding: 97 97 0
Width: 1060
VWidth: 6
Flags: HW
HStem: -8 152<338.542 569.273> 890 144<495.442 819.614>
VStem: 141 152<187.28 570.631> 790 151<79.8303 230>
LayerCount: 2
Fore
SplineSet
318 514 m 0
 301 451 293 395 293 346 c 0
 293 218 347 144 425 144 c 0
 651 144 783 442 841 608 c 1
 886 804 l 1
 836 839 763 890 659 890 c 0
 468 890 389 774 318 514 c 0
1081 1002 m 1
 961 356 l 2
 948 290 941 246 941 214 c 0
 941 162 959 142 994 109 c 1
 888 -10 l 1
 847 27 791 54 791 191 c 0
 791 199 791 207 792 216 c 1
 734 132 608 -8 396 -8 c 0
 241 -8 141 140 141 343 c 0
 141 394 147 448 160 504 c 0
 244 862 378 1034 679 1034 c 0
 805 1034 868 994 916 961 c 1
 921 984 924 1006 926 1026 c 1
 1081 1002 l 1
EndSplineSet
Validated: 1
EndChar

StartChar: b
Encoding: 98 98 1
Width: 1060
VWidth: -2
Flags: HW
HStem: -7 154<399.703 696.789> 873 155<583.98 800.769>
VStem: 369 161<1130.52 1403> 859 154<372.721 810.409>
LayerCount: 2
Fore
SplineSet
842 478 m 0
 854 539 859 593 859 639 c 0
 859 805 788 873 690 873 c 0
 587 873 463 736 358 449 c 1
 329 307 l 1
 378 193 416 147 553 147 c 0
 723 147 802 274 842 478 c 0
995 459 m 0
 943 191 798 -7 523 -7 c 0
 411 -7 337 28 285 84 c 1
 276 42 267 20 256 -12 c 1
 94 7 l 1
 117 73 143 160 159 243 c 1
 336 1157 l 0
 354 1251 363 1335 369 1403 c 1
 530 1412 l 1
 525 1339 514 1242 493 1152 c 2
 418 833 l 1
 491 935 584 1028 706 1028 c 0
 901 1028 1013 874 1013 635 c 0
 1013 580 1007 521 995 459 c 0
EndSplineSet
Validated: 1
EndChar

StartChar: c
Encoding: 99 99 2
Width: 1060
VWidth: 4
Flags: HW
HStem: -7 157<397.089 774.718> 865 153<512.552 866.249>
VStem: 152 165<225.318 615.574>
LayerCount: 2
Fore
SplineSet
332 527 m 0
 322 474 317 428 317 389 c 0
 317 155 482 150 576 150 c 2
 589 150 l 2
 745 150 833 215 902 302 c 1
 1018 206 l 1
 977 164 842 -7 563 -7 c 0
 322 -7 152 91 152 342 c 0
 152 398 160 460 173 527 c 0
 247 908 447 1018 762 1018 c 0
 939 1018 1029 923 1060 789 c 1
 904 736 l 1
 901 778 881 865 721 865 c 0
 500 865 378 766 332 527 c 0
EndSplineSet
Validated: 1
EndChar

StartChar: d
Encoding: 100 100 3
Width: 1060
VWidth: -2
Flags: W
HStem: -8 152<301.542 532.273> 890 144<458.442 782.614> 1392 20G<963 1093.17>
VStem: 104 152<187.28 570.631> 753 152<79.1014 230>
LayerCount: 2
Back
SplineSet
749 478 m 4xd8
 749 761 637 865 474 865 c 4
 383 865 321 795 269 744 c 5
 269 307 l 5
 340 193 387 147 524 147 c 4
 694 147 749 274 749 478 c 4xd8
906 459 m 4
 906 191 799 -7 524 -7 c 4
 412 -7 332 28 269 84 c 5xd8
 268 42 263 20 258 -12 c 5
 93 7 l 5xe8
 103 73 112 160 112 243 c 4
 112 251 112 259 112 267 c 4
 112 516 111 877 111 1157 c 4
 111 1251 103 1335 96 1403 c 5
 255 1412 l 5
 264 1339 269 1243 269 1152 c 6
 269 949 l 5
 317 985 360 1020 460 1020 c 4
 783 1020 906 795 906 459 c 4
EndSplineSet
Fore
SplineSet
281 514 m 4
 264 451 256 395 256 346 c 0
 256 218 310 144 388 144 c 4
 614 144 746 442 804 608 c 5
 849 804 l 5
 799 839 726 890 622 890 c 4
 431 890 352 774 281 514 c 4
1119 1388 m 5
 924 356 l 6
 911 290 905 246 905 214 c 0
 905 162 922 142 957 109 c 5
 851 -10 l 5
 810 27 753 70 753 173 c 0
 753 181 753 189 754 198 c 5
 696 114 571 -8 359 -8 c 4
 204 -8 104 140 104 343 c 0
 104 394 110 448 123 504 c 4
 207 862 341 1034 642 1034 c 4
 768 1034 831 994 879 961 c 5
 884 984 962 1392 964 1412 c 5
 1119 1388 l 5
EndSplineSet
Validated: 1
EndChar

StartChar: e
Encoding: 101 101 4
Width: 1060
VWidth: 32
Flags: W
HStem: -10 153<393.479 758.696> 869 152<522.657 836.392>
VStem: 161 160<212.786 344.433> 886 146<635.961 821.03>
LayerCount: 2
Fore
SplineSet
337 492 m 5
 452 500 661 513 775 581 c 4
 850 626 886 683 886 735 c 4
 886 808 815 869 679 869 c 4
 509 869 386 743 337 492 c 5
707 1021 m 4
 922 1021 1032 885 1032 740 c 4
 1032 639 978 534 869 467 c 4
 716 374 465 352 321 341 c 5
 321 338 321 334 321 330 c 4
 321 258 360 143 554 143 c 4
 733 143 832 224 881 278 c 5
 983 169 l 5
 933 124 813 -10 520 -10 c 4
 276 -10 161 132 161 356 c 4
 161 405 167 459 178 516 c 4
 234 802 424 1021 707 1021 c 4
EndSplineSet
Validated: 1
EndChar

StartChar: f
Encoding: 102 102 5
Width: 1060
VWidth: -2
Flags: HW
HStem: 867 153<299 424 610 991.555> 1266 152<688.901 1132.25>
LayerCount: 2
Fore
SplineSet
1186 1194 m 1
 1078 1262 946 1266 814 1266 c 0
 667 1266 639 1168 618 1060 c 2
 610 1021 l 1
 678 1021 802 1020 875 1020 c 1
 978 1017 1004 1009 1032 1000 c 1
 992 853 l 1
 972 860 942 867 886 867 c 2
 581 867 l 1
 552 713 416 4 415 0 c 1
 258 0 l 1
 263 25 397 720 424 867 c 1
 293 867 l 1
 299 1020 l 1
 454 1020 l 1
 457 1036 458 1045 462 1064 c 0
 490 1207 559 1418 836 1418 c 0
 968 1418 1140 1410 1271 1333 c 1
 1186 1194 l 1
EndSplineSet
Validated: 1
EndChar

StartChar: g
Encoding: 103 103 6
Width: 1060
VWidth: 14
Flags: HWO
HStem: 880 152<524.873 846.657 1034.38 1204.66>
LayerCount: 2
Back
SplineSet
-392.676 1025.76 m 9
 -342.676 887.765 l 17
 -450.695 847.285 -511.676 784.764 -547.676 730.764 c 1
 -571.676 685.764 -553.676 643.764 -469.676 604.764 c 0
 -385.676 565.764 -262.062 489.674 -271.676 337.764 c 0
 -281.676 179.764 -430.5 42.8818 -753.5 31.8818 c 0
 -1062.19 21.3691 -1167.5 111.882 -1213.5 206.882 c 0
 -1229.24 239.396 -1265.04 345.627 -1183.5 458.882 c 0
 -1093.5 583.882 -931.676 601.764 -760.676 577.764 c 9
 -772.376 518.92 -790.676 426.882 -790.676 426.882 c 0
 -1003.68 477.882 -1114.3 356.076 -1051.5 261.882 c 0
 -979.5 153.882 -668.5 184.882 -629.5 193.882 c 0
 -590.5 202.882 -442.5 236.72 -442.5 347.882 c 0
 -442.5 426.882 -541.5 449.882 -631.5 503.882 c 0
 -721.5 557.882 -773.074 681.354 -688.676 804.882 c 0
 -637.34 880.019 -482.983 962.277 -392.676 1025.76 c 9
-364.272 1153.88 m 0
 -346.39 1245.88 -411.532 1306.88 -562.532 1306.88 c 0
 -730.532 1306.88 -767.224 1229.88 -786.272 1131.88 c 0
 -805.516 1032.88 -718.5 958.882 -589.5 958.882 c 0
 -383.5 958.882 -368.938 1129.88 -364.272 1153.88 c 0
-946.8 1118.88 m 0
 -946.76 1121.94 -944.259 1147.76 -943.676 1150.76 c 0
 -905.188 1348.76 -786.986 1458.88 -532.986 1458.88 c 0
 -432.986 1458.88 -341.514 1445.88 -274.649 1398.88 c 1
 -215.768 1457.76 -126.338 1463.88 -10.3379 1463.88 c 1
 -42.0225 1300.88 l 1
 -53.6338 1302.88 -64.4395 1303.88 -74.4395 1303.88 c 0
 -146.676 1303.88 -193.837 1289.88 -211.753 1274.88 c 1
 -202.272 1253.88 -200.272 1201.88 -207.301 1158.88 c 0
 -232.114 1007.07 -248.083 838.764 -583.676 838.764 c 2
 -586.676 838.764 l 2
 -827.424 838.764 -949.676 901.764 -946.8 1118.88 c 0
EndSplineSet
Fore
SplineSet
318 514 m 0
 301 451 293 395 293 346 c 0
 293 218 347 144 425 144 c 0
 651 144 783 442 841 608 c 1
 886 804 l 1
 836 839 763 890 659 890 c 0
 468 890 389 774 318 514 c 0
1081 1002 m 1
 961 356 l 2
 913 99 825 -402 429 -402 c 0
 314 -402 173 -360 0 -257 c 1
 76 -107 l 1
 221 -208 334 -247 423 -247 c 0
 677 -247 759 97 797 220 c 1
 739 136 608 -8 396 -8 c 0
 241 -8 141 140 141 343 c 0
 141 394 147 448 160 504 c 0
 244 862 378 1034 679 1034 c 0
 805 1034 868 994 916 961 c 1
 921 984 924 1006 926 1026 c 1
 1081 1002 l 1
EndSplineSet
Validated: 1
EndChar

StartChar: p
Encoding: 112 112 7
Width: 1060
VWidth: -2
Flags: W
HStem: -7 155<397.002 672.493> 858 155<650.777 856.422> 1016 20G<303 470.5>
VStem: 51 162<-394 -103.672> 303 168<774.076 1016> 884 157<427.616 833.798>
LayerCount: 2
Fore
SplineSet
865 527 m 0
 877 590 884 645 884 692 c 0
 884 797 850 858 771 858 c 0
 634 858 477 667 366 430 c 1
 334 262 l 1
 376 211 421 148 512 148 c 0
 675 148 810 244 865 527 c 0
271 757 m 2
 273 765 274 773 276 781 c 0
 292 864 300 950 303 1016 c 1
 471 1036 l 1
 470 1004 436 814 429 772 c 1
 561 982 658 1013 800 1013 c 0
 958 1013 1041 885 1041 696 c 0
 1041 649 1036 599 1026 546 c 0
 961 210 791 -7 468 -7 c 0
 368 -7 331 39 289 70 c 1
 244 -151 l 2
 230 -246 219 -332 213 -400 c 1
 51 -394 l 1
 56 -321 67 -237 86 -146 c 2
 271 757 l 2
EndSplineSet
Validated: 1
EndChar

StartChar: h
Encoding: 104 104 8
Width: 1060
VWidth: -2
Flags: HW
HStem: 867 153<613.283 829.422>
VStem: 82 156<7.26482 179.604> 753 161<119.295 413.046> 856 161<503.063 845.509>
LayerCount: 2
Fore
SplineSet
830 576 m 2xe0
 842 638 856 706 856 747 c 0
 856 813 823 867 738 867 c 0
 660 867 475 787 338 484 c 1
 286 198 l 2
 272 119 252 46 238 0 c 1
 82 8 l 1
 104 80 116 127 131 204 c 0
 229 708 363 1402 363 1402 c 1
 522 1402 l 1
 411 832 l 1
 493 955 610 1020 712 1020 c 0
 894 1020 1017 956 1017 775 c 0xd0
 1017 735 1009 692 1000 642 c 0
 970 489 948 380 927 275 c 0
 925 266 914 212 914 197 c 0
 914 127 950 123 994 101 c 1
 928 -35 l 1
 836 -13 753 58 753 156 c 0
 753 193 764 241 768 260 c 2
 830 576 l 2xe0
EndSplineSet
Validated: 1
EndChar

StartChar: i
Encoding: 105 105 9
Width: 1060
VWidth: 0
Flags: W
HStem: -18 142<604.508 910.381> 1181 225<586 778>
VStem: 428 159<140.796 474.195>
LayerCount: 2
Fore
SplineSet
586 1406 m 1
 821 1406 l 1
 778 1181 l 1
 543 1181 l 1
 586 1406 l 1
EndSplineSet
Refer: 177 305 N 1 0 0 1 0 0 2
Validated: 1
EndChar

StartChar: j
Encoding: 106 106 10
Width: 1060
VWidth: 0
Flags: HW
HStem: -387 156<285.666 552.366> 892 149<579.147 778.68> 1179 225<833 1023>
VStem: 785 156<571.234 890.213>
LayerCount: 2
Fore
SplineSet
833 1404 m 1
 1066 1401 l 1
 1023 1176 l 1
 789 1179 l 1
 833 1404 l 1
EndSplineSet
Refer: 330 567 N 1 0 0 1 0 0 2
Validated: 1
EndChar

StartChar: k
Encoding: 107 107 11
Width: 1060
VWidth: -2
Flags: HW
HStem: 872 144<678.804 876.355>
VStem: 386 161<1173.39 1410.36> 895 152<595.534 854.097>
LayerCount: 2
Fore
SplineSet
547 538 m 1
 547 538 665 504 704 504 c 0
 808 504 864 599 884 672 c 1
 891 698 895 724 895 747 c 0
 895 819 862 872 799 872 c 0
 637 872 433 587 375 420 c 1
 365 370 299 33 293 0 c 1
 136 0 l 1
 375 1228 l 2
 382 1264 386 1300 386 1336 c 0
 386 1361 384 1385 380 1410 c 1
 543 1427 l 1
 545 1416 547 1390 547 1358 c 0
 547 1321 544 1276 537 1240 c 2
 444 761 l 1
 598 986 712 1016 818 1016 c 0
 948 1016 1047 905 1047 791 c 0
 1047 786 1046 781 1046 776 c 1
 1035 600 964 404 766 388 c 1
 890 292 937 170 997 34 c 1
 856 -29 l 1
 801 144 684 323 495 398 c 1
 547 538 l 1
EndSplineSet
Validated: 1
EndChar

StartChar: l
Encoding: 108 108 12
Width: 1060
VWidth: -2
Flags: W
HStem: -18 142<556.209 910.381> 1424 20G<557.325 723>
VStem: 355 161<166.217 556.789>
LayerCount: 2
Back
SplineSet
552.328 1446.4 m 4
 744.828 1446.4 777.393 1282.82 753.41 1153.6 c 6
 592.217 283.5 l 6
 573.022 179.894 607.104 124 699.104 124 c 4
 792.104 124 890.331 148 969.438 200 c 5
 1045.13 83 l 5
 945.333 12 796.501 -18 672.501 -18 c 4
 438.631 -18 412.279 155.212 435.438 279.5 c 6
 600.924 1167.6 l 6
 608.682 1208.93 611.328 1295.6 550.328 1297.6 c 4
 501.328 1297.6 435.328 1298.6 313.328 1186.6 c 5
 216.328 1319.6 l 5
 351.328 1408.6 417.328 1446.4 552.328 1446.4 c 4
EndSplineSet
Fore
SplineSet
723 1431 m 25
 525 376 l 2
 519 344 516 316 516 291 c 0
 516 158 592 124 699 124 c 0
 792 124 890 148 969 200 c 1
 1045 83 l 1
 945 12 797 -18 673 -18 c 0
 460 -18 355 106 355 281 c 0
 355 310 358 340 364 372 c 2
 561 1444 l 25
 723 1431 l 25
EndSplineSet
Validated: 1
EndChar

StartChar: m
Encoding: 109 109 13
Width: 1060
VWidth: 4
Flags: W
HStem: 0 0G<60 204.878 428 572.873 932.5 975.083> 873 153<492.445 655.5 839.355 1014> 1027 20G<302 382.5>
VStem: 228 158<877 1007.35> 950 140<672.648 870.776>
LayerCount: 2
Fore
SplineSet
964 1026 m 3
 1064 1026 1090 934 1090 846 c 0
 1090 807 1085 768 1079 739 c 2
 977 216 l 2
 976 211 976 206 976 201 c 0
 976 158 1015 126 1049 112 c 1
 962 -21 l 1
 903 -9 827 37 827 142 c 0
 827 157 829 173 832 191 c 2
 833 193 l 1
 943 760 l 2
 944 764 944 768 945 773 c 0
 947 785 950 801 950 816 c 0
 950 845 940 873 901 873 c 0
 853 873 791 827 703 692 c 1
 569 0 l 1
 428 0 l 1
 585 806 l 1
 587 815 588 825 588 835 c 0
 588 855 581 873 550 873 c 0
 502 873 423 827 335 691 c 1
 201 0 l 1
 60 0 l 1
 215 815 l 2
 225 866 228 905 228 937 c 0
 228 963 226 985 223 1007 c 1
 381 1047 l 1
 384 1035 386 1013 386 989 c 0
 386 951 382 905 378 877 c 1
 440 957 540 1026 613 1026 c 1
 698 1026 741 966 741 904 c 0
 741 895 740 886 738 877 c 1
 796 956 872 1026 964 1026 c 3
EndSplineSet
Validated: 1
EndChar

StartChar: o
Encoding: 111 111 14
Width: 1060
VWidth: 6
Flags: W
HStem: 1 155<376.229 671.059> 878 154<515.388 803.186>
VStem: 148 162<221.274 586.445> 862 161<425.993 817.774>
LayerCount: 2
Fore
SplineSet
696 215 m 5
 773 276 817 382 846 530 c 4
 847 536 849 542 850 548 c 4
 857 588 862 627 862 662 c 0
 862 789 809 878 671 878 c 4
 463 878 368 713 321 469 c 4
 314 433 310 399 310 368 c 0
 310 234 378 156 514 156 c 5
 590 157 638 173 696 215 c 5
482 1 m 5
 257 2 148 127 148 329 c 0
 148 371 153 416 162 464 c 4
 219 756 375 1032 667 1032 c 4
 864 1032 961 963 1005 831 c 4
 1018 792 1023 745 1023 695 c 0
 1023 644 1018 592 1008 543 c 4
 953 258 806 1 484 1 c 6
 482 1 l 5
EndSplineSet
Validated: 1
EndChar

StartChar: n
Encoding: 110 110 15
Width: 1060
VWidth: 6
Flags: W
HStem: -1 3G<147.881 302 869 922.929> 877 153<663.479 875.109>
VStem: 303 162<856.796 1014.7> 763 162<83.2496 404.281> 881 164<724.927 870.897>
LayerCount: 2
Fore
SplineSet
465 856 m 1xe8
 583 974 695 1030 823 1030 c 0
 931 1030 1045 961 1045 838 c 0xe8
 1045 825 1044 811 1041 796 c 2
 927 211 l 2
 925 203 925 197 925 190 c 0
 925 140 966 120 1010 93 c 1
 904 -19 l 1
 834 19 763 62 763 159 c 0xf0
 763 173 765 188 768 204 c 2
 877 765 l 2
 880 778 881 791 881 802 c 0
 881 851 855 877 795 877 c 1
 679 877 496 740 400 486 c 1
 302 0 l 1
 144 -1 l 1
 281 705 l 2
 298 793 303 846 303 889 c 0
 303 933 298 966 295 1014 c 1
 465 1032 l 1
 467 1014 468 984 468 948 c 0
 468 920 467 888 465 856 c 1xe8
EndSplineSet
Validated: 1
EndChar

StartChar: q
Encoding: 113 113 16
Width: 1060
VWidth: -2
Flags: W
HStem: -8 152<361.542 550.008> 890 144<518.442 842.614>
VStem: 164 152<187.28 570.631> 697 165<-368.954 93.3045> 939 165<961 1004.22>
LayerCount: 2
Fore
SplineSet
341 514 m 0
 324 451 316 395 316 346 c 0
 316 218 370 144 448 144 c 0
 597 144 779 456 871 664 c 1
 909 804 l 1
 859 839 786 890 682 890 c 0
 491 890 412 774 341 514 c 0
1104 1002 m 1
 1000 504 l 2
 981 407 893 101 871 -52 c 0
 865 -94 862 -134 862 -171 c 0
 862 -243 874 -307 898 -372 c 1
 742 -424 l 1
 712 -344 697 -251 697 -165 c 0
 697 -126 700 -89 706 -55 c 0
 734 105 780 198 791 262 c 1
 733 178 631 -8 419 -8 c 0
 264 -8 164 140 164 343 c 0
 164 394 170 448 183 504 c 0
 267 862 401 1034 702 1034 c 0
 828 1034 891 994 939 961 c 1
 944 984 947 1006 949 1026 c 1
 1104 1002 l 1
EndSplineSet
Validated: 1
EndChar

StartChar: r
Encoding: 114 114 17
Width: 1060
VWidth: 4
Flags: HWO
HStem: 865 160<762.608 928.668>
VStem: 362 151<640.773 890.408> 931 159<723.094 859.029>
LayerCount: 2
Fore
SplineSet
496 731 m 1
 644 955 762 1025 917 1025 c 0
 1026 1025 1090 962 1090 854 c 0
 1090 817 1085 775 1076 729 c 0
 1076 727 1075 725 1075 723 c 1
 919 723 l 1
 924 756 931 785 931 809 c 0
 931 843 916 865 862 865 c 0
 761 865 599 669 456 446 c 1
 366 0 l 1
 210 1 l 1
 359 764 l 2
 361 773 362 782 362 791 c 0
 362 838 336 884 274 931 c 1
 394 1067 l 1
 439 1024 513 951 513 840 c 0
 513 824 499 748 496 731 c 1
EndSplineSet
Validated: 1
EndChar

StartChar: s
Encoding: 115 115 18
Width: 1060
VWidth: 6
Flags: W
HStem: -20 143<376.504 703.389> 882 148<549.926 968.742>
VStem: 146 160<188.4 328.704> 342 168<694.631 841.832> 790 172<207.19 372.533>
LayerCount: 2
Fore
SplineSet
442 574 m 0
 376 622 342 685 342 756 c 0
 342 773 344 790 348 808 c 0
 380 955 507 1030 715 1030 c 0
 851 1030 960 1013 1059 972 c 1
 1001 823 l 1
 932 860 826 882 701 882 c 0
 571 882 510 821 510 766 c 0
 510 744 519 724 538 708 c 0
 717 558 962 499 962 306 c 0
 962 290 960 273 957 256 c 0
 914 35 721 -20 498 -20 c 0
 304 -20 146 89 146 267 c 0
 146 287 148 308 152 330 c 1
 309 329 l 1
 307 317 306 306 306 295 c 0
 306 183 420 123 523 123 c 0
 646 123 768 172 789 282 c 0
 790 286 790 291 790 295 c 0
 790 391 583 471 442 574 c 0
EndSplineSet
Validated: 1
EndChar

StartChar: t
Encoding: 116 116 19
Width: 1060
VWidth: 0
Flags: W
HStem: -6 155<494.13 810.479> 865 147<216.015 217 218.267 380 662 978> 999 20G<989 1003.05>
VStem: 273 162<206.068 583.06>
LayerCount: 2
Fore
SplineSet
452 474 m 1xb0
 445 434 l 2
 438 400 435 369 435 342 c 0
 435 202 519 149 643 149 c 0
 794 149 865 225 904 294 c 1
 1025 201 l 1
 979 118 860 -6 615 -6 c 0
 422 -6 273 99 273 318 c 0
 273 353 277 390 285 431 c 2
 293 474 l 1
 317 578 336 672 380 865 c 1
 301 865 l 2
 273 865 244 861 217 854 c 1
 198 1000 l 1
 224 1009 297 1012 330 1012 c 2
 410 1012 l 1xd0
 424 1082 442 1176 456 1246 c 1
 614 1245 l 1
 601 1179 582 1085 568 1017 c 1
 690 1017 l 1
 835 1018 989 1019 989 1019 c 1
 1007 1019 l 1
 978 872 l 1
 662 872 l 2
 616 872 588 869 542 869 c 1
 493 665 475 574 452 474 c 1xb0
EndSplineSet
Validated: 1
EndChar

StartChar: u
Encoding: 117 117 20
Width: 1060
VWidth: 6
Flags: W
HStem: -10 21G<863.5 900.949> -10 21G<863.5 900.949> 0 155<332.953 525.212> 1008 20G<910.905 1058.64>
VStem: 154 167<164.519 462.848> 303 164<762.633 996.196> 775 145<86.8454 291.394>
LayerCount: 2
Fore
SplineSet
883 -10 m 1x9a
 844 23 775 54 775 182 c 0
 775 214 780 252 790 298 c 1
 694 121 551 1 400 0 c 1
 270 0 154 88 154 225 c 0x3a
 154 241 156 258 159 275 c 1
 205 527 303 869 303 977 c 0
 303 984 303 989 302 994 c 1
 467 1021 l 1
 467 1018 467 1014 467 1011 c 0x36
 467 912 394 666 326 306 c 1
 323 288 321 270 321 254 c 0
 321 199 342 155 409 155 c 1x3a
 574 155 751 457 846 691 c 1
 915 1028 l 1
 1073 1006 l 1
 922 239 l 1
 921 231 920 224 920 217 c 0
 920 160 958 136 988 107 c 1
 883 -10 l 1x9a
EndSplineSet
Validated: 1
EndChar

StartChar: v
Encoding: 118 118 21
Width: 1060
VWidth: 6
Flags: W
HStem: -3 21G<367.5 419> 1028 20G<326.167 384.5>
VStem: 371 165<177 488.173> 951 153<787.367 1011>
LayerCount: 2
Fore
SplineSet
357 1048 m 1
 412 973 425 924 436 849 c 0
 456 729 536 324 536 195 c 0
 536 188 535 182 535 177 c 1
 687 320 868 610 914 817 c 0
 920 845 928 881 934 914 c 0
 942 955 950 993 951 1011 c 1
 1104 1015 l 1
 1104 999 1082 879 1071 821 c 0
 1021 576 808 251 628 71 c 0
 557 0 472 -3 366 -3 c 1
 369 14 371 38 371 66 c 0
 371 266 295 704 267 839 c 0
 263 860 230 927 209 952 c 1
 357 1048 l 1
EndSplineSet
Validated: 1
EndChar

StartChar: w
Encoding: 119 119 22
Width: 1060
Flags: HWO
HStem: -9 21G<731.5 812> -9 21G<731.5 812>
VStem: 233 156<286.016 1013.68> 610.5 117.5<149.304 331> 984 154<509.392 968.864>
LayerCount: 2
Fore
SplineSet
197 1006 m 1xb8
 355 1042 l 1
 373 990 389 915 389 795 c 0
 388 553 370 362 328 193 c 1
 429 286 516 391 596 544 c 1
 600 573 602 609 602 647 c 0
 602 697 599 750 594 795 c 1
 722 797 l 1
 733 672 738 542 738 420 c 0
 738 322 734 229 728 147 c 1
 823 262 984 444 984 777 c 0
 984 852 955 943 926 996 c 1
 1080 1048 l 1
 1130 949 1138 847 1138 778 c 0
 1138 394 887 128 737 -9 c 1
 726 -9 591 6 580 6 c 1
 596 107 609 167 610 331 c 1
 550 243 456 148 288 -21 c 1
 264 -13 190 17 162 19 c 1
 188 161 233 512 233 737 c 0
 233 823 218 949 197 1006 c 1xb8
EndSplineSet
Validated: 1
EndChar

StartChar: x
Encoding: 120 120 23
Width: 1060
VWidth: 4
Flags: W
HStem: 3 153<865.04 952>
LayerCount: 2
Fore
SplineSet
1028 863 m 0
 961 778 808 595 707 488 c 1
 765 385 859 178 876 165 c 0
 879 162 894 156 928 156 c 0
 946 156 964 159 981 162 c 1
 952 8 l 1
 931 5 909 3 889 3 c 0
 849 3 811 15 776 43 c 1
 713 90 646 261 585 379 c 1
 397 184 201 0 183 -18 c 1
 69 99 l 1
 79 110 316 333 509 521 c 1
 448 639 365 812 267 986 c 1
 416 1061 l 1
 507 891 568 749 627 633 c 1
 716 720 787 807 881 930 c 0
 908 965 925 1002 932 1019 c 1
 1106 1020 l 1
 1090 971 1070 914 1028 863 c 0
EndSplineSet
Validated: 1
EndChar

StartChar: y
Encoding: 121 121 24
Width: 1060
VWidth: 14
Flags: W
HStem: -376 153<144.961 349.287> 862 167<202.408 307.871>
LayerCount: 2
Fore
SplineSet
73 -110 m 1
 97 -141 178 -223 252 -223 c 0
 349 -223 434 -86 486 0 c 1
 458 302 375 845 254 862 c 1
 228 865 204 856 203 855 c 1
 190 1023 l 1
 222 1027 246 1029 267 1029 c 0
 293 1029 313 1026 338 1020 c 0
 497 979 590 487 623 192 c 1
 739 409 922 815 974 1042 c 1
 1126 1000 l 1
 983 585 642 -376 235 -376 c 1
 110 -376 8 -278 -32 -228 c 1
 73 -110 l 1
EndSplineSet
Validated: 1
EndChar

StartChar: z
Encoding: 122 122 25
Width: 1060
VWidth: 6
Flags: W
HStem: -5 164<503.625 823.656> 61 154<388 578.186> 863 157<384.315 933>
VStem: 868 150<205.002 274.676>
LayerCount: 2
Fore
SplineSet
364 801 m 1x70
 270 925 l 1
 374 1014 466 1020 568 1020 c 0
 627 1020 797 1020 867 1020 c 0
 917 1020 1022 1021 1084 1030 c 1
 1150 886 l 1
 890 593 734 509 388 215 c 1x70
 534 215 619 159 704 159 c 0
 804 159 858 218 868 300 c 1
 1018 272 l 1
 1002 144 912 -5 716 -5 c 1xb0
 573 -4 504 61 362 61 c 0
 257 61 212 21 135 -34 c 1
 42 94 l 1
 478 510 656 600 933 867 c 1
 907 865 880 864 852 864 c 0
 755 864 651 863 556 863 c 0
 495 863 425 859 364 801 c 1x70
EndSplineSet
Validated: 1
EndChar

StartChar: A
Encoding: 65 65 26
Width: 1060
VWidth: 0
Flags: W
HStem: 0 21G<42 206.5 871.988 1044> 332 160<434.395 814> 1281 20G<676.807 860.859>
VStem: 42 162<0 114.376>
LayerCount: 2
Fore
SplineSet
814 495 m 1
 734 1082 l 1
 430 475 l 1
 493 488 549 488 633 492 c 1
 814 495 l 1
875 0 m 2
 825 332 l 1
 683 329 461 327 345 300 c 1
 252 121 l 2
 236 92 209 28 204 0 c 1
 42 0 l 1
 48 28 84 116 105 159 c 1
 687 1301 l 1
 858 1301 l 1
 1044 0 l 2
 875 0 l 2
EndSplineSet
Validated: 1
EndChar

StartChar: B
Encoding: 66 66 27
Width: 1060
VWidth: 0
Flags: W
HStem: -5 151<281 714.411> 647 156<413 680.732> 1150 149<472.876 760.781>
VStem: 787 162<896.843 1115.17> 869 157<304.544 573.359>
LayerCount: 2
Fore
SplineSet
257 823 m 0xe8
 291 996 319 1158 335 1285 c 1
 417 1291 467 1299 580 1299 c 0
 586 1299 592 1299 598 1299 c 0
 765 1299 949 1236 949 1062 c 0xf0
 949 1043 947 1023 943 1002 c 0
 924 906 897 825 811 767 c 1
 935 722 1026 619 1026 471 c 0
 1026 446 1023 420 1018 393 c 0
 974 168 849 48 627 3 c 0
 587 -5 545 -5 506 -5 c 0
 421 -5 333 3 225 3 c 2
 89 3 l 1
 127 197 176 407 257 823 c 0xe8
784 992 m 2
 786 1004 787 1015 787 1025 c 0
 787 1134 704 1150 581 1150 c 2
 564 1150 l 2
 525 1150 509 1148 478 1145 c 1
 474 1108 466 1064 457 1017 c 0
 444 950 427 877 413 803 c 1
 604 807 751 825 782 984 c 1
 784 992 l 2
820 578 m 0
 759 639 700 649 605 649 c 0
 556 649 498 647 425 647 c 2
 381 647 l 1
 333 410 297 229 281 153 c 1
 389 153 427 146 502 146 c 0
 542 146 578 148 614 153 c 0
 723 166 835 265 863 409 c 0
 867 429 869 447 869 464 c 0xe8
 869 512 853 546 820 578 c 0
EndSplineSet
Validated: 1
EndChar

StartChar: C
Encoding: 67 67 28
Width: 1060
VWidth: 0
Flags: W
HStem: -3 154<416.487 747.446> 1152 154<640.376 930.378>
VStem: 157 160<261.362 714.952>
LayerCount: 2
Fore
SplineSet
793 1152 m 0
 518 1152 363 766 336 625 c 0
 324 565 317 507 317 453 c 0
 317 361 338 281 388 224 c 0
 439 166 483 151 565 151 c 2
 579 151 l 1
 727 156 827 230 900 342 c 1
 1025 266 l 1
 921 111 764 -3 574 -3 c 2
 571 -3 l 2
 460 -3 333 22 257 114 c 1
 191 198 157 303 157 433 c 0
 157 491 164 554 177 623 c 0
 226 877 338 1033 405 1109 c 0
 498 1215 651 1306 826 1306 c 0
 966 1306 1093 1228 1150 1069 c 1
 1015 988 l 1
 977 1108 879 1152 793 1152 c 0
EndSplineSet
Validated: 1
EndChar

StartChar: D
Encoding: 68 68 29
Width: 1060
VWidth: 0
Flags: W
HStem: -10 151<258 673.492> 1152 152<450.491 759.326>
VStem: 934 164<461.499 960.578>
LayerCount: 2
Fore
SplineSet
533 1152 m 6
 503 1152 l 6
 487 1152 476 1153 458 1150 c 5
 454 1125 448 1094 442 1064 c 4
 430 1002 415 934 402 866 c 4
 344 566 278 240 258 144 c 5
 345 141 390 141 450 141 c 4
 564 141 750 167 850 346 c 4
 875 391 904 479 914 533 c 4
 927 600 934 669 934 733 c 4
 934 820 921 899 894 954 c 4
 830 1082 754 1152 533 1152 c 6
94 125 m 5
 104 179 187 568 248 883 c 6
 262 957 l 6
 286 1083 306 1205 314 1291 c 5
 397 1299 442 1304 541 1304 c 4
 812 1304 953 1224 1041 1045 c 5
 1079 966 1098 867 1098 760 c 4
 1098 698 1091 633 1079 568 c 4
 1018 250 891 36 558 -3 c 4
 502 -9 451 -10 396 -10 c 4
 312 -10 180 -3 66 -3 c 5
 72 30 72 29 94 125 c 5
EndSplineSet
Validated: 1
EndChar

StartChar: E
Encoding: 69 69 30
Width: 1060
VWidth: 0
Flags: W
HStem: -3 151<286 909.964> 666 150<419 857> 1144 153<482 1141>
LayerCount: 2
Fore
SplineSet
353 1293 m 1
 410 1297 480 1297 558 1297 c 0
 589 1297 622 1297 656 1297 c 2
 766 1297 l 2
 915 1297 1051 1294 1125 1294 c 2
 1141 1294 l 1
 1141 1144 l 5
 482 1144 l 1
 419 816 l 1
 857 816 l 1
 857 666 l 5
 389 666 l 1
 384 636 l 2
 345 433 301 225 286 148 c 1
 805 148 l 2
 861 148 910 168 910 168 c 1
 960 27 l 1
 915 9 871 -3 795 -3 c 2
 101 -3 l 1
 353 1293 l 1
EndSplineSet
Validated: 1
EndChar

StartChar: F
Encoding: 70 70 31
Width: 1060
VWidth: 0
Flags: W
HStem: -1 21G<117 286> 668 150<430 852.348> 1145 153<494 1135.92>
LayerCount: 2
Fore
SplineSet
277 -1 m 1
 117 3 l 1
 368 1298 l 1
 1053 1298 l 1
 1129 1295 1175 1280 1206 1263 c 1
 1137 1117 l 1
 1114 1131 1095 1144 997 1145 c 1
 927 1145 l 2
 823 1145 677 1144 494 1143 c 1
 430 815 l 1
 550 815 618 818 740 818 c 0
 828 818 884 804 885 804 c 2
 902 799 l 1
 854 654 l 1
 819 663 769 668 724 668 c 0
 618 668 510 668 401 665 c 1
 377 544 295 92 277 -1 c 1
EndSplineSet
Validated: 1
EndChar

StartChar: G
Encoding: 71 71 32
Width: 1060
VWidth: 0
Flags: W
HStem: -8 155<397.48 751.892> 587 148<570.252 940> 1150 152<572.689 931.617>
VStem: 122 161<260.64 724.391> 1008 166<1022.03 1077.08>
LayerCount: 2
Fore
SplineSet
1125 733 m 1
 1110 605 l 2
 1059 165 879 49 692 3 c 1
 645 -7 580 -8 538 -8 c 0
 244 -8 122 180 122 436 c 0
 122 497 129 561 142 628 c 0
 188 865 279 1059 435 1186 c 1
 552 1274 671 1302 786 1302 c 2
 806 1302 l 1
 1019 1297 1131 1189 1174 1026 c 1
 1008 980 l 1
 978 1094 921 1150 766 1150 c 0
 682 1150 619 1144 528 1077 c 0
 399 982 335 789 302 617 c 0
 290 556 283 498 283 445 c 0
 283 271 357 147 579 147 c 0
 790 147 880 275 940 587 c 1
 935 587 930 587 926 587 c 0
 882 587 843 588 804 588 c 0
 729 588 657 583 566 552 c 1
 529 693 l 1
 632 729 737 735 838 735 c 0
 941 735 1030 735 1125 733 c 1
EndSplineSet
Validated: 1
EndChar

StartChar: H
Encoding: 72 72 33
Width: 1060
VWidth: 0
Flags: W
HStem: 0 21G<60 238.5 754 915.888> 625 152<370.082 875> 1276 20G<312 468.088>
LayerCount: 2
Fore
SplineSet
472 1296 m 5
 365 749 l 5
 461 770 557 777 677 777 c 6
 905 777 l 5
 958 1051 973 1129 1004 1291 c 5
 1163 1291 l 5
 912 0 l 5
 754 0 l 5
 875 625 l 5
 832 625 789 625 746 625 c 4
 600 625 458 622 335 597 c 5
 268 254 256 181 221 0 c 5
 60 0 l 5
 312 1294 l 5
 472 1296 l 5
EndSplineSet
Validated: 1
EndChar

StartChar: K
Encoding: 75 75 34
Width: 1060
VWidth: 0
Flags: W
HStem: -5 9G<115 277.255 852.5 927.4> 1288 20G<366.116 528 1104.5 1131.56>
VStem: 865 156<28.4051 86.5903>
LayerCount: 2
Fore
SplineSet
630 712 m 1
 727 595 996 168 1021 33 c 1
 865 -17 l 1
 840 92 616 461 510 587 c 1
 510 587 407 489 363 418 c 1
 273 -5 l 1
 115 -5 l 1
 370 1308 l 1
 528 1308 l 1
 411 703 l 1
 513 814 599 893 718 996 c 1
 947 1191 1092 1289 1117 1310 c 1
 1208 1185 l 1
 1000 1053 704 785 630 712 c 1
EndSplineSet
Validated: 1
EndChar

StartChar: L
Encoding: 76 76 35
Width: 1060
VWidth: 0
Flags: W
HStem: -3 154<331 952.834> 1278 20G<389.111 554>
LayerCount: 2
Fore
SplineSet
140 -3 m 1
 393 1298 l 1
 554 1298 l 1
 331 151 l 1
 852 151 l 1
 912 154 908 155 955 170 c 1
 1009 28 l 1
 951 0 899 -3 824 -3 c 2
 140 -3 l 1
EndSplineSet
Validated: 1
EndChar

StartChar: M
Encoding: 77 77 36
Width: 1060
VWidth: 31
Flags: W
HStem: -5 21G<61 222.851 730 890.873>
VStem: 310 155<1217.33 1291>
LayerCount: 2
Fore
SplineSet
310 1292 m 1
 465 1291 l 1
 484 1142 514 1062 552 938 c 0
 575 861 601 797 613 759 c 1
 726 914 901 1146 981 1291 c 1
 1138 1291 l 1
 887 -5 l 1
 730 -5 l 1
 908 910 l 1
 807 769 660 575 642 539 c 1
 520 542 l 1
 515 558 469 677 414 846 c 1
 402 890 405 881 395 909 c 1
 219 -5 l 1
 61 -5 l 1
 310 1292 l 1
EndSplineSet
Validated: 1
EndChar

StartChar: N
Encoding: 78 78 37
Width: 1060
VWidth: 0
Flags: W
HStem: -3 18G<74 248 704 910> 1278 19G<323.111 486 993 1168>
VStem: 751 159<-5 157.392>
LayerCount: 2
Fore
SplineSet
751 -6 m 1
 657 351 561 648 428 1001 c 1
 388 797 l 2
 331 504 263 149 233 -3 c 1
 74 -3 l 1
 327 1298 l 1
 486 1294 l 1
 576 1110 753 605 822 357 c 1
 845 487 871 623 897 757 c 0
 933 943 972 1126 1014 1297 c 1
 1168 1297 l 1
 1140 1184 1110 1035 1078 872 c 0
 1034 646 988 392 943 162 c 0
 932 105 920 48 910 -5 c 1
 751 -6 l 1
EndSplineSet
Validated: 1
EndChar

StartChar: O
Encoding: 79 79 38
Width: 1060
VWidth: 0
Flags: W
HStem: -13 153<366.462 659.667> 1173 153<585.265 859.235>
VStem: 118 162<227.749 691.372> 944 158<555.722 1070.95>
LayerCount: 2
Fore
SplineSet
762 1326 m 1
 867 1326 1102 1273 1102 882 c 0
 1102 811 1095 730 1077 635 c 1
 1075 624 l 2
 1043 460 970 307 904 214 c 0
 801 70 654 -13 489 -13 c 0
 367 -13 249 30 187 130 c 0
 141 203 118 295 118 402 c 0
 118 455 123 512 135 572 c 0
 202 917 308 1066 396 1161 c 0
 479 1251 605 1323 762 1326 c 1
314 245 m 0
 350 180 411 140 519 140 c 0
 607 140 721 207 782 290 c 1
 834 354 896 520 918 627 c 1
 922 646 l 2
 934 711 944 789 944 862 c 0
 944 918 938 972 924 1017 c 0
 888 1131 826 1173 738 1173 c 0
 670 1173 581 1145 508 1069 c 0
 422 980 345 838 294 576 c 0
 285 532 280 478 280 426 c 0
 280 355 290 287 314 245 c 0
EndSplineSet
Validated: 1
EndChar

StartChar: P
Encoding: 80 80 39
Width: 1060
VWidth: 0
Flags: W
HStem: -10 21G<102 275> 460 152<382 765.213> 1151 151<487 906.874>
VStem: 967 165<796.778 1094.68>
LayerCount: 2
Fore
SplineSet
959 900 m 0
 964 927 967 951 967 973 c 0
 967 1134 852 1146 639 1151 c 1
 578 1151 532 1147 487 1146 c 1
 462 1020 l 2
 426 837 382 613 382 613 c 1
 418 612 452 612 485 612 c 0
 731 612 915 672 959 900 c 0
260 -10 m 1
 102 -9 l 1
 356 1294 l 1
 474 1294 513 1302 646 1302 c 0
 871 1302 1008 1289 1096 1151 c 0
 1122 1110 1132 1060 1132 1006 c 0
 1132 974 1128 940 1122 906 c 0
 1104 815 1077 715 1000 628 c 0
 875 488 744 460 505 460 c 0
 457 460 407 461 353 463 c 1
 302 200 290 146 260 -10 c 1
EndSplineSet
Validated: 1
EndChar

StartChar: Q
Encoding: 81 81 40
Width: 1060
VWidth: 0
Flags: W
HStem: -131 151<778.438 968> -3 147<419.742 625.078> 281 149<446.712 622.087> 1152 153<583.261 850.315>
VStem: 148 164<291.11 722.492> 939 160<577.513 1057.02>
LayerCount: 2
Fore
SplineSet
864 -131 m 0xbc
 749 -131 627 -112 626 15 c 1
 583 4 540 -3 500 -3 c 0x7c
 384 -3 285 40 222 121 c 0
 172 186 148 283 148 401 c 0
 148 470 156 547 172 629 c 0
 212 836 279 1028 398 1150 c 0
 514 1270 620 1305 743 1305 c 0
 910 1305 1013 1240 1065 1099 c 0
 1090 1030 1099 960 1099 894 c 0
 1099 577 976 230 773 97 c 1
 773 94 773 91 773 88 c 0
 773 24 805 21 882 20 c 1
 893 20 l 2
 930 20 954 24 979 30 c 1
 968 -126 l 1
 945 -131 909 -131 864 -131 c 0xbc
564 430 m 0
 683 430 755 380 770 286 c 1
 862 457 939 639 939 874 c 0
 939 923 932 974 913 1023 c 0
 882 1100 812 1152 711 1152 c 0
 530 1152 383 897 343 691 c 0
 330 622 312 530 312 432 c 0
 312 384 316 335 327 288 c 1
 382 401 516 430 564 430 c 0
628 166 m 1
 628 174 629 181 629 188 c 0
 629 255 609 281 543 281 c 0
 485 281 429 239 418 183 c 0
 418 182 417 181 417 180 c 0
 438 153 480 144 518 144 c 0
 549 144 589 151 628 166 c 1
EndSplineSet
Validated: 1
EndChar

StartChar: R
Encoding: 82 82 41
Width: 1060
VWidth: 0
Flags: W
HStem: 0 5G<90 251.845 938 977.515> 567 152<387 573.259> 1150 153<468 851.317>
VStem: 951 159<790.734 1062>
LayerCount: 2
Fore
SplineSet
757 540 m 1
 811 418 920 241 963 176 c 1
 978 160 1002 127 1042 116 c 1
 966 -16 l 1
 910 -7 863 30 837 72 c 1
 761 179 615 440 577 534 c 1
 497 542 430 554 357 567 c 1
 248 0 l 1
 90 0 l 1
 306 1113 l 2
 319 1180 327 1227 335 1288 c 1
 378 1292 495 1303 556 1303 c 0
 806 1303 972 1289 1065 1139 c 0
 1093 1095 1110 1035 1110 972 c 0
 1110 951 1108 930 1104 909 c 0
 1061 689 963 566 757 540 c 1
946 895 m 0
 949 912 951 929 951 945 c 0
 951 981 942 1015 919 1048 c 0
 867 1126 756 1150 532 1150 c 0
 506 1150 497 1150 468 1149 c 1
 387 719 l 1
 483 701 557 684 639 684 c 0
 810 684 914 726 946 895 c 0
EndSplineSet
Validated: 1
EndChar

StartChar: S
Encoding: 83 83 42
Width: 1060
VWidth: 0
Flags: W
HStem: -9 151<353.089 715.798> 1051 21G<1013.5 1054.94> 1148 154<524.685 956.998>
VStem: 79 162<240.514 319> 257 171<864.58 1065.2> 868 164<281.674 547.404>
LayerCount: 2
Fore
SplineSet
241 358 m 0
 241 238 347 142 536 142 c 0
 749 142 868 277 868 429 c 0
 868 508 825 561 765 589 c 0
 659 639 506 649 385 709 c 1
 315 745 257 815 257 923 c 0
 257 1187 500 1302 723 1302 c 0
 931 1302 1072 1257 1141 1204 c 1
 1042 1051 l 1
 985 1102 883 1148 698 1148 c 0
 554 1148 428 1072 428 959 c 0
 428 900 455 869 498 847 c 0
 604 791 761 792 881 732 c 1
 963 688 1032 599 1032 468 c 0
 1032 130 769 -9 519 -9 c 2
 500 -9 l 1
 209 -2 79 147 79 319 c 0
 241 358 l 0
EndSplineSet
Validated: 1
EndChar

StartChar: T
Encoding: 84 84 43
Width: 1060
VWidth: 0
Flags: W
HStem: -9 21G<401 564.885> 1144 155<291 625 785 1129.96>
LayerCount: 2
Fore
SplineSet
401 -9 m 5
 625 1144 l 5
 427 1144 337 1143 261 1143 c 5
 291 1298 l 5
 413 1298 868 1299 1056 1299 c 4
 1129 1299 1176 1287 1193 1284 c 5
 1130 1132 l 5
 1130 1132 1070 1144 1020 1144 c 6
 785 1144 l 5
 561 -9 l 5
 401 -9 l 5
EndSplineSet
Validated: 1
EndChar

StartChar: U
Encoding: 85 85 44
Width: 1060
VWidth: 0
Flags: W
HStem: -10 151<369.595 679.685> 1293 9G<304.5 481 1021 1186>
VStem: 145 162<205.789 657.284> 1032 154<1148.03 1301.21>
LayerCount: 2
Fore
SplineSet
1032 1313 m 1
 1186 1300 l 1
 1165 1240 1157 1197 1147 1143 c 0
 1119 998 1097 871 1075 760 c 2
 1063 702 l 2
 1018 470 971 248 834 119 c 0
 734 24 620 -5 490 -10 c 1
 234 -10 145 106 145 312 c 0
 145 354 148 398 155 447 c 0
 165 522 186 644 212 779 c 0
 245 951 286 1144 323 1302 c 1
 481 1302 l 1
 445 1137 398 913 362 728 c 0
 338 605 319 499 312 439 c 0
 309 412 307 386 307 363 c 0
 307 208 374 141 506 141 c 1
 613 146 670 169 735 225 c 1
 816 299 867 505 905 702 c 0
 929 825 953 971 986 1141 c 0
 1000 1212 1010 1251 1032 1313 c 1
EndSplineSet
Validated: 1
EndChar

StartChar: V
Encoding: 86 86 45
Width: 1060
VWidth: 0
Flags: W
HStem: -5 21G<412.5 573>
VStem: 258 162<1102.2 1290.69>
LayerCount: 2
Fore
SplineSet
412 -5 m 1
 413 5 413 17 413 31 c 0
 413 277 306 1075 258 1286 c 1
 420 1339 l 1
 472 1087 525 723 551 355 c 1
 686 669 940 1093 1089 1341 c 1
 1235 1258 l 1
 1092 1027 630 196 573 -4 c 1
 412 -5 l 1
EndSplineSet
Validated: 1
EndChar

StartChar: W
Encoding: 87 87 46
Width: 1060
VWidth: 0
Flags: W
HStem: 0 21G<200.5 338 697.017 869> 1298 20G<316 413.5 993.5 1218.38>
VStem: 256 160<825.827 1286> 640 147<310.009 613> 699 136<0 111.641>
LayerCount: 2
Back
SplineSet
521 613 m 5
 568 388 702 22 710 0 c 5
 841 0 l 5
 884 170 990 1035 1036 1286 c 5
 882 1318 l 5
 761.5 675.2 796 608 752 298 c 5
 682 528 613 886 607 957 c 5
EndSplineSet
Fore
SplineSet
332 0 m 1xf0
 201 0 l 1
 200 13 200 29 200 49 c 0
 200 295 253 1054 256 1286 c 1
 416 1318 l 1
 411 675 364 608 348 298 c 1
 463 528 601 886 621 957 c 1
 666 957 754 957 790 969 c 1
 790 880 787 769 787 657 c 0xf0
 787 528 790 399 802 300 c 1
 890 585 863 624 1124 1315 c 1
 1275 1283 l 1
 1174 1032 903 178 835 0 c 1
 699 0 l 1xe8
 699 0 640 403 640 595 c 0
 640 601 640 607 640 613 c 1
 549 388 344 22 332 0 c 1xf0
EndSplineSet
Validated: 1
EndChar

StartChar: X
Encoding: 88 88 47
Width: 1060
VWidth: 0
Flags: W
LayerCount: 2
Fore
SplineSet
1054 1340 m 1
 1185 1249 l 5
 698 633 l 1
 817 366 883 200 998 63 c 1
 863 -30 l 1
 740 117 691 255 586 497 c 1
 163 -42 l 1
 38 54 l 1
 507 654 l 1
 427 858 358 1092 248 1248 c 1
 407 1331 l 1
 509 1185 560 971 630 799 c 1
 1054 1340 l 1
EndSplineSet
Validated: 1
EndChar

StartChar: Y
Encoding: 89 89 48
Width: 1060
VWidth: 0
Flags: W
HStem: 1294 20G<376.965 449>
LayerCount: 2
Fore
SplineSet
371 42 m 1
 641 524 l 1
 584 635 307 1151 277 1257 c 1
 431 1314 l 1
 467 1224 665 839 741 693 c 1
 788 805 1028 1235 1060 1339 c 1
 1215 1280 l 1
 990 815 754 386 525 -32 c 1
 371 42 l 1
EndSplineSet
Validated: 1
EndChar

StartChar: Z
Encoding: 90 90 49
Width: 1060
VWidth: 0
Flags: W
HStem: -3 154<292 948.938> 1150 152<312 979>
LayerCount: 2
Fore
SplineSet
122 -5 m 1
 44 83 l 1
 979 1150 l 1
 765 1150 426 1145 312 1145 c 1
 311 1298 l 1
 431 1298 883 1302 1071 1302 c 0
 1146 1302 1190 1289 1208 1286 c 1
 1199 1253 1171 1172 1163 1149 c 1
 292 151 l 1
 779 150 l 2
 864 150 907 154 951 177 c 1
 1001 44 l 1
 956 11 883 -3 808 -3 c 2
 565 -3 l 2
 353 -3 177 -5 129 -5 c 2
 122 -5 l 1
EndSplineSet
Validated: 1
EndChar

StartChar: I
Encoding: 73 73 50
Width: 1060
VWidth: 0
Flags: W
HStem: 4 147<183 451 612 849> 1144 154<404 646 806 1072>
LayerCount: 2
Fore
SplineSet
404 1298 m 1
 561 1302 642 1302 738 1302 c 0
 843 1302 939 1301 1102 1299 c 1
 1072 1147 l 1
 949 1147 902 1152 806 1152 c 1
 612 152 l 1
 658 152 684 153 735 153 c 0
 780 153 827 152 878 149 c 1
 849 -1 l 1
 765 4 703 5 640 5 c 0
 593 5 544 4 485 4 c 0
 411 4 309 -3 154 -3 c 1
 183 146 l 1
 269 150 319 151 376 151 c 2
 451 151 l 1
 646 1151 l 1
 580 1150 487 1150 380 1144 c 1
 404 1298 l 1
EndSplineSet
Validated: 1
EndChar

StartChar: J
Encoding: 74 74 51
Width: 1060
VWidth: 0
Flags: W
HStem: -8 150<324.484 567.528> 1145 157<451.969 827>
VStem: 111 165<190.346 423.836>
LayerCount: 2
Fore
SplineSet
412 -8 m 0
 189 -8 111 136 111 305 c 0
 111 344 115 385 123 426 c 1
 283 425 l 1
 278 395 276 366 276 338 c 0
 276 227 318 142 440 142 c 0
 626 142 696 327 761 659 c 0
 779 754 812 1007 827 1144 c 1
 778 1144 633 1145 596 1145 c 5
 534 1144 492 1136 450 1127 c 5
 424 1280 l 5
 455 1287 505 1299 624 1302 c 5
 769 1302 854 1302 1010 1302 c 1
 992 1145 l 1
 973 967 940 765 916 642 c 0
 847 288 742 -8 412 -8 c 0
EndSplineSet
Validated: 1
EndChar

StartChar: zero
Encoding: 48 48 52
Width: 1060
VWidth: 0
Flags: W
HStem: -16 153<416.993 637.782> 1155 153<600.635 809.285>
VStem: 206 162<455 688.563>
LayerCount: 2
Fore
SplineSet
368 455 m 1
 854 953 l 1
 842 1053 826 1155 716 1155 c 0
 517 1155 425 811 384 598 c 0
 374 548 369 479 368 455 c 1
865 818 m 1
 376 317 l 1
 384 222 409 137 520 137 c 0
 727 137 801 460 844 679 c 0
 854 728 861 777 865 818 c 1
744 1308 m 0
 958 1308 1024 1134 1024 927 c 0
 1024 840 1012 748 995 660 c 0
 936 358 808 -16 490 -16 c 0
 275 -16 206 153 206 361 c 0
 206 443 216 530 233 616 c 0
 292 920 441 1308 744 1308 c 0
EndSplineSet
Validated: 1
EndChar

StartChar: period
Encoding: 46 46 53
Width: 1060
VWidth: 26
Flags: W
HStem: 0 269<449 648>
VStem: 397 303
LayerCount: 2
Fore
SplineSet
449 269 m 1
 700 269 l 1
 648 0 l 1
 397 0 l 1
 449 269 l 1
EndSplineSet
Validated: 1
EndChar

StartChar: comma
Encoding: 44 44 54
Width: 1060
VWidth: 26
Flags: W
HStem: -393 667
VStem: 298 408
LayerCount: 2
Fore
SplineSet
454 274 m 1
 706 274 l 1
 661 11 l 1
 661 8 l 2
 623 -189 514 -317 332 -393 c 1
 298 -254 l 1
 400 -203 463 -133 490 5 c 1
 402 5 l 1
 454 274 l 1
EndSplineSet
Validated: 1
EndChar

StartChar: ae
Encoding: 230 230 65
Width: 1060
VWidth: 6
Flags: W
HStem: -8 152<269.367 430.276 704.321 887.113> 543 144<368.093 505.485> 873 147<854.134 1027.28> 891 145<338.429 570.341>
VStem: 108 152<147.529 404.387> 1038 146<654.073 862.406>
LayerCount: 2
Fore
SplineSet
194 912 m 1xdc
 312 1004 417 1036 499 1036 c 0xdc
 592 1036 657 995 684 952 c 0
 695 935 707 904 716 868 c 1
 793 964 888 1020 979 1020 c 0xec
 1159 1020 1184 886 1184 776 c 0
 1184 664 1115 571 1051 504 c 0
 961 411 816 356 672 345 c 1
 672 342 672 338 672 334 c 0
 672 262 692 145 770 145 c 0
 858 145 899 196 948 250 c 1
 1050 141 l 1
 1000 96 906 -8 736 -8 c 0
 639 -8 587 41 561 120 c 1
 513 54 446 -8 290 -8 c 0
 184 -8 108 71 108 241 c 0
 108 434 240 687 472 687 c 0
 523 687 577 634 581 618 c 1
 596 662 603 703 603 738 c 0
 603 832 553 891 473 891 c 0
 419 891 350 864 274 802 c 1
 194 912 l 1xdc
260 244 m 0
 260 171 292 144 319 144 c 0
 491 144 524 379 539 430 c 1
 530 464 488 543 452 543 c 0
 348 543 260 344 260 244 c 0
688 496 m 1
 803 504 888 542 955 610 c 0
 999 655 1038 706 1038 774 c 0
 1038 814 1030 873 950 873 c 0xec
 868 873 737 747 688 496 c 1
EndSplineSet
Validated: 1
EndChar

StartChar: exclam
Encoding: 33 33 68
Width: 1060
VWidth: 0
Flags: W
HStem: 0 270<440 638>
VStem: 388 492
LayerCount: 2
Fore
SplineSet
880 1376 m 1
 687 463 l 1
 521 461 l 1
 682 1376 l 1
 880 1376 l 1
440 270 m 1
 690 270 l 1
 638 0 l 1
 388 0 l 1
 440 270 l 1
EndSplineSet
Validated: 1
EndChar

StartChar: quotesingle
Encoding: 39 39 70
Width: 1060
VWidth: -25
Flags: W
HStem: 828 621
VStem: 517 566
LayerCount: 2
Fore
SplineSet
841 1449 m 5
 1083 1368 l 5
 990 1081 771 910 624 828 c 5
 517 992 l 5
 594 1035 774 1230 841 1449 c 5
EndSplineSet
Validated: 1
EndChar

StartChar: Aring
Encoding: 197 197 76
Width: 1060
VWidth: -8
Flags: W
HStem: 0 21G<42 204 850 1014> 332 160<340.81 718> 1516 124<434.557 595.087>
VStem: 42 162<0 176.344> 300 129<1384.93 1505.63> 601 132<1385.17 1506.04> 850 164<0 189.172>
LayerCount: 2
Fore
SplineSet
718 495 m 1
 524 1082 l 1
 338 475 l 1
 398 488 454 488 537 492 c 1
 718 495 l 1
429 1447 m 0
 429 1412 465 1375 516 1375 c 0
 567 1375 601 1412 601 1447 c 0
 601 1482 568 1516 516 1516 c 0
 464 1516 429 1482 429 1447 c 0
300 1445 m 0
 300 1556 402 1640 517 1640 c 0
 632 1640 733 1556 733 1445 c 0
 733 1368 684 1303 615 1271 c 1
 983 172 l 1
 994 135 1012 54 1014 0 c 1
 850 0 l 1
 850 23 838 95 830 122 c 2
 760 332 l 1
 619 329 398 327 287 300 c 1
 228 121 l 2
 218 92 204 28 204 0 c 1
 42 0 l 1
 43 28 61 116 74 159 c 6
 424 1269 l 5
 352 1300 300 1366 300 1445 c 0
EndSplineSet
Validated: 1
EndChar

StartChar: ccedilla
Encoding: 231 231 81
Width: 1060
VWidth: 12
Flags: W
HStem: -407 125<311.312 527.869> -7 157<549.653 773.022> 865 153<512.259 859.084>
VStem: 152 165<226.52 621.773> 535 138<-270.877 -173.195>
LayerCount: 2
Fore
SplineSet
332 527 m 0
 322 474 317 428 317 389 c 0
 317 155 482 150 576 150 c 2
 589 150 l 2
 745 150 833 215 902 302 c 1
 1010 211 l 1
 969 169 842 -7 563 -7 c 0
 562 -7 560 -7 559 -7 c 1
 554 -28 547 -66 546 -68 c 1
 627 -72 673 -117 673 -194 c 0
 673 -208 671 -223 668 -239 c 0
 648 -340 535 -407 451 -407 c 0
 385 -407 318 -382 269 -346 c 1
 328 -240 l 1
 358 -258 393 -282 444 -282 c 0
 480 -282 525 -262 535 -224 c 1
 535 -222 l 2
 535 -220 536 -217 536 -215 c 0
 536 -189 504 -168 460 -168 c 0
 412 -168 409 -175 379 -185 c 1
 415 3 l 1
 415 3 336 9 255 73 c 0
 177 134 152 230 152 342 c 0
 152 398 160 460 173 527 c 0
 244 894 447 1018 762 1018 c 0
 857 1018 926 994 977 948 c 0
 1029 901 1048 841 1060 789 c 1
 895 729 l 1
 892 770 881 865 721 865 c 0
 500 865 378 766 332 527 c 0
EndSplineSet
Validated: 1
EndChar

StartChar: AE
Encoding: 198 198 82
Width: 1060
VWidth: 0
Flags: W
HStem: -5 155<619.295 941> 27 123<623.281 941> 491 140<330.475 429> 681 152<574 861> 1168 155<534 959>
LayerCount: 2
Fore
SplineSet
979 27 m 1x78
 934 11 896 -5 821 -5 c 2
 479 -5 l 1
 479 120 l 1
 469 241 451 364 440 488 c 1
 418 490 399 491 381 491 c 0
 354 491 330 488 299 481 c 1
 152 -16 l 1
 22 36 l 1
 151 462 239 891 334 1320 c 1
 417 1320 l 1
 488 1323 591 1323 699 1323 c 2
 959 1323 l 1
 959 1170 l 1
 942 1170 l 2
 859 1170 840 1168 717 1168 c 2
 534 1168 l 1
 534 1123 l 2
 534 1102 551 907 559 828 c 1
 610 829 670 833 755 833 c 2
 861 833 l 1
 861 681 l 1
 755 681 l 2
 673 681 619 677 574 676 c 1
 576 667 576 657 576 648 c 1
 602 430 617 228 622 150 c 1
 941 150 l 1xb8
 979 27 l 1x78
429 631 m 1
 429 645 l 1
 418 762 406 887 398 997 c 1
 329 625 l 1
 361 628 359 629 412 631 c 1
 429 631 l 1
EndSplineSet
Validated: 1
EndChar

StartChar: Ccedilla
Encoding: 199 199 83
Width: 1060
VWidth: 6
Flags: W
HStem: -373 125<435.445 640.66> -134 288<481.294 620.523> 1175 157<413.559 693.076>
VStem: 56 159<361.611 926.983> 480 145<-40.4613 6.91635> 644 136<-241.217 -142.936>
LayerCount: 2
Fore
SplineSet
569 1175 m 0
 454 1175 365 1109 317 1041 c 1
 272 975 215 856 215 638 c 0
 215 471 246 322 344 229 c 0
 406 170 454 154 536 154 c 2
 550 154 l 1
 697 159 783 235 834 349 c 1
 973 271 l 1
 906 127 789 18 625 -0 c 1
 625 -34 l 1
 722 -39 780 -101 780 -205 c 0
 780 -306 680 -373 596 -373 c 0
 530 -373 458 -348 402 -312 c 1
 440 -206 l 1
 473 -224 513 -248 564 -248 c 0
 600 -248 641 -228 644 -190 c 1
 644 -188 l 2
 644 -159 606 -134 558 -134 c 0
 510 -134 508 -141 480 -151 c 1
 480 -100 480 -48 480 3 c 1
 393 15 304 47 235 116 c 1
 115 241 56 408 56 636 c 0
 56 895 137 1054 189 1132 c 0
 261 1240 397 1332 572 1332 c 0
 712 1332 840 1247 928 1085 c 1
 792 1002 l 1
 731 1124 655 1175 569 1175 c 0
EndSplineSet
Validated: 1
EndChar

StartChar: quotedbl
Encoding: 34 34 92
Width: 1060
VWidth: -25
Flags: W
HStem: 802 662
VStem: 530 211<1208.74 1452> 964 211<1206.74 1450>
LayerCount: 2
Fore
SplineSet
519 1352 m 0
 526 1387 528 1419 530 1452 c 1
 741 1464 l 1
 739 1423 736 1388 728 1345 c 0
 676 1077 612 934 499 802 c 1
 363 890 l 1
 415 953 478 1141 519 1352 c 0
952 1350 m 0
 959 1385 962 1417 964 1450 c 1
 1175 1462 l 1
 1173 1421 1170 1386 1162 1343 c 0
 1110 1075 1046 932 933 800 c 1
 797 888 l 1
 849 951 911 1139 952 1350 c 0
EndSplineSet
Validated: 1
EndChar

StartChar: numbersign
Encoding: 35 35 93
Width: 1060
VWidth: 6
Flags: W
HStem: -19 21G<169 342.464 505 685.5> 385 158<154.417 281 496 625 828 975> 795 160<241.791 409 621 754 956 1060>
VStem: 560 162<1157.32 1331>
LayerCount: 2
Fore
SplineSet
572 795 m 1
 550 715 521 623 496 541 c 1
 537 543 569 543 603 543 c 2
 677 543 l 1
 704 627 730 720 754 798 c 1
 683 798 640 796 572 795 c 1
337 -19 m 1
 169 -18 l 1
 198 95 230 208 281 375 c 1
 228 374 183 365 153 356 c 1
 132 503 l 1
 192 523 265 529 332 534 c 1
 364 614 385 711 409 790 c 1
 395 790 l 1
 329 786 278 781 240 768 c 1
 216 915 l 1
 286 940 377 944 462 949 c 1
 520 1133 525 1191 560 1331 c 1
 589 1331 634 1332 672 1332 c 0
 691 1332 708 1332 722 1331 c 1
 691 1210 664 1099 621 955 c 1
 803 955 l 1
 854 1118 881 1207 923 1326 c 1
 1085 1324 l 1
 1036 1203 1006 1114 956 956 c 1
 1091 956 l 1
 1060 795 l 1
 1032 796 999 799 907 799 c 1
 884 720 855 629 828 544 c 1
 1007 544 l 1
 975 383 l 1
 948 384 899 386 785 386 c 1
 725 189 702 99 669 -22 c 1
 505 -21 l 1
 538 91 571 209 625 385 c 1
 601 385 l 2
 547 385 497 383 446 380 c 1
 402 230 337 -19 337 -19 c 1
EndSplineSet
Validated: 1
EndChar

StartChar: dollar
Encoding: 36 36 94
Width: 1060
VWidth: 0
Flags: W
HStem: 65 152<346.375 401 601 782.151> 1121 154<483.356 686 887 927.66>
VStem: 136 161<266.746 439> 257 163<870.66 1058.42> 870 165<307.048 549.74>
LayerCount: 2
Fore
SplineSet
385 709 m 1xe8
 315 745 257 815 257 923 c 0xd8
 257 943 260 966 264 989 c 0
 303 1188 507 1275 718 1275 c 0
 721 1275 724 1275 727 1275 c 1
 782 1510 l 1
 954 1496 l 1
 887 1264 l 1
 1012 1244 1130 1163 1161 1046 c 1
 1007 969 l 1
 992 1057 914 1093 844 1108 c 1
 755 775 l 1
 799 765 842 752 881 732 c 1
 964 688 1035 611 1035 483 c 0
 1035 459 1032 433 1027 406 c 0
 977 148 762 61 560 54 c 1
 504 -176 l 1
 328 -162 l 1
 401 65 l 1
 225 100 136 194 136 347 c 0
 136 376 139 406 145 439 c 1
 303 439 l 1
 299 417 297 398 297 380 c 0
 297 285 353 239 442 217 c 1
 559 651 l 1
 500 666 439 682 385 709 c 1xe8
686 1121 m 1
 555 1120 443 1090 424 994 c 0
 422 981 420 970 420 959 c 0
 420 900 455 869 498 847 c 0
 529 831 564 819 601 810 c 1
 686 1121 l 1
601 207 m 1
 746 216 840 269 865 398 c 0
 868 415 870 431 870 445 c 0
 870 521 826 560 765 589 c 0
 748 597 730 604 711 611 c 1
 601 207 l 1
EndSplineSet
Validated: 1
EndChar

StartChar: oe
Encoding: 339 339 95
Width: 1060
VWidth: 6
Flags: W
HStem: 0 154<276.656 439.8 643.395 835.131> 486 156<711 943.677> 863 154<415.908 573.925 763.294 919.515>
VStem: 95 157<182.145 574.478> 944 155<639.029 842.818>
LayerCount: 2
Fore
SplineSet
1006 187 m 1
 1006 187 911 0 708 0 c 0
 616 0 547 40 505 95 c 1
 475 63 410 0 336 0 c 0
 280 0 212 5 149 91 c 0
 107 148 95 224 95 294 c 0
 95 360 106 421 113 459 c 0
 122 505 138 585 158 635 c 1
 203 758 316 1017 525 1017 c 0
 604 1017 637 990 671 954 c 0
 680 945 686 937 690 931 c 1
 720 968 774 1018 889 1018 c 0
 1044 1018 1099 885 1099 720 c 0
 1099 672 1094 621 1086 570 c 1
 1069 486 l 1
 1001 486 l 1
 900 483 763 478 680 474 c 1
 628 215 l 1
 659 176 703 154 742 154 c 0
 817 154 858 221 881 256 c 1
 1006 187 l 1
715 652 m 2
 711 631 l 1
 800 636 863 635 940 642 c 1
 943 663 944 685 944 706 c 0
 944 788 921 862 859 862 c 0
 819 862 777 851 755 805 c 1
 737 770 726 709 715 652 c 2
360 154 m 0
 412 154 478 227 489 286 c 2
 582 754 l 2
 583 758 584 765 584 773 c 0
 584 806 571 863 496 863 c 0
 402 863 312 687 268 474 c 0
 267 468 266 462 265 456 c 0
 258 422 252 376 252 330 c 0
 252 281 259 231 278 191 c 0
 291 164 327 154 360 154 c 0
EndSplineSet
Validated: 1
EndChar

StartChar: bracketleft
Encoding: 91 91 96
Width: 1060
VWidth: 66
Flags: W
HStem: -259 162<492 837.081> 1316 154<768 1132>
LayerCount: 2
Fore
SplineSet
1132 1483 m 1
 1134 1329 l 1
 1031 1320 936 1320 768 1316 c 1
 492 -101 l 1
 589 -98 694 -97 713 -97 c 2
 726 -97 l 2
 789 -97 854 -103 867 -106 c 1
 836 -268 l 1
 812 -265 773 -259 702 -259 c 0
 643 -259 396 -264 303 -264 c 1
 338 -86 355 -3 390 177 c 0
 407 267 430 388 464 567 c 0
 498 742 531 918 556 1049 c 2
 638 1470 l 1
 731 1470 976 1477 1027 1477 c 1
 1100 1480 1109 1481 1132 1483 c 1
EndSplineSet
Validated: 1
EndChar

StartChar: bracketright
Encoding: 93 93 97
Width: 1060
VWidth: 66
Flags: W
HStem: -259 162<134 511> 1329 154<481.228 787>
LayerCount: 2
Fore
SplineSet
487 1483 m 1
 510 1481 519 1480 590 1477 c 1
 641 1477 884 1470 977 1470 c 1
 895 1049 l 2
 870 918 833 742 799 567 c 0
 763 388 738 267 721 177 c 0
 686 -3 673 -86 638 -264 c 1
 545 -264 300 -259 241 -259 c 0
 170 -259 129 -265 103 -268 c 1
 134 -106 l 1
 149 -103 216 -97 279 -97 c 2
 292 -97 l 2
 311 -97 416 -98 511 -101 c 1
 787 1316 l 1
 621 1320 524 1320 425 1329 c 1
 487 1483 l 1
EndSplineSet
Validated: 1
EndChar

StartChar: parenleft
Encoding: 40 40 98
Width: 1060
VWidth: 66
Flags: W
HStem: -262 166<709.016 841> 1326 158<953.546 1151>
VStem: 340 166<143.811 684.045>
LayerCount: 2
Fore
SplineSet
1151 1326 m 1
 1148 1326 1145 1326 1142 1326 c 0
 803 1326 601 992 527 612 c 0
 513 540 506 470 506 404 c 0
 506 120 633 -95 873 -96 c 1
 841 -262 l 1
 544 -260 340 -43 340 347 c 0
 340 428 348 516 367 612 c 0
 470 1144 747 1471 1181 1484 c 1
 1151 1326 l 1
EndSplineSet
Validated: 1
EndChar

StartChar: parenright
Encoding: 41 41 99
Width: 1060
VWidth: 66
Flags: W
HStem: -262 166<128 312.152> 1326 158<434 594.718>
VStem: 776 165<559.718 1118.43>
LayerCount: 2
Fore
SplineSet
404 1326 m 1
 434 1484 l 1
 776 1474 941 1263 941 907 c 0
 941 818 931 719 910 612 c 0
 802 55 457 -259 96 -262 c 1
 128 -96 l 1
 424 -95 676 232 750 612 c 0
 767 700 776 786 776 865 c 0
 776 1129 674 1326 413 1326 c 0
 410 1326 407 1326 404 1326 c 1
EndSplineSet
Validated: 1
EndChar

StartChar: hyphen
Encoding: 45 45 100
Width: 1060
VWidth: 6
Flags: W
HStem: 448 152<217 1026>
LayerCount: 2
Fore
SplineSet
217 591 m 5
 354 598 511 600 613 600 c 4
 654 600 693 600 732 600 c 4
 814 600 930 599 1037 598 c 5
 1055 598 l 5
 1026 445 l 5
 1008 445 l 5
 874 448 706 448 581 448 c 4
 514 448 347 446 193 438 c 5
 209 522 l 5
 217 591 l 5
EndSplineSet
Validated: 1
EndChar

StartChar: plus
Encoding: 43 43 101
Width: 1060
VWidth: 6
Flags: W
HStem: 0 21G<436 600.857> 443 155<175 522 713 1056>
LayerCount: 2
Fore
SplineSet
175 589 m 1
 234 600 303 601 396 601 c 0
 442 601 495 601 556 601 c 1
 630 985 l 1
 784 984 l 1
 708 593 l 1
 713 600 l 1
 840 598 942 598 1005 598 c 0
 1032 598 1059 598 1086 598 c 1
 1056 443 l 1
 1041 443 l 2
 1035 443 892 443 683 446 c 1
 597 0 l 1
 436 2 l 1
 522 445 l 1
 323 445 215 444 145 434 c 1
 175 589 l 1
EndSplineSet
Validated: 1
EndChar

StartChar: less
Encoding: 60 60 102
Width: 1060
VWidth: 4
Flags: W
LayerCount: 2
Fore
SplineSet
882 87 m 1
 769 -30 l 1
 752 6 716 42 675 80 c 1
 595 159 242 435 219 453 c 1
 242 573 l 1
 424 702 768 945 916 1023 c 0
 949 1040 973 1054 1010 1065 c 1
 1070 923 l 1
 892 838 599 628 416 505 c 1
 539 404 816 219 882 87 c 1
EndSplineSet
Validated: 1
EndChar

StartChar: greater
Encoding: 62 62 103
Width: 1060
VWidth: 6
Flags: W
HStem: 1042 20G<343.128 412>
LayerCount: 2
Fore
SplineSet
896 577 m 1
 886 453 l 1
 777 384 287 22 96 -43 c 1
 30 83 l 1
 223 177 536 399 699 512 c 1
 590 602 386 788 293 894 c 0
 271 919 253 938 240 968 c 1
 371 1062 l 1
 453 936 822 644 896 577 c 1
EndSplineSet
Validated: 1
EndChar

StartChar: slash
Encoding: 47 47 104
Width: 1060
VWidth: 60
Flags: W
LayerCount: 2
Fore
SplineSet
81 -57 m 5
 90 -44 129 13 155 55 c 5
 295 280 852 1175 1016 1461 c 5
 1155 1380 l 1
 949 1028 396 141 221 -141 c 1
 81 -57 l 5
EndSplineSet
Validated: 1
EndChar

StartChar: one
Encoding: 49 49 105
Width: 1060
VWidth: 0
Flags: W
HStem: -9 21G<528 695.895> 1282 20G<742.5 945>
VStem: 289 656
LayerCount: 2
Fore
SplineSet
749 1302 m 1
 945 1290 l 1
 692 -9 l 1
 528 -9 l 1
 733 1055 l 1
 648 970 501 871 361 781 c 1
 289 932 l 1
 629 1112 736 1288 749 1302 c 1
EndSplineSet
Validated: 1
EndChar

StartChar: two
Encoding: 50 50 106
Width: 1060
VWidth: 0
Flags: W
HStem: 2 153<325 880> 1150 156<574.043 845.041>
VStem: 311 157<853.713 873.063 874.938 1036.69> 888 166<841.19 1107.61>
LayerCount: 2
Fore
SplineSet
468 857 m 1
 311 821 l 1
 309 835 308 854 308 874 c 0
 308 894 310 915 312 933 c 0
 314 942 314 950 316 958 c 0
 359 1180 549 1306 747 1306 c 0
 947 1306 1054 1224 1054 1045 c 0
 1054 1010 1049 971 1041 928 c 0
 1016 801 916 688 819 603 c 1
 717 518 582 432 461 332 c 0
 376 262 334 191 325 155 c 1
 911 157 l 1
 880 2 l 1
 121 2 l 1
 127 32 132 64 138 97 c 0
 143 123 150 150 160 178 c 0
 197 275 259 360 387 461 c 0
 512 559 624 625 717 701 c 1
 808 774 870 865 882 926 c 0
 886 947 888 968 888 988 c 0
 888 1078 843 1150 725 1150 c 0
 595 1150 498 1080 467 920 c 0
 463 899 466 868 468 857 c 1
EndSplineSet
Validated: 1
EndChar

StartChar: three
Encoding: 51 51 107
Width: 1060
VWidth: 0
Flags: W
HStem: -22 155<351.536 661.139> 666 158<500 697.431> 1150 153<548.574 818.242>
VStem: 135 162<184.615 335> 801 164<275.442 575.29> 845 163<928.605 1118.94>
LayerCount: 2
Fore
SplineSet
143 335 m 1xf8
 301 336 l 1
 298 321 297 308 297 294 c 0
 297 200 363 133 492 133 c 0
 650 133 764 226 793 374 c 0
 798 402 801 426 801 450 c 0xf8
 801 521 775 575 710 615 c 0
 629 666 549 666 469 666 c 1
 500 824 l 1
 516 824 l 2
 554 824 604 826 681 850 c 1
 771 880 823 927 843 1028 c 0
 844 1035 845 1041 845 1047 c 0
 845 1113 773 1150 681 1150 c 0
 554 1150 475 1046 450 1010 c 1
 324 1089 l 1
 332 1104 457 1303 700 1303 c 2
 711 1303 l 2
 871 1303 1008 1240 1008 1089 c 0xf4
 1008 1072 1006 1053 1002 1033 c 0
 977 905 905 798 806 757 c 1
 919 697 965 604 965 487 c 0
 965 452 961 415 953 376 c 0
 936 291 886 180 804 101 c 0
 723 24 621 -22 462 -22 c 0
 252 -22 135 94 135 259 c 0
 135 283 138 309 143 335 c 1xf8
EndSplineSet
Validated: 1
EndChar

StartChar: four
Encoding: 52 52 108
Width: 1060
VWidth: 0
Flags: W
HStem: -2 21G<605 764.876> 413 157<398 685 872 970> 1286 20G<825 1015>
LayerCount: 2
Fore
SplineSet
716 570 m 1
 797 990 l 1
 699 861 509 667 398 570 c 1
 716 570 l 1
184 543 m 1
 227 589 798 1143 852 1306 c 1
 1015 1306 l 1
 872 570 l 1
 1000 570 l 1
 970 416 l 1
 842 416 l 1
 761 -2 l 1
 605 -2 l 1
 685 413 l 1
 218 413 l 1
 184 543 l 1
EndSplineSet
Validated: 1
EndChar

StartChar: five
Encoding: 53 53 109
Width: 1060
VWidth: 0
Flags: W
HStem: -2 156<379.604 664.474> 731 158<475.518 769.415> 1132 156<537 995>
VStem: 831 158<344.527 668.924>
LayerCount: 2
Fore
SplineSet
627 731 m 0
 496 731 397 640 377 623 c 1
 262 677 l 1
 426 1288 l 1
 1025 1286 l 1
 995 1132 l 1
 537 1132 l 1
 456 835 l 1
 508 863 577 889 655 889 c 0
 712 889 777 879 839 846 c 1
 921 798 989 697 989 551 c 0
 989 519 986 486 979 450 c 0
 921 150 712 0 472 -2 c 1
 470 -2 l 2
 295 -2 198 114 151 231 c 1
 301 319 l 1
 336 233 391 154 503 154 c 0
 670 154 784 259 821 448 c 0
 828 482 831 513 831 540 c 0
 831 628 796 677 742 705 c 0
 704 725 663 731 627 731 c 0
EndSplineSet
Validated: 1
EndChar

StartChar: six
Encoding: 54 54 110
Width: 1060
VWidth: 0
Flags: W
HStem: -3 153<391.296 685.11> 591 155<473.832 761.918> 1154 147<826.408 1034.98>
VStem: 173 160<207.797 468.785> 815 163<279.42 536.297>
LayerCount: 2
Fore
SplineSet
1044 1154 m 1
 743 1133 577 995 480 838 c 0
 443 776 420 714 399 654 c 1
 462 700 518 746 668 746 c 0
 860 746 978 636 978 458 c 0
 978 430 975 400 969 368 c 0
 920 115 722 -3 486 -3 c 0
 272 -3 173 138 173 339 c 0
 173 384 177 431 187 481 c 0
 210 600 259 752 346 900 c 0
 459 1092 659 1268 1034 1301 c 1
 1044 1154 l 1
335 403 m 1
 334 388 333 374 333 360 c 0
 333 223 396 150 516 150 c 0
 660 150 784 232 810 368 c 0
 814 387 815 405 815 422 c 0
 815 526 748 591 629 591 c 0
 496 591 368 488 335 403 c 1
EndSplineSet
Validated: 1
EndChar

StartChar: seven
Encoding: 55 55 111
Width: 1060
VWidth: 0
Flags: W
HStem: 0 21G<313 522> 1023 21G<364.672 415.5> 1131 155<437.031 1007>
VStem: 313 165<0 160.057>
LayerCount: 2
Fore
SplineSet
402 1292 m 1
 486 1292 593 1286 670 1286 c 0
 821 1286 1019 1286 1162 1286 c 2
 1203 1286 l 1
 1233 1204 l 1
 840 667 566 454 478 0 c 1
 313 0 l 1
 392 407 653 714 1007 1133 c 1
 955 1131 880 1131 809 1131 c 0
 762 1131 716 1131 680 1131 c 0
 617 1131 531 1136 469 1139 c 1
 443 1102 426 1066 405 1023 c 1
 282 1084 l 1
 312 1143 361 1217 402 1292 c 1
EndSplineSet
Validated: 1
EndChar

StartChar: eight
Encoding: 56 56 112
Width: 1060
VWidth: 0
Flags: W
HStem: -9 156<368.85 713.037> 1136 157<579.132 852.896>
VStem: 147 161<207.269 461.14> 349 160<880.397 1070.29> 844 161<278.524 533.258> 884 160<917.417 1103.11>
LayerCount: 2
Fore
SplineSet
533 147 m 0xf8
 699 147 813 234 839 368 c 0
 842 384 844 400 844 415 c 0
 844 537 739 603 632 657 c 1
 488 597 343 520 313 368 c 0
 310 351 308 335 308 320 c 0
 308 213 388 147 533 147 c 0xf8
664 821 m 1
 777 848 868 923 881 989 c 0
 883 998 884 1006 884 1015 c 0xf4
 884 1082 831 1136 725 1136 c 0
 605 1136 526 1068 511 989 c 0
 510 983 509 978 509 972 c 0
 509 911 570 846 664 821 c 1
755 1293 m 0
 945 1293 1044 1191 1044 1051 c 0xf4
 1044 1030 1041 1008 1037 985 c 0
 1017 882 913 777 817 738 c 1
 906 691 1005 590 1005 444 c 0xf8
 1005 423 1003 401 999 378 c 0
 956 156 761 -9 502 -9 c 0
 276 -9 147 117 147 297 c 0
 147 323 150 350 155 378 c 0
 190 560 355 684 477 738 c 1
 407 772 349 856 349 946 c 0
 349 959 350 972 353 985 c 0
 387 1158 536 1293 755 1293 c 0
EndSplineSet
Validated: 1
EndChar

StartChar: nine
Encoding: 57 57 113
Width: 1060
VWidth: 0
Flags: W
HStem: -2 156<322.508 663.381> 616 152<488.426 796.149> 1152 150<553.159 841.206>
VStem: 274 162<818.324 1041.9> 910 156<867.074 1080.48>
LayerCount: 2
Fore
SplineSet
728 1152 m 0
 598 1152 468 1094 440 952 c 0
 438 939 436 928 436 917 c 0
 436 813 538 768 646 768 c 0
 774 768 876 859 909 928 c 1
 909 934 910 939 910 945 c 0
 910 1050 839 1152 728 1152 c 0
282 955 m 0
 324 1170 510 1302 732 1302 c 0
 993 1302 1066 1143 1066 940 c 0
 1066 847 1051 744 1031 644 c 0
 968 320 834 -2 487 -2 c 0
 242 -2 169 100 73 229 c 1
 195 328 l 1
 305 196 334 154 517 154 c 0
 738 154 823 375 867 603 c 0
 874 639 879 675 885 710 c 1
 810 646 732 616 603 616 c 0
 414 616 274 704 274 880 c 0
 274 903 277 929 282 955 c 0
EndSplineSet
Validated: 1
EndChar

StartChar: equal
Encoding: 61 61 114
Width: 1060
VWidth: 6
Flags: W
HStem: 189 160<118 932> 652 162<201.397 1015.01> 667 158<205.007 516.492 530.173 1024>
LayerCount: 2
Fore
SplineSet
118 349 m 1x80
 260 357 371 357 485 357 c 0
 664 357 797 349 965 349 c 1
 932 188 l 1
 758 188 615 193 432 193 c 0
 382 193 332 194 280 194 c 0
 220 194 157 193 87 189 c 1
 118 349 l 1x80
208 825 m 1xa0
 349 816 460 814 554 814 c 0
 746 814 857 823 1055 823 c 1
 1024 664 l 1
 831 664 718 652 521 652 c 0xc0
 425 652 318 658 175 667 c 1
 185 720 195 774 208 825 c 1xa0
EndSplineSet
Validated: 1
EndChar

StartChar: backslash
Encoding: 92 92 115
Width: 1060
VWidth: 60
Flags: W
VStem: 373 517
LayerCount: 2
Fore
SplineSet
890 -106 m 1
 716 -147 l 1
 651 135 443 1054 373 1406 c 1
 548 1444 l 1
 600 1158 808 231 862 6 c 1
 870 -36 887 -93 890 -106 c 1
EndSplineSet
Validated: 1
EndChar

StartChar: asciicircum
Encoding: 94 94 116
Width: 1060
VWidth: -10
Flags: W
HStem: 474 627
LayerCount: 2
Fore
SplineSet
734 1101 m 1
 1093 590 l 1
 960 474 l 1
 700 832 l 1
 276 470 l 1
 164 576 l 1
 734 1101 l 1
EndSplineSet
Validated: 1
EndChar

StartChar: underscore
Encoding: 95 95 117
Width: 1060
VWidth: 41
Flags: W
HStem: -236 152<30 946>
LayerCount: 2
Fore
SplineSet
30 -84 m 1
 976 -84 l 1
 946 -236 l 1
 -4 -236 l 1
 30 -84 l 1
EndSplineSet
Validated: 1
EndChar

StartChar: grave
Encoding: 96 96 118
Width: 1060
VWidth: -25
Flags: W
HStem: 868 654
VStem: 518 253<1314.25 1500.3>
LayerCount: 2
Fore
SplineSet
771 1522 m 5
 786 1293 916 1062 981 1003 c 5
 840 868 l 5
 715 982 542 1199 518 1499 c 5
 771 1522 l 5
EndSplineSet
Validated: 1
EndChar

StartChar: question
Encoding: 63 63 119
Width: 1060
VWidth: 0
Flags: W
HStem: 0 270<385 583> 1020 21G<289.302 380> 1181 155<454.957 822.159>
VStem: 451 175<431 557.719> 885 166<912.709 1122.18>
LayerCount: 2
Fore
SplineSet
222 1146 m 1
 356 1307 554 1336 698 1336 c 0
 892 1336 1051 1231 1051 1088 c 0
 1051 858 894 752 781 670 c 0
 720 626 651 559 635 477 c 2
 626 431 l 1
 451 431 l 1
 459 475 l 2
 482 595 550 673 648 747 c 0
 778 846 885 909 885 1043 c 0
 885 1127 770 1181 660 1181 c 0
 568 1181 458 1181 302 1020 c 1
 222 1146 l 1
385 270 m 1
 635 270 l 1
 583 0 l 1
 333 0 l 1
 385 270 l 1
EndSplineSet
Validated: 1
EndChar

StartChar: asciitilde
Encoding: 126 126 120
Width: 1060
VWidth: -12
Flags: W
HStem: 422 153<728.214 912.079> 596 154<343.553 542.522>
LayerCount: 2
Fore
SplineSet
481 750 m 0
 637 750 730 575 820 575 c 0
 907 575 967 683 994 748 c 1
 1126 687 l 1
 1086 599 989 422 786 422 c 0
 620 422 553 596 441 596 c 0
 385 596 313 538 248 451 c 1
 136 542 l 1
 232 677 325 750 481 750 c 0
EndSplineSet
Validated: 1
EndChar

StartChar: Oslash
Encoding: 216 216 127
Width: 1060
VWidth: 0
Flags: W
HStem: -13 153<409.476 659.667> 1173 153<585.265 829.695>
VStem: 118 162<287.023 691.372> 944 158<555.722 1001.34>
LayerCount: 2
Fore
SplineSet
81 -57 m 1
 90 -44 129 13 155 55 c 0
 166 72 180 94 195 119 c 1
 192 123 189 126 187 130 c 0
 141 203 118 295 118 402 c 0
 118 455 123 512 135 572 c 0
 202 917 308 1066 396 1161 c 0
 479 1251 605 1323 762 1326 c 0
 801 1326 859 1318 915 1289 c 1
 956 1358 991 1417 1016 1461 c 1
 1155 1380 l 1
 1122 1324 1081 1255 1034 1177 c 1
 1075 1111 1102 1016 1102 882 c 0
 1102 811 1095 730 1077 635 c 2
 1075 624 l 1
 1043 460 970 307 904 214 c 0
 801 70 654 -13 489 -13 c 0
 430 -13 371 -3 320 19 c 1
 280 -45 247 -100 221 -141 c 1
 81 -57 l 1
298 284 m 1
 448 526 666 880 831 1151 c 1
 804 1166 773 1173 738 1173 c 0
 670 1173 581 1145 508 1069 c 0
 422 980 345 838 294 576 c 0
 285 532 280 478 280 426 c 0
 280 374 286 324 298 284 c 1
928 1003 m 1
 763 732 562 407 408 159 c 1
 438 146 474 140 519 140 c 0
 607 140 721 207 782 290 c 1
 834 354 896 520 918 627 c 2
 922 646 l 1
 934 711 944 789 944 862 c 0
 944 912 939 961 928 1003 c 1
EndSplineSet
Validated: 1
EndChar

StartChar: multiply
Encoding: 215 215 128
Width: 1060
VWidth: 6
Flags: W
LayerCount: 2
Fore
SplineSet
493 529 m 1
 396 649 328 755 239 855 c 1
 351 971 l 1
 440 870 530 753 620 636 c 1
 831 806 999 945 1019 963 c 1
 1101 832 l 1
 1078 813 914 674 711 507 c 1
 853 316 886 261 967 161 c 1
 839 70 l 1
 779 174 717 238 586 406 c 1
 405 257 260 124 204 74 c 1
 104 180 l 1
 178 252 322 387 493 529 c 1
EndSplineSet
Validated: 1
EndChar

StartChar: oslash
Encoding: 248 248 140
Width: 1060
VWidth: 6
Flags: W
HStem: 1 155<375.305 671.059> 878 154<515.388 802.604>
VStem: 148 162<356 585.515> 862 161<426.922 667>
LayerCount: 2
Fore
SplineSet
310 356 m 1
 815 821 l 1
 785 857 738 878 671 878 c 0
 463 878 368 713 321 469 c 0
 314 432 310 397 310 366 c 0
 310 362 310 359 310 356 c 1
1011 804 m 1
 1019 769 1023 730 1023 690 c 0
 1023 641 1017 590 1008 543 c 0
 953 258 806 1 484 1 c 2
 482 1 l 1
 368 2 285 33 230 91 c 1
 119 -9 l 1
 28 95 l 1
 161 218 l 1
 152 252 148 288 148 328 c 0
 148 370 153 416 162 464 c 0
 219 756 375 1032 667 1032 c 0
 799 1032 887 1001 943 940 c 1
 1080 1067 l 1
 1179 956 l 1
 1011 804 l 1
696 215 m 1
 773 276 817 382 846 530 c 0
 847 536 849 542 850 548 c 0
 857 586 862 623 862 657 c 0
 862 660 862 664 862 667 c 1
 361 212 l 1
 395 176 446 156 514 156 c 0
 590 157 638 173 696 215 c 1
EndSplineSet
Validated: 1
EndChar

StartChar: plusminus
Encoding: 177 177 145
Width: 1060
VWidth: -6
Flags: W
HStem: 186 150<154 497.928 651 983.417> 669 150<242 554 743 1075>
LayerCount: 2
Fore
SplineSet
242 822 m 1
 413 812 483 811 584 811 c 1
 656 1172 l 1
 816 1171 l 1
 743 810 l 1
 899 813 898 819 1087 819 c 2
 1104 819 l 1
 1075 669 l 1
 1058 669 l 2
 872 669 873 663 714 658 c 1
 712 647 l 2
 691 541 668 433 651 343 c 1
 814 340 828 338 993 335 c 1
 1010 334 l 1
 981 184 l 1
 964 185 l 1
 756 188 684 192 463 192 c 0
 331 192 304 191 143 186 c 1
 125 186 l 1
 154 336 l 1
 171 336 l 1
 333 340 370 344 491 344 c 1
 509 437 531 543 552 649 c 2
 554 659 l 1
 447 659 389 662 213 672 c 1
 242 822 l 1
EndSplineSet
Validated: 1
EndChar

StartChar: divide
Encoding: 247 247 146
Width: 1060
VWidth: 6
Flags: W
HStem: -12 270<405 603> 437 157<211 972> 757 269<552 751>
LayerCount: 2
Fore
SplineSet
186 437 m 1
 211 594 l 1
 371 599 497 600 575 600 c 0
 713 600 777 597 986 594 c 1
 1003 594 l 1
 972 437 l 1
 954 437 l 1
 742 440 678 444 541 444 c 0
 465 444 339 441 186 437 c 1
405 258 m 1
 655 258 l 1
 603 -12 l 1
 353 -12 l 1
 405 258 l 1
552 1026 m 1
 803 1026 l 1
 751 757 l 1
 500 757 l 1
 552 1026 l 1
EndSplineSet
Validated: 1
EndChar

StartChar: OE
Encoding: 338 338 149
Width: 1060
VWidth: 0
Flags: W
HStem: -8 152<302.648 490.388 646 975.763> 682 153<782 1028> 1170 160<526.312 691 847 1189>
VStem: 99 146<200.432 641.79>
LayerCount: 2
Fore
SplineSet
491 146 m 1
 691 1170 l 1
 430 1170 349 951 276 578 c 0
 260 495 245 414 245 346 c 0
 245 229 289 147 446 144 c 0
 462 144 478 145 491 146 c 1
841 153 m 1
 900 155 930 163 978 179 c 1
 987 33 l 1
 875 4 778 -1 667 -1 c 0
 620 -1 570 0 515 0 c 1
 497 -7 401 -8 386 -8 c 0
 168 1 99 150 99 347 c 0
 99 425 110 510 127 597 c 0
 212 1033 368 1330 703 1330 c 0
 729 1330 756 1328 781 1323 c 1
 841 1326 904 1326 967 1326 c 0
 1052 1326 1138 1325 1220 1325 c 1
 1189 1170 l 1
 1097 1170 1040 1171 969 1171 c 0
 934 1171 894 1171 847 1170 c 1
 782 835 l 1
 1057 835 l 1
 1028 682 l 1
 753 682 l 1
 714 480 661 232 646 153 c 1
 841 153 l 1
EndSplineSet
Validated: 1
EndChar

StartChar: yen
Encoding: 165 165 150
Width: 1060
VWidth: 0
Flags: W
HStem: -6 21G<398 561.881> 374 157<181 476 669 994> 683 159<235.25 435 713.083 733.411 881 1063>
VStem: 282 154<1219.61 1289.7>
LayerCount: 2
Fore
SplineSet
476 374 m 1
 439 374 402 374 364 374 c 0
 297 374 227 373 150 369 c 1
 181 531 l 1
 198 531 l 1
 322 535 415 538 511 538 c 1
 525 613 l 1
 517 628 509 648 499 672 c 1
 422 673 327 679 213 686 c 1
 226 750 l 2
 232 782 238 813 246 844 c 1
 314 840 382 837 435 835 c 1
 372 1006 302 1214 282 1283 c 1
 436 1355 l 1
 456 1285 556 997 619 833 c 1
 693 833 l 1
 830 999 1046 1290 1094 1368 c 1
 1217 1288 l 1
 1151 1192 1050 1046 912 875 c 0
 902 863 891 851 881 839 c 1
 939 841 1001 842 1076 842 c 2
 1094 842 l 1
 1063 683 l 1
 1045 683 l 2
 926 683 840 678 744 675 c 1
 714 640 693 613 683 602 c 1
 679 580 674 559 669 537 c 1
 786 535 889 532 1011 530 c 1
 1028 530 l 1
 994 368 l 1
 976 368 l 1
 856 370 751 373 635 374 c 1
 612 264 591 163 584 128 c 2
 558 -6 l 1
 398 -6 l 1
 427 143 l 2
 437 192 456 282 476 374 c 1
EndSplineSet
Validated: 1
EndChar

StartChar: Eth
Encoding: 208 208 152
Width: 1060
VWidth: 0
Flags: W
HStem: -10 154<230 657.626> 773 148<4 76 234 600> 1176 155<234 539.421>
VStem: 76 158<147 773 921 1173.17> 810 159<312.146 850.696>
LayerCount: 2
Fore
SplineSet
76 921 m 1
 76 977 l 2
 76 1106 72 1229 63 1317 c 1
 144 1325 189 1331 288 1331 c 0
 559 1331 715 1249 838 1066 c 1
 922 939 969 761 969 580 c 0
 969 511 961 442 948 376 c 0
 900 135 739 14 559 -3 c 0
 504 -8 453 -10 398 -10 c 0
 314 -10 181 -3 67 -3 c 1
 67 31 67 30 70 128 c 1
 70 176 75 483 76 773 c 1
 4 773 l 1
 4 921 l 1
 76 921 l 1
309 1176 m 2
 279 1176 l 2
 263 1176 251 1176 234 1173 c 1
 235 1147 235 1117 235 1086 c 0
 235 1034 234 978 234 921 c 1
 356 921 478 921 600 921 c 1
 601 773 l 1
 234 773 l 1
 233 501 231 233 230 147 c 1
 318 144 363 144 423 144 c 0
 592 144 718 170 783 353 c 0
 799 399 810 489 810 544 c 0
 810 706 774 876 709 973 c 0
 620 1104 530 1176 309 1176 c 2
EndSplineSet
Validated: 1
EndChar

StartChar: currency
Encoding: 164 164 153
Width: 1060
VWidth: 6
Flags: W
HStem: 98 157<479.303 684.546>
VStem: 293 167<286.09 578.677> 795 166<401.485 706.911>
LayerCount: 2
Fore
SplineSet
788 522 m 0
 793 548 795 572 795 594 c 0
 795 681 757 737 691 743 c 1
 676 741 l 1
 569 730 502 626 470 462 c 0
 464 430 460 402 460 377 c 0
 460 296 496 255 579 255 c 0
 687 255 758 368 788 522 c 0
305 461 m 2
 306 468 l 2
 323 556 358 636 395 697 c 1
 284 849 l 1
 424 955 l 1
 516 828 l 1
 574 878 630 898 701 901 c 1
 718 901 l 2
 801 901 849 880 891 833 c 1
 1025 946 l 1
 1119 847 l 1
 953 697 l 1
 959 671 961 645 961 618 c 0
 961 586 957 554 951 520 c 1
 929 417 902 352 854 284 c 1
 969 129 l 1
 830 23 l 1
 732 159 l 1
 674 120 609 98 543 98 c 0
 459 99 411 127 371 167 c 1
 222 43 l 1
 135 142 l 1
 298 299 l 1
 294 319 293 337 293 356 c 0
 293 390 298 424 305 461 c 2
EndSplineSet
Validated: 1
EndChar

StartChar: sterling
Encoding: 163 163 154
Width: 1060
VWidth: 0
Flags: W
HStem: -13 152<177.5 341.245 618.136 873.64> 687 152<335 464 623 995> 1198 153<688.659 886.421>
VStem: 91 156<139.007 267.198> 464 158<335.676 682 839 1123.43> 881 151<147.781 229> 907 155<1118 1181.19>
LayerCount: 2
Fore
SplineSet
344 186 m 1xf8
 317 216 306 254 286 269 c 1
 275 262 256 231 250 201 c 0
 250 199 249 197 249 195 c 0
 248 187 247 179 247 173 c 0
 247 148 256 139 269 139 c 0
 291 139 324 166 344 186 c 1xf8
995 691 m 1
 919 682 837 682 739 682 c 2
 622 682 l 1
 622 589 621 495 601 385 c 0
 591 333 573 278 552 230 c 1
 634 169 681 137 770 137 c 0
 863 137 869 154 881 214 c 0
 882 219 883 224 884 229 c 1
 1040 231 l 1
 1032 190 l 1xfc
 1002 54 907 -15 766 -16 c 0
 648 -16 555 25 460 95 c 1
 399 29 306 -13 219 -13 c 0
 136 -13 91 51 91 137 c 0
 91 154 93 173 97 192 c 0
 117 293 163 370 243 412 c 0
 262 421 281 424 296 424 c 0
 299 424 302 424 305 424 c 0
 364 424 406 369 432 334 c 1
 438 354 442 375 446 397 c 0
 463 485 464 560 464 638 c 0
 464 654 464 669 464 685 c 1
 412 687 368 687 323 687 c 2
 306 687 l 1
 335 839 l 1
 464 839 l 1
 465 910 467 977 480 1043 c 0
 520 1248 652 1351 841 1351 c 0
 988 1351 1056 1245 1062 1118 c 1
 907 1075 l 1xfa
 903 1137 892 1196 811 1198 c 0
 809 1198 807 1198 805 1198 c 0
 688 1198 652 1116 639 1051 c 0
 629 997 625 900 623 834 c 1
 771 837 l 1
 790 837 810 837 828 837 c 0
 902 837 968 838 1025 844 c 1
 995 691 l 1
EndSplineSet
Validated: 1
EndChar

StartChar: cent
Encoding: 162 162 155
Width: 1060
VWidth: 6
Flags: W
HStem: -9 21G<420 583.889> 720 313<623 752.579>
VStem: 226 171<318.478 604.282>
LayerCount: 2
Fore
SplineSet
561 284 m 0
 562 284 562 284 563 284 c 0
 655 284 737 318 770 354 c 1
 784 370 l 1
 905 287 l 1
 890 271 l 1
 823 194 718 147 608 135 c 1
 580 -9 l 1
 420 -9 l 1
 449 139 l 1
 405 148 358 164 319 194 c 0
 253 245 226 308 226 390 c 0
 226 421 230 454 237 490 c 2
 239 501 l 2
 263 624 317 705 367 753 c 0
 435 817 514 851 590 865 c 1
 623 1033 l 1
 785 1033 l 1
 753 867 l 1
 867 850 921 786 936 695 c 1
 767 638 l 1
 767 661 l 1
 766 714 732 720 653 720 c 0
 592 720 525 702 479 657 c 0
 456 635 420 596 404 514 c 0
 399 490 397 467 397 445 c 0
 397 350 442 283 544 283 c 0
 550 283 555 284 561 284 c 0
EndSplineSet
Validated: 1
EndChar

StartChar: percent
Encoding: 37 37 156
Width: 1060
VWidth: 0
Flags: W
HStem: -3 135<712.647 865.304> 358 153<769.771 907.971> 730 155<385.479 532.109> 1094 153<432.547 585.959>
VStem: 240 139<892.401 1044.81> 556 151<135.124 295.38> 588 151<941.288 1090.26> 916 142<184.514 350.746>
LayerCount: 2
Fore
SplineSet
711 225 m 2xfd
 709 215 l 1
 708 206 707 198 707 191 c 0
 707 150 725 135 773 132 c 1
 777 132 l 2
 827 132 904 199 913 247 c 2
 914 254 l 2
 916 262 916 270 916 278 c 0
 916 323 890 356 846 358 c 1
 844 358 l 2
 798 358 721 277 711 225 c 2xfd
561 226 m 2
 564 241 l 1
 598 370 724 505 866 511 c 1
 874 511 l 1
 981 507 1058 424 1058 314 c 0
 1058 298 1056 283 1053 266 c 2
 1050 254 l 2
 1027 136 894 -3 749 -3 c 0
 634 -3 556 71 556 179 c 0
 556 194 558 210 561 226 c 2
456 885 m 0
 499 885 575 958 585 1008 c 0
 587 1018 588 1028 588 1036 c 0xfb
 588 1076 564 1092 514 1094 c 0
 513 1094 512 1094 511 1094 c 0
 468 1094 390 1025 381 981 c 0
 380 974 379 968 379 962 c 0
 379 918 409 885 456 885 c 0
426 730 m 0
 314 730 240 817 240 929 c 0
 240 946 242 963 245 980 c 0
 272 1121 410 1244 544 1247 c 0
 546 1247 548 1247 550 1247 c 0
 664 1247 739 1172 739 1066 c 0
 739 1051 737 1035 734 1019 c 0
 734 1017 733 1015 733 1013 c 0
 703 873 572 730 426 730 c 0
173 24 m 1
 355 301 815 1022 1016 1374 c 1
 1157 1307 l 5
 951 955 487 234 312 -48 c 5
 173 24 l 1
EndSplineSet
Validated: 1
EndChar

StartChar: guillemotleft
Encoding: 171 171 157
Width: 1060
VWidth: 6
Flags: W
VStem: 398 158<97.7355 206.585> 721 159<105.72 241.074>
LayerCount: 2
Fore
SplineSet
533 576 m 1
 697 676 851 845 917 978 c 1
 1049 904 l 1
 974 762 855 616 702 499 c 1
 803 393 865 280 880 127 c 5
 883 109 l 5
 721 63 l 1
 705 226 643 343 508 450 c 1
 533 576 l 1
183 574 m 1
 352 704 541 836 591 976 c 1
 730 922 l 1
 653 733 493 610 347 501 c 1
 452 383 544 274 556 102 c 5
 398 55 l 1
 389 204 291 318 160 459 c 1
 183 574 l 1
EndSplineSet
Validated: 1
EndChar

StartChar: section
Encoding: 167 167 159
Width: 1060
VWidth: 4
Flags: W
HStem: -322 155<370.721 616.466> 1213 155<601.101 841.962>
VStem: 186 160<-134.064 -31> 241 160<554.545 702.994> 360 158<901.458 1134.25> 698 165<-88.6952 139.763> 815 166<392 492.034> 869 154<1081 1185.29>
LayerCount: 2
Fore
SplineSet
741 319 m 1xd2
 793 339 804 358 811 392 c 2
 815 409 l 1
 815 411 815 412 815 414 c 0
 815 433 809 454 790 475 c 0
 707 567 584 640 484 722 c 1
 418 697 410 679 402 637 c 0
 401 634 401 632 401 629 c 0
 401 610 412 588 430 569 c 0
 513 476 641 399 741 319 c 1xd2
365 1040 m 0
 407 1258 607 1368 760 1368 c 0
 912 1368 1023 1292 1023 1142 c 0
 1023 1123 1021 1103 1017 1081 c 1
 866 1080 l 1
 868 1095 869 1107 869 1117 c 0xc9
 869 1149 859 1162 838 1183 c 1
 816 1203 782 1213 730 1213 c 1
 641 1211 543 1152 524 1055 c 0
 520 1033 518 1014 518 998 c 0
 518 924 563 899 653 827 c 0
 733 763 841 698 921 594 c 1
 955 553 981 500 981 442 c 0xca
 981 430 979 418 977 405 c 0
 957 300 910 246 837 198 c 1
 854 164 863 123 863 76 c 0
 863 54 861 31 857 6 c 0
 856 3 856 0 855 -3 c 0
 812 -223 608 -322 453 -322 c 0
 298 -322 186 -246 186 -93 c 0
 186 -74 188 -53 192 -31 c 1
 347 -30 l 1
 347 -40 346 -49 346 -57 c 0xe4
 346 -97 353 -115 376 -135 c 0
 397 -154 433 -167 483 -167 c 1
 576 -164 673 -112 693 -9 c 0
 696 7 698 24 698 45 c 0
 698 48 698 52 698 55 c 0
 695 101 645 159 563 220 c 1
 479 281 371 348 290 450 c 1
 259 492 241 541 241 595 c 0xd4
 241 610 242 625 245 641 c 0
 265 745 317 794 389 841 c 1
 370 878 360 928 360 979 c 0xc8
 360 999 361 1020 365 1040 c 0
EndSplineSet
Validated: 1
EndChar

StartChar: braceleft
Encoding: 123 123 160
Width: 1060
VWidth: 66
Flags: W
HStem: -262 158<651.757 838> 1326 158<912.736 1152>
VStem: 456 172<-76.5579 115.898> 599 160<218.427 451.944> 689 168<943.845 962.922 966.949 1272.79> 712 157<814.594 1139.28 1142.94 1149.61>
LayerCount: 2
Fore
SplineSet
387 530 m 5xd0
 418 690 l 5
 546 724 682 765 708 899 c 4
 711 913 712 927 712 943 c 0xc4
 712 961 710 981 707 1003 c 5
 699 1050 689 1101 689 1152 c 0
 689 1172 690 1191 694 1211 c 4
 704 1261 729 1311 778 1358 c 4
 892 1466 1043 1478 1177 1484 c 5
 1152 1326 l 5
 1006 1319 885 1319 862 1202 c 4
 858 1182 857 1162 857 1142 c 0xc8
 857 1084 869 1027 869 964 c 0xc4
 869 941 868 918 863 893 c 4
 834 743 711 633 611 610 c 5
 690 590 759 507 759 389 c 0xd0
 759 369 757 348 753 327 c 4
 731 212 651 119 631 18 c 4
 629 8 628 -1 628 -9 c 0
 628 -99 742 -98 874 -104 c 5
 838 -262 l 5
 706 -256 559 -246 487 -138 c 4
 465 -105 456 -71 456 -36 c 0xe0
 456 -21 458 -6 461 9 c 4
 475 80 517 152 554 217 c 5
 576 257 589 291 595 321 c 4
 597 334 599 345 599 356 c 0
 599 462 490 499 387 530 c 5xd0
EndSplineSet
Validated: 1
EndChar

StartChar: bar
Encoding: 124 124 161
Width: 1060
VWidth: 66
Flags: W
VStem: 348 483
LayerCount: 2
Fore
SplineSet
420 152 m 4
 491 517 597 1111 653 1399 c 6
 671 1492 l 5
 831 1492 l 5
 803 1347 l 6
 749 1070 662 558 597 224 c 6
 567 74 l 6
 545 -41 534 -97 509 -198 c 5
 348 -197 l 5
 364 -135 373 -92 384 -37 c 4
 393 10 403 66 420 152 c 4
EndSplineSet
Validated: 1
EndChar

StartChar: braceright
Encoding: 125 125 162
Width: 1060
VWidth: 66
Flags: W
HStem: -262 158<126 364.264> 1326 158<439 625.243>
VStem: 408 157<70.3906 78.0625 81.6712 405.406> 421 167<-51.7364 251.098 255.08 276.155> 519 159<768.056 1001.57> 649 172<1104.1 1297.66>
LayerCount: 2
Fore
SplineSet
859 530 m 1xc8
 731 496 595 455 569 321 c 0
 566 307 565 293 565 277 c 0xe0
 565 259 567 239 570 217 c 1
 578 170 588 119 588 68 c 0
 588 48 587 29 583 9 c 0
 573 -41 548 -91 499 -138 c 0
 385 -246 234 -256 100 -262 c 1
 126 -104 l 1
 272 -97 392 -99 415 18 c 0
 419 39 421 59 421 79 c 0xd0
 421 136 408 192 408 254 c 0xe0
 408 277 410 302 415 327 c 0
 444 477 567 587 667 610 c 1
 588 630 519 713 519 831 c 0xc8
 519 851 521 872 525 893 c 0
 547 1008 626 1101 646 1202 c 0
 648 1212 649 1221 649 1229 c 0
 649 1319 536 1320 404 1326 c 1
 439 1484 l 1
 571 1478 718 1466 790 1358 c 0
 812 1325 821 1291 821 1256 c 0xc4
 821 1241 819 1226 816 1211 c 0
 802 1140 760 1068 723 1003 c 1
 701 963 688 929 682 899 c 0
 680 886 678 875 678 864 c 0
 678 758 787 721 890 690 c 5
 859 530 l 1xc8
EndSplineSet
Validated: 1
EndChar

StartChar: at
Encoding: 64 64 163
Width: 1060
VWidth: 6
Flags: W
HStem: -362 150<362.174 630.167> -7 155<467.16 548.25> 3 168<791.931 852.48> 881 154<624.909 725.938> 1238 148<620.106 868.552>
VStem: 79 155<-59.1515 549.957> 324 138<150.666 550.097> 790 123<959.081 1005.91> 972 151<602.723 1123.58>
LayerCount: 2
Fore
SplineSet
462 285 m 0xdf80
 462 174 467 148 490 148 c 0
 568 148 652 389 697 591 c 1
 735 777 l 1
 734 813 730 881 667 881 c 0
 619 881 462 543 462 285 c 0xdf80
822 171 m 3xbf80
 848 171 855 218 871 300 c 2
 871 300 928 582 952 705 c 0
 964 767 972 835 972 900 c 0
 972 1077 915 1238 740 1238 c 0
 592 1238 367 1027 274 550 c 0
 248 416 234 295 234 190 c 0
 234 -59 322 -212 502 -212 c 0
 545 -212 582 -199 618 -178 c 1
 664 -313 l 1
 612 -342 550 -362 473 -362 c 0
 192 -362 79 -171 79 144 c 0
 79 263 95 399 124 550 c 0
 230 1095 510 1386 769 1386 c 0
 1053 1386 1123 1148 1123 933 c 0
 1123 855 1113 780 1102 721 c 0
 1071 564 1045 427 1014 270 c 0
 976 76 890 3 810 3 c 0xbf80
 719 3 686 84 686 183 c 1
 686 183 615 -7 495 -7 c 0xdf80
 382 -7 324 78 324 288 c 0
 324 559 528 1035 678 1035 c 0
 744 1035 762 998 778 958 c 1
 783 981 788 1008 790 1028 c 1
 913 1003 l 1
 781 357 l 1
 779 342 778 326 778 310 c 0
 778 241 796 171 822 171 c 3xbf80
EndSplineSet
Validated: 1
EndChar

StartChar: brokenbar
Encoding: 166 166 164
Width: 1060
VWidth: 66
Flags: W
VStem: 351 161<-194 0.334991>
LayerCount: 2
Fore
SplineSet
656 528 m 1
 636 417 604 243 587 155 c 0
 548 -46 544 -65 512 -195 c 1
 351 -194 l 1
 369 -120 376 -90 388 -29 c 2
 417 118 l 2
 436 216 471 404 493 528 c 1
 656 528 l 1
539 775 m 1
 587 1042 622 1239 653 1399 c 2
 671 1492 l 1
 831 1492 l 1
 807 1366 l 2
 778 1217 746 1025 701 775 c 1
 539 775 l 1
EndSplineSet
Validated: 1
EndChar

StartChar: copyright
Encoding: 169 169 165
Width: 1060
VWidth: 6
Flags: W
HStem: -336 155<358.066 579.932> -17 152<482.596 607.085> 859 174<608.071 720.548> 1202 153<615.139 820.135>
VStem: 101 141<-28.5763 561.074> 311 153<140.321 584.213> 729 152<804.624 856.952> 947 150<459.531 1020.15>
LayerCount: 2
Fore
SplineSet
682 1033 m 0
 683 1033 684 1033 685 1033 c 0
 692 1033 698 1035 710 1035 c 0
 785 1032 861 962 881 810 c 1
 729 753 l 1
 722 810 724 859 678 859 c 0
 602 859 519 689 484 510 c 0
 473 456 464 377 464 306 c 0
 464 215 479 135 526 135 c 0
 588 135 620 182 658 273 c 1
 777 234 l 1
 710 93 630 -17 506 -17 c 0
 351 -17 311 134 311 283 c 0
 311 359 322 433 332 487 c 0
 371 688 438 812 479 874 c 0
 530 952 606 1019 682 1033 c 0
730 1202 m 0
 564 1202 346 905 270 512 c 0
 251 416 242 324 242 242 c 0
 242 -10 325 -181 461 -181 c 0
 646 -181 846 118 922 510 c 2
 925 527 l 2
 940 604 947 677 947 745 c 0
 947 1016 840 1202 730 1202 c 0
759 1355 m 0
 989 1355 1097 1129 1097 822 c 0
 1097 723 1086 617 1064 506 c 0
 976 51 721 -336 431 -336 c 0
 206 -336 101 -112 101 193 c 0
 101 293 112 401 134 513 c 0
 223 969 471 1355 759 1355 c 0
EndSplineSet
Validated: 1
EndChar

StartChar: registered
Encoding: 174 174 166
Width: 1060
VWidth: 6
Flags: W
HStem: -336 155<358.066 579.932> 0 21G<605 652.348> 891 153<629 709.832> 1202 153<615.139 820.135>
VStem: 101 141<-28.5763 561.074> 725 136<566.393 880.162> 947 150<459.531 1020.15>
LayerCount: 2
Fore
SplineSet
721 722 m 0
 724 744 725 763 725 780 c 0
 725 863 690 891 638 891 c 0
 635 891 632 891 629 891 c 1
 561 538 l 1
 582 531 600 528 615 528 c 0
 673 528 695 576 711 657 c 0
 715 677 717 698 721 722 c 0
618 0 m 1
 592 82 575 316 561 378 c 1
 542 381 544 377 530 381 c 1
 505 254 497 203 486 148 c 0
 479 111 471 73 457 10 c 1
 309 12 l 1
 369 321 501 1007 501 1007 c 1
 550 1042 603 1039 656 1043 c 0
 664 1044 672 1044 680 1044 c 0
 814 1044 861 935 861 800 c 0
 861 763 857 723 851 684 c 1
 829 570 782 433 708 392 c 1
 731 298 752 112 776 92 c 1
 618 0 l 1
730 1202 m 0
 564 1202 346 905 270 512 c 0
 251 416 242 324 242 242 c 0
 242 -10 325 -181 461 -181 c 0
 646 -181 846 118 922 510 c 2
 925 527 l 2
 940 604 947 677 947 745 c 0
 947 1016 840 1202 730 1202 c 0
759 1355 m 0
 989 1355 1097 1129 1097 822 c 0
 1097 723 1086 617 1064 506 c 0
 976 51 721 -336 431 -336 c 0
 206 -336 101 -112 101 193 c 0
 101 293 112 401 134 513 c 0
 223 969 471 1355 759 1355 c 0
EndSplineSet
Validated: 1
EndChar

StartChar: germandbls
Encoding: 223 223 167
Width: 1060
VWidth: 0
Flags: W
HStem: -2 153<514.456 772.896> 669 153<453 713.989> 1176 152<509.778 766.146>
VStem: 341 160<167.03 321> 800 159<909.261 1138.04> 875 155<276.688 590.008>
LayerCount: 2
Fore
SplineSet
275 1003 m 0xf8
 305 1159 449 1328 648 1328 c 0
 827 1328 959 1255 959 1086 c 0xf8
 959 1063 956 1038 951 1011 c 0
 931 909 887 832 821 779 c 1
 957 739 1030 645 1030 494 c 0
 1030 459 1026 422 1018 381 c 0
 977 171 844 -2 624 -2 c 0
 460 -2 341 72 341 228 c 0
 341 250 343 272 348 297 c 0
 350 305 351 313 353 321 c 1
 509 321 l 1
 504 292 501 268 501 247 c 0
 501 176 538 151 653 151 c 0
 788 151 841 261 867 395 c 0
 872 422 875 446 875 468 c 0xf4
 875 659 681 669 423 669 c 1
 453 822 l 1
 618 822 760 822 796 1005 c 0
 799 1020 800 1034 800 1047 c 0
 800 1132 738 1176 619 1176 c 1
 523 1175 443 1083 426 993 c 0
 396 837 361 637 325 450 c 0
 301 326 276 208 249 111 c 0
 226 30 167 -9 106 -37 c 1
 53 90 l 1
 75 100 93 101 101 128 c 0
 130 228 154 337 176 448 c 0
 212 635 241 829 275 1003 c 0xf8
EndSplineSet
Validated: 1
EndChar

StartChar: ampersand
Encoding: 38 38 168
Width: 1060
VWidth: 0
Flags: W
HStem: -22 155<332.476 608.387> 1194 153<560.146 753.143>
VStem: 109 164<193.596 477.144> 329 161<883.726 1123.19> 765 161<998.595 1178.79> 886 149<470.938 647>
LayerCount: 2
Fore
SplineSet
703 245 m 1xf0
 624 387 552 521 477 648 c 1
 386 579 301 491 279 376 c 0
 275 356 273 337 273 319 c 0
 273 203 350 133 450 133 c 0
 550 133 639 185 703 245 c 1xf0
761 1069 m 0
 763 1081 765 1093 765 1103 c 0xf8
 765 1167 721 1194 657 1194 c 0
 589 1194 508 1121 493 1044 c 0
 491 1033 490 1022 490 1012 c 0
 490 954 520 904 550 859 c 1
 634 911 678 950 707 981 c 0
 740 1016 756 1041 761 1069 c 0
997 64 m 1
 857 -32 l 1
 846 -12 812 47 773 116 c 1
 663 18 545 -22 415 -22 c 0
 235 -22 109 91 109 277 c 0
 109 305 112 336 118 367 c 0
 153 546 272 681 403 771 c 1
 372 819 329 892 329 982 c 0
 329 1000 330 1018 334 1037 c 0
 367 1206 527 1347 688 1347 c 0
 817 1347 926 1276 926 1140 c 0xf8
 926 1123 925 1104 921 1085 c 0
 890 923 752 827 618 741 c 1
 683 628 747 517 812 398 c 1
 848 468 865 539 886 648 c 1
 1035 647 l 1xf4
 1003 480 954 336 887 255 c 1
 917 204 980 95 997 64 c 1
EndSplineSet
Validated: 1
EndChar

StartChar: uni00B5
Encoding: 181 181 169
Width: 1060
VWidth: 6
Flags: W
HStem: 2 154<354.589 624.988> 1001 19G<326.778 449 934.095 1096>
VStem: 285 164<701.035 996.196>
LayerCount: 2
Fore
SplineSet
904 -10 m 1
 855 31 809 72 804 158 c 1
 703 72 593 5 442 2 c 1
 433 2 l 2
 385 2 323 2 273 22 c 1
 188 -400 l 1
 31 -400 l 1
 156 214 l 1
 202 467 285 863 285 977 c 0
 285 984 285 989 284 994 c 1
 449 1021 l 1
 449 1018 449 1015 449 1012 c 0
 449 910 386 605 319 250 c 1
 319 249 319 248 319 247 c 0
 319 215 336 190 354 174 c 0
 366 164 415 156 456 156 c 1
 524 159 566 167 623 198 c 0
 675 226 751 256 806 344 c 1
 938 1020 l 1
 1096 1020 l 1
 943 239 l 1
 942 234 942 229 942 225 c 0
 942 178 978 136 1009 107 c 1
 904 -10 l 1
EndSplineSet
Validated: 1
EndChar

StartChar: paragraph
Encoding: 182 182 170
Width: 1060
VWidth: 0
Flags: W
HStem: -10 21G<787.5 907> 1169 159<846.694 982>
LayerCount: 2
Fore
SplineSet
957 1041 m 2
 982 1169 l 1
 941 1170 902 1173 849 1174 c 1
 786 844 721 512 660 184 c 1
 633 45 576 -30 576 -30 c 1
 432 22 l 1
 432 22 486 85 514 229 c 1
 559 473 l 1
 393 485 285 526 228 641 c 0
 207 685 199 732 199 780 c 0
 199 828 207 877 216 924 c 0
 234 1016 270 1108 337 1174 c 0
 479 1315 653 1328 878 1328 c 0
 1011 1328 1048 1320 1166 1320 c 1
 907 -9 l 1
 755 -10 l 1
 820 325 871 597 957 1041 c 2
EndSplineSet
Validated: 1
EndChar

StartChar: dieresis
Encoding: 168 168 173
Width: 1060
VWidth: -28
Flags: W
HStem: 1090 225<395 585 800 991>
LayerCount: 2
Fore
SplineSet
395 1315 m 1
 629 1312 l 1
 585 1087 l 1
 351 1090 l 1
 395 1315 l 1
800 1312 m 1
 1034 1309 l 1
 991 1084 l 1
 756 1087 l 1
 800 1312 l 1
EndSplineSet
Validated: 1
EndChar

StartChar: acute
Encoding: 180 180 174
Width: 1060
VWidth: -43
Flags: W
HStem: 1201 148<517.319 595.926>
VStem: 483 567
LayerCount: 2
Fore
SplineSet
483 1349 m 1
 635 1397 832 1509 968 1617 c 1
 1050 1470 l 1
 917 1358 673 1248 521 1201 c 1
 483 1349 l 1
EndSplineSet
Validated: 1
EndChar

StartChar: degree
Encoding: 176 176 175
Width: 1060
VWidth: -26
Flags: W
HStem: 922 125<588.287 745.549> 1188 124<598.277 757.181>
VStem: 453 132<1052.38 1172.47> 759 133<1062.58 1182.69>
LayerCount: 2
Fore
SplineSet
586 1119 m 0
 585 1116 585 1112 585 1109 c 0
 585 1077 613 1047 659 1047 c 0
 710 1047 751 1084 758 1119 c 0
 759 1123 759 1126 759 1130 c 0
 759 1161 733 1188 686 1188 c 0
 634 1188 593 1154 586 1119 c 0
456 1117 m 0
 478 1228 596 1312 711 1312 c 0
 814 1312 892 1245 892 1152 c 0
 892 1141 891 1129 889 1117 c 0
 867 1006 750 922 635 922 c 0
 532 922 453 989 453 1083 c 0
 453 1094 454 1105 456 1117 c 0
EndSplineSet
Validated: 1
EndChar

StartChar: macron
Encoding: 175 175 176
Width: 1060
VWidth: -34
Flags: W
HStem: 1182 154<485.947 912>
VStem: 458 483
LayerCount: 2
Fore
SplineSet
488 1340 m 1
 523 1336 566 1335 612 1335 c 0
 658 1335 710 1336 761 1336 c 0
 821 1336 881 1336 941 1336 c 1
 912 1184 l 1
 895 1184 l 1
 837 1182 767 1182 693 1182 c 0
 666 1182 639 1182 612 1182 c 0
 559 1182 506 1182 458 1185 c 1
 488 1340 l 1
EndSplineSet
Validated: 1
EndChar

StartChar: dotlessi
Encoding: 305 305 177
Width: 1060
VWidth: 0
Flags: W
HStem: -18 142<604.508 910.381>
VStem: 428 159<140.796 474.195>
LayerCount: 2
Back
SplineSet
473.438 1019.8 m 4
 665.938 1019.8 698.503 856.225 674.522 727 c 6
 592.217 283.5 l 6
 572.99 179.898 607.104 124 699.104 124 c 4
 792.104 124 890.331 148 969.438 200 c 5
 1045.13 83 l 5
 945.333 12 796.501 -18 672.501 -18 c 4
 438.631 -18 413.439 155 435.438 279.5 c 6
 522.036 741 l 6
 529.792 782.333 532.438 869 471.438 871 c 4
 422.438 871 356.438 872 234.438 760 c 5
 137.438 893 l 5
 272.438 982 338.438 1019.8 473.438 1019.8 c 4
EndSplineSet
Fore
SplineSet
729 1010 m 1
 592 284 l 2
 588 265 587 248 587 232 c 0
 587 161 624 124 699 124 c 0
 792 124 890 148 969 200 c 1
 1045 83 l 1
 945 12 797 -18 673 -18 c 0
 482 -18 428 99 428 209 c 0
 428 234 431 257 435 280 c 2
 537 813 l 1
 502 787 392 725 318 701 c 1
 260 845 l 1
 534 938 579 1034 579 1034 c 1
 729 1010 l 1
EndSplineSet
Validated: 1
EndChar

StartChar: cdotaccent
Encoding: 267 267 185
Width: 1060
VWidth: -2
Flags: HW
HStem: -7 157<397.089 774.718> 865 153<512.552 866.249> 1178 225<405 640>
VStem: 152 165<225.318 615.574> 405 235<1178 1403>
LayerCount: 2
Fore
SplineSet
405 1403 m 1
 640 1403 l 1
 640 1178 l 1
 405 1178 l 1
 405 1403 l 1
EndSplineSet
Refer: 2 99 N 1 0 0 1 0 0 3
Validated: 1
EndChar

StartChar: asterisk
Encoding: 42 42 191
Width: 1060
VWidth: 0
Flags: W
LayerCount: 2
Fore
SplineSet
584 774 m 1
 663 1199 l 1
 832 1200 l 1
 747 773 l 1
 1102 919 l 1
 1149 781 l 1
 756 628 l 1
 966 307 l 1
 818 196 l 1
 631 563 l 1
 315 197 l 1
 204 302 l 1
 523 628 l 1
 198 770 l 1
 292 914 l 1
 584 774 l 1
EndSplineSet
Validated: 1
EndChar

StartChar: ordfeminine
Encoding: 170 170 193
Width: 1060
VWidth: 6
Flags: W
HStem: 467 116<328 760> 668 96<445.435 637.053> 931 95<478.229 706.674> 1022 21G<436.25 493> 1125 95<516.021 721.508>
VStem: 352 91<767.839 893.485> 727 93<1010.23 1116.01>
LayerCount: 2
Fore
SplineSet
513 764 m 0xee
 584 764 675 830 698 853 c 1
 708 905 l 1
 684 920 646 928 601 931 c 0
 599 931 597 931 595 931 c 0
 533 931 455 887 445 837 c 0
 444 832 443 827 443 822 c 0
 443 789 467 764 513 764 c 0xee
749 658 m 1
 726 680 696 698 688 739 c 1
 640 703 574 668 498 668 c 0
 414 668 352 728 352 808 c 0
 352 818 353 829 355 839 c 0
 363 882 387 925 429 959 c 0
 495 1012 557 1026 620 1026 c 0xee
 660 1026 699 1019 726 1010 c 1
 727 1020 727 1030 727 1039 c 0
 727 1105 700 1125 633 1125 c 0
 562 1125 521 1098 465 1022 c 1xde
 396 1070 l 1
 409 1088 l 1
 481 1179 560 1218 649 1220 c 1
 757 1220 820 1158 820 1054 c 0
 820 1042 820 1031 818 1018 c 0
 815 986 806 938 802 918 c 0
 794 877 790 863 786 841 c 0
 783 826 780 800 780 783 c 0
 780 777 780 773 781 770 c 0
 783 768 812 743 823 735 c 1
 749 658 l 1
781 583 m 1
 760 469 l 1
 743 469 l 1
 685 467 615 467 541 467 c 0
 514 467 487 467 460 467 c 0
 407 467 354 467 306 470 c 1
 328 585 l 1
 347 585 l 1
 412 583 508 583 600 583 c 0
 660 583 721 583 781 583 c 1
EndSplineSet
Validated: 1
EndChar

StartChar: logicalnot
Encoding: 172 172 194
Width: 1060
VWidth: 6
Flags: W
HStem: 448 152<262 840>
LayerCount: 2
Fore
SplineSet
262 592 m 1
 399 599 511 600 613 600 c 0
 654 600 693 600 732 600 c 0
 814 600 898 599 1005 598 c 1
 1024 598 l 1
 997 457 969 315 942 174 c 1
 788 174 l 1
 840 444 l 1
 706 447 706 448 581 448 c 0
 514 448 392 447 238 439 c 1
 255 523 l 1
 262 592 l 1
EndSplineSet
Validated: 1
EndChar

StartChar: uni00AD
Encoding: 173 173 195
Width: 1060
VWidth: 6
Flags: W
HStem: 448 152<262 993>
LayerCount: 2
Fore
SplineSet
262 592 m 1
 399 599 511 600 613 600 c 0
 654 600 693 600 732 600 c 0
 814 600 898 599 1005 598 c 1
 1023 598 l 1
 993 445 l 1
 975 445 l 1
 841 448 706 448 581 448 c 0
 514 448 392 447 238 439 c 1
 255 523 l 1
 262 592 l 1
EndSplineSet
Validated: 1
EndChar

StartChar: cedilla
Encoding: 184 184 198
Width: 1060
VWidth: 12
Flags: W
HStem: -358 125<386.312 602.869> -119 171<490 610.907>
VStem: 610 138<-221.877 -124.195>
LayerCount: 2
Fore
SplineSet
637 56 m 1
 634 48 622 -16 621 -19 c 1
 702 -23 748 -68 748 -145 c 0
 748 -159 746 -174 743 -190 c 0
 723 -291 610 -358 526 -358 c 0
 460 -358 393 -333 344 -297 c 1
 403 -191 l 1
 433 -209 468 -233 519 -233 c 0
 555 -233 600 -213 610 -175 c 1
 610 -173 l 2
 610 -171 611 -168 611 -166 c 0
 611 -140 579 -119 535 -119 c 0
 487 -119 484 -126 454 -136 c 1
 490 52 l 1
 637 56 l 1
EndSplineSet
Validated: 1
EndChar

StartChar: ordmasculine
Encoding: 186 186 200
Width: 1060
VWidth: 6
Flags: W
HStem: 467 116<215 668> 671 117<323.203 551.109> 1101 117<335.708 556.964>
VStem: 165 126<815.284 1055.19> 595 125<831.251 1063.17>
LayerCount: 2
Fore
SplineSet
442 788 m 0
 538 788 595 857 595 954 c 0
 595 1028 548 1101 450 1101 c 2
 448 1101 l 2
 342 1101 291 1027 291 921 c 0
 291 838 336 788 439 788 c 0
 440 788 441 788 442 788 c 0
165 918 m 0
 165 1082 265 1218 439 1218 c 0
 562 1218 625 1173 674 1103 c 0
 703 1061 720 1011 720 958 c 0
 720 937 716 909 711 889 c 0
 684 772 611 672 441 671 c 1
 438 671 l 2
 267 671 165 766 165 918 c 0
668 583 m 1
 669 469 l 1
 652 469 l 1
 594 467 524 467 450 467 c 0
 423 467 396 467 369 467 c 0
 316 467 264 467 215 470 c 1
 214 585 l 1
 233 585 l 1
 298 583 395 583 487 583 c 0
 547 583 608 583 668 583 c 1
EndSplineSet
Validated: 1
EndChar

StartChar: onequarter
Encoding: 188 188 201
Width: 1060
VWidth: 0
Flags: W
HStem: -3 21G<229.681 352.5 762 849.894> 221 85<650 806 906 959> 1372 20G<945 1064.73>
LayerCount: 2
Fore
SplineSet
574 1374 m 1
 659 1351 l 1
 527 672 l 1
 441 672 l 1
 549 1234 l 1
 504 1189 421 1135 344 1096 c 1
 314 1169 l 1
 492 1250 568 1366 574 1374 c 1
822 306 m 1
 867 533 l 1
 814 463 710 358 650 306 c 1
 822 306 l 1
535 291 m 1
 558 316 867 615 896 703 c 1
 984 703 l 1
 906 306 l 1
 975 306 l 1
 959 223 l 1
 890 223 l 1
 846 -3 l 1
 762 -3 l 1
 806 221 l 1
 554 221 l 1
 535 291 l 1
182 41 m 1
 191 54 229 111 254 153 c 1
 395 378 863 1106 1027 1392 c 1
 1110 1348 l 1
 904 996 440 276 265 -6 c 1
 182 41 l 1
EndSplineSet
Validated: 1
EndChar

StartChar: onehalf
Encoding: 189 189 202
Width: 1060
VWidth: 0
Flags: W
HStem: -2 21G<195.681 318.5> 5 84<635 939> 633 85<753.66 931.586> 1376 20G<910 1030.18>
VStem: 628 86<468.833 595.155> 943 91<434.795 624.005>
LayerCount: 2
Fore
SplineSet
537 1383 m 1x3c
 621 1360 l 1
 489 681 l 1
 403 681 l 1
 512 1243 l 1
 467 1198 384 1144 307 1105 c 1
 277 1178 l 1
 455 1259 531 1375 537 1383 c 1x3c
714 472 m 1
 628 453 l 1
 626 469 626 494 629 514 c 0
 630 519 630 524 631 528 c 0
 655 649 758 718 866 718 c 0
 975 718 1034 673 1034 575 c 0
 1034 556 1032 534 1027 511 c 0
 1014 442 959 380 906 334 c 1
 851 288 776 240 709 185 c 0
 663 147 640 109 635 89 c 1
 955 90 l 1
 939 5 l 1
 524 5 l 1x7c
 527 21 530 39 533 57 c 0
 536 71 539 86 545 101 c 0
 565 154 599 201 669 256 c 0
 737 310 799 345 850 387 c 0
 900 427 934 477 940 510 c 0
 942 521 943 532 943 543 c 0
 943 592 919 633 854 633 c 0
 783 633 730 594 713 507 c 0
 711 496 713 478 714 472 c 1
148 45 m 1
 157 58 196 115 221 157 c 1
 362 382 828 1110 992 1396 c 1
 1076 1352 l 1
 870 1000 406 280 231 -2 c 1xbc
 148 45 l 1
EndSplineSet
Validated: 1
EndChar

StartChar: threequarters
Encoding: 190 190 203
Width: 1060
VWidth: 0
Flags: W
HStem: 227 85<664 819 920 973> 655 84<308.618 513.851> 1028 86<406 515.939> 1298 85<412.776 586.911> 1384 20G<991 1110.73>
VStem: 208 88<752.491 849> 568 88<790.836 994.653> 592 88<1152.33 1287.2>
LayerCount: 2
Fore
SplineSet
212 849 m 1xfe
 298 849 l 1
 297 841 296 834 296 827 c 0
 296 776 331 739 401 739 c 0
 487 739 548 790 564 870 c 0
 567 884 568 898 568 910 c 0xfe
 568 949 553 978 518 1000 c 0
 474 1028 432 1028 389 1028 c 1
 406 1114 l 1
 409 1114 412 1114 415 1114 c 0
 436 1114 461 1115 503 1128 c 0
 551 1144 580 1169 591 1224 c 0
 592 1228 592 1232 592 1235 c 0
 592 1272 554 1298 504 1298 c 0
 435 1298 392 1235 378 1215 c 1
 310 1257 l 1
 315 1265 385 1383 516 1383 c 0
 518 1383 520 1383 522 1383 c 0
 609 1383 680 1341 680 1258 c 0xfd
 680 1248 679 1238 677 1227 c 0
 664 1158 624 1099 571 1077 c 1
 632 1045 656 995 656 932 c 0
 656 913 654 892 650 871 c 0
 641 825 613 765 569 722 c 0
 525 680 470 655 384 655 c 0
 271 655 208 718 208 807 c 0
 208 820 209 835 212 849 c 1xfe
836 312 m 1
 880 539 l 1
 827 469 724 364 664 312 c 1
 836 312 l 1
548 297 m 1
 571 322 880 621 909 709 c 1
 997 709 l 1
 920 312 l 1
 989 312 l 1
 973 229 l 1
 904 229 l 1
 860 3 l 1
 776 3 l 1
 819 227 l 1
 567 227 l 1
 548 297 l 1
228 53 m 1
 237 66 276 123 301 165 c 1
 442 390 909 1118 1073 1404 c 1
 1156 1360 l 1
 950 1008 486 288 311 6 c 1
 228 53 l 1
EndSplineSet
Validated: 1
EndChar

StartChar: Thorn
Encoding: 222 222 204
Width: 1060
VWidth: 0
Flags: W
HStem: -10 21G<102 275> 460 152<382 831.921> 1008 152<489 873.283> 1277 20G<491.5 512.143>
VStem: 945 160<712.05 943.983>
LayerCount: 2
Fore
SplineSet
940 800 m 0
 943 816 945 831 945 845 c 0
 945 952 853 1008 611 1008 c 1
 550 1008 504 1005 459 1004 c 1
 435 878 l 2
 399 695 382 613 382 613 c 1
 418 612 452 612 485 612 c 0
 771 612 907 632 940 800 c 0
260 -10 m 1
 102 -9 l 1
 356 1294 l 1
 424 1294 467 1295 516 1297 c 1
 489 1157 l 1
 524 1159 564 1160 618 1160 c 0
 843 1160 980 1146 1068 1008 c 0
 1094 967 1105 916 1105 861 c 0
 1105 830 1101 797 1095 764 c 0
 1041 484 730 460 505 460 c 0
 457 460 407 461 353 463 c 1
 302 200 290 146 260 -10 c 1
EndSplineSet
Validated: 1
EndChar

StartChar: eth
Encoding: 240 240 205
Width: 1060
VWidth: 6
Flags: W
HStem: 1 155<388.993 671.385> 1408 20G<671 721>
VStem: 154 163<230.197 607.568> 858 160<413.453 791.547>
LayerCount: 2
Fore
SplineSet
769 864 m 1
 456 864 366 699 328 504 c 0
 321 466 317 429 317 395 c 0
 317 255 380 156 514 156 c 1
 590 157 638 173 696 215 c 1
 777 279 823 400 850 541 c 0
 855 568 858 594 858 619 c 0
 858 710 825 789 769 864 c 1
830 1167 m 1
 936 957 1018 824 1018 653 c 0
 1018 617 1015 579 1007 539 c 0
 956 279 806 1 484 1 c 2
 482 1 l 1
 258 2 154 148 154 356 c 0
 154 401 159 449 169 499 c 0
 206 690 322 994 695 1018 c 1
 688 1033 665 1075 640 1124 c 1
 426 1076 l 1
 421 1212 l 1
 580 1248 l 1
 558 1294 540 1330 537 1341 c 1
 711 1428 l 1
 731 1379 750 1334 770 1291 c 1
 998 1344 l 1
 1004 1208 l 1
 830 1167 l 1
EndSplineSet
Validated: 1
EndChar

StartChar: thorn
Encoding: 254 254 206
Width: 1060
VWidth: -2
Flags: W
HStem: -7 155<389.484 664.493> 858 155<530.733 828.121> 1296 20G<352 519.5>
VStem: 53 161<-397 -118.344> 353 167<1034.8 1297.6> 873 161<434.806 811.703>
LayerCount: 2
Fore
SplineSet
857 527 m 0
 867 579 873 627 873 668 c 0
 873 788 825 858 698 858 c 0
 561 858 504 812 411 698 c 1
 326 262 l 1
 368 211 413 148 504 148 c 0
 667 148 802 244 857 527 c 0
263 739 m 2
 265 747 334 1109 336 1117 c 0
 347 1174 353 1229 353 1270 c 0
 353 1279 353 1288 352 1296 c 1
 520 1316 l 1
 519 1308 520 1259 513 1225 c 0
 454 922 l 1
 528 978 615 1013 727 1013 c 0
 946 1013 1034 886 1034 699 c 0
 1034 652 1028 600 1018 546 c 0
 953 210 783 -7 460 -7 c 0
 360 -7 328 25 286 56 c 1
 246 -151 l 2
 228 -245 220 -329 214 -397 c 1
 53 -406 l 1
 58 -333 72 -237 90 -146 c 2
 263 739 l 2
EndSplineSet
Validated: 1
EndChar

StartChar: Aogonek
Encoding: 260 260 209
Width: 1060
VWidth: 32
Flags: W
HStem: -462 144<687.311 907.1> 0 21G<42 206.5> 332 160<434.395 814> 1281 20G<676.807 860.859>
VStem: 42 162<0 114.376> 520 159<-306.953 -181.552>
LayerCount: 2
Fore
SplineSet
814 495 m 1
 734 1082 l 1
 430 475 l 1
 493 488 549 488 633 492 c 1
 814 495 l 1
1044 0 m 1
 922 -85 694 -160 680 -234 c 0
 679 -239 679 -244 679 -249 c 0
 679 -295 727 -318 785 -318 c 0
 843 -318 890 -285 924 -263 c 1
 982 -369 l 1
 929 -417 832 -462 753 -462 c 0
 591 -462 520 -393 520 -287 c 0
 520 -270 521 -253 525 -234 c 0
 559 -60 799 -17 869 41 c 1
 825 332 l 1
 683 329 461 327 345 300 c 1
 252 121 l 2
 236 92 209 28 204 0 c 1
 42 0 l 1
 48 28 84 116 105 159 c 2
 687 1301 l 1
 858 1301 l 1
 1044 0 l 1
EndSplineSet
Validated: 1
EndChar

StartChar: aogonek
Encoding: 261 261 210
Width: 1060
VWidth: 6
Flags: W
HStem: -445 144<584.311 804.1> -8 152<338.542 569.273> 890 144<495.442 819.614>
VStem: 141 152<187.28 570.631> 417 159<-289.953 -169.473> 790 151<133.409 230>
LayerCount: 2
Fore
SplineSet
1081 1002 m 1
 961 356 l 2
 948 290 941 246 941 214 c 0
 941 160 941 140 957 140 c 0
 962 140 968 141 975 144 c 1
 1038 43 l 1
 916 -42 591 -143 577 -217 c 0
 576 -222 576 -227 576 -232 c 0
 576 -278 624 -301 682 -301 c 0
 740 -301 787 -268 821 -246 c 1
 879 -352 l 1
 826 -400 729 -445 650 -445 c 0
 488 -445 417 -376 417 -270 c 0
 417 -253 418 -236 422 -217 c 0
 448 -85 677 -9 839 64 c 1
 808 87 790 124 790 173 c 0
 790 181 790 189 791 198 c 1
 733 114 608 -8 396 -8 c 0
 241 -8 141 140 141 343 c 0
 141 394 147 448 160 504 c 0
 244 862 378 1034 679 1034 c 0
 805 1034 868 994 916 961 c 1
 921 984 924 1006 926 1026 c 1
 1081 1002 l 1
318 514 m 0
 301 451 293 395 293 346 c 0
 293 218 347 144 425 144 c 0
 651 144 783 442 841 608 c 1
 886 804 l 1
 836 839 763 890 659 890 c 0
 468 890 389 774 318 514 c 0
EndSplineSet
Validated: 1
EndChar

StartChar: dcaron
Encoding: 271 271 211
Width: 1060
VWidth: 32
Flags: W
HStem: -8 152<301.542 521.932> 890 144<453.975 744.746> 1392 20G<901.5 1030.33 1165.5 1315>
VStem: 104 152<187.28 570.631> 702 141<115.046 177> 1172 143<1212.55 1390>
LayerCount: 2
Fore
SplineSet
281 514 m 0
 264 451 256 395 256 346 c 0
 256 218 310 144 388 144 c 0
 614 144 684 442 742 608 c 1
 786 804 l 1
 747 855 692 890 588 890 c 0
 441 890 352 774 281 514 c 0
1056 1388 m 1
 862 356 l 2
 849 290 843 246 843 214 c 0
 843 162 859 142 894 109 c 1
 788 -10 l 1
 747 27 702 49 702 152 c 0
 702 160 701 168 702 177 c 1
 644 93 571 -8 359 -8 c 0
 204 -8 104 140 104 343 c 0
 104 394 110 448 123 504 c 0
 207 862 345 1034 608 1034 c 0
 734 1034 780 1005 816 961 c 1
 821 984 901 1397 902 1412 c 1
 1056 1388 l 1
1172 1397 m 1
 1315 1390 l 1
 1294 1173 1191 1050 1102 970 c 1
 1019 1025 l 1
 1065 1067 1159 1231 1172 1397 c 1
EndSplineSet
Validated: 1
EndChar

StartChar: Dcroat
Encoding: 272 272 212
Width: 1060
VWidth: 0
Flags: W
HStem: -10 151<258 673.492> 780 147<141 228 414 741> 1152 152<450.491 759.326>
VStem: 934 164<461.499 960.578>
LayerCount: 2
Fore
SplineSet
533 1152 m 2
 503 1152 l 2
 487 1152 476 1153 458 1150 c 1
 454 1125 448 1094 442 1064 c 0
 434 1020 424 974 414 927 c 1
 741 927 l 1
 741 780 l 1
 385 780 l 1
 332 506 276 231 258 144 c 1
 345 141 390 141 450 141 c 0
 564 141 750 167 850 346 c 0
 875 391 904 479 914 533 c 0
 927 600 934 669 934 733 c 0
 934 820 921 899 894 954 c 0
 830 1082 754 1152 533 1152 c 2
256 927 m 1
 262 957 l 2
 286 1083 306 1205 314 1291 c 1
 397 1299 442 1304 541 1304 c 0
 812 1304 953 1224 1041 1045 c 0
 1079 966 1098 867 1098 760 c 0
 1098 698 1091 633 1079 568 c 0
 1018 250 891 36 558 -3 c 0
 502 -9 451 -10 396 -10 c 0
 312 -10 180 -3 66 -3 c 1
 72 30 72 29 94 125 c 1
 103 173 170 489 228 780 c 1
 141 780 l 1
 141 927 l 1
 256 927 l 1
EndSplineSet
Validated: 1
EndChar

StartChar: dcroat
Encoding: 273 273 213
Width: 1060
VWidth: -2
Flags: W
HStem: -8 152<301.542 532.273> 890 144<458.442 782.614> 1119 150<623 910 1096 1202> 1392 20G<963.5 1093.17>
VStem: 104 152<187.28 570.631> 753 152<79.1014 230> 964 155<1313.83 1390.22>
LayerCount: 2
Fore
SplineSet
281 514 m 0
 264 451 256 395 256 346 c 0
 256 218 310 144 388 144 c 0
 614 144 746 442 804 608 c 1
 849 804 l 1
 799 839 726 890 622 890 c 0
 431 890 352 774 281 514 c 0
1068 1119 m 1
 924 356 l 2
 911 290 905 246 905 214 c 0
 905 162 922 142 957 109 c 1
 851 -10 l 1
 810 27 753 70 753 173 c 0
 753 181 753 189 754 198 c 1
 696 114 571 -8 359 -8 c 0
 204 -8 104 140 104 343 c 0
 104 394 110 448 123 504 c 0
 207 862 341 1034 642 1034 c 0
 768 1034 831 994 879 961 c 1
 881 970 895 1038 910 1119 c 1
 623 1119 l 1
 623 1269 l 1
 938 1269 l 1
 952 1344 963 1405 964 1412 c 1
 1119 1388 l 1
 1096 1269 l 1
 1202 1269 l 1
 1202 1119 l 1
 1068 1119 l 1
EndSplineSet
Validated: 1
EndChar

StartChar: edotaccent
Encoding: 279 279 217
Width: 1060
VWidth: 32
Flags: W
HStem: -10 153<393.479 758.696> 869 152<522.657 836.392> 1178 225<392 626>
VStem: 161 160<212.786 344.433> 392 234<1178 1403> 886 146<635.961 821.03>
LayerCount: 2
Fore
SplineSet
392 1403 m 1
 626 1403 l 1
 626 1178 l 1
 392 1178 l 1
 392 1403 l 1
EndSplineSet
Refer: 4 101 N 1 0 0 1 0 0 3
Validated: 1
EndChar

StartChar: Eogonek
Encoding: 280 280 218
Width: 1060
VWidth: 32
Flags: W
HStem: -457 144<590.497 807.1> -3 151<286 656> 666 150<419 853> 1144 153<482 1137>
VStem: 425 159<-300.89 -173.326>
LayerCount: 2
Fore
SplineSet
353 1293 m 1
 410 1297 480 1297 558 1297 c 0
 589 1297 622 1297 656 1297 c 2
 766 1297 l 2
 915 1297 1051 1294 1125 1294 c 2
 1141 1294 l 1
 1137 1140 l 1
 482 1144 l 1
 419 816 l 1
 857 816 l 1
 853 662 l 1
 389 666 l 1
 384 636 l 1
 345 433 301 225 286 148 c 1
 805 148 l 2
 861 148 882 167 882 167 c 1
 960 27 l 1
 833 -62 584 -154 584 -240 c 0
 584 -286 627 -313 685 -313 c 0
 743 -313 790 -280 824 -258 c 1
 882 -364 l 1
 829 -412 732 -457 653 -457 c 0
 491 -457 425 -353 425 -278 c 0
 425 -143 540 -67 656 -3 c 1
 101 -3 l 1
 353 1293 l 1
EndSplineSet
Validated: 1
EndChar

StartChar: eogonek
Encoding: 281 281 219
Width: 1060
VWidth: 32
Flags: W
HStem: -443 144<465.311 685.1> 869 152<522.657 836.392>
VStem: 161 160<213.344 344.433> 298 159<-287.953 -147.48> 886 146<635.961 821.03>
LayerCount: 2
Back
SplineSet
234 311 m 4
 234 206 290 146 383 146 c 4
 563 146 670 304 696 345 c 5
 696 440 l 5
 639 475 559 504 489 504 c 4
 353 504 234 429 234 311 c 4
760.513 79.4528 m 5
 747.805 99.1817 737.755 123.706 732 156 c 5
 654 81 565 -6 383 -6 c 4
 212 -6 78 135 78 301 c 4
 78 377 108 466 167 527 c 4
 262 624 363 648 481 648 c 4
 566 648 641 630 695 597 c 5
 695 792 628 877 476 877 c 4
 338 877 283 828 203 685 c 5
 73 767 l 5
 169 949 296 1025 474 1028 c 5
 699 1028 849 878 849 657 c 5
 853 318 l 6
 853 283 853 190 866 173 c 4
 879 155 916 132 945 109 c 5
 945 109 880 42.002 828 0 c 4
 723.34 -84.5332 574 -142.338 574 -216.338 c 4
 574 -272.338 630 -299.838 694 -299.838 c 4
 752 -299.838 793.5 -266.838 823.5 -244.838 c 5
 901.5 -351.338 l 5
 857.5 -399.337 769 -444.338 690 -444.338 c 4
 502 -444.338 419 -351.338 419 -216.338 c 4
 419 -36.3379 711.875 18.875 760.513 79.4528 c 5
EndSplineSet
Fore
SplineSet
337 492 m 1xc8
 452 500 661 513 775 581 c 0
 850 626 886 683 886 735 c 0
 886 808 815 869 679 869 c 0
 509 869 386 743 337 492 c 1xc8
707 1021 m 0
 922 1021 1032 885 1032 740 c 0
 1032 639 978 534 869 467 c 0
 716 374 465 352 321 341 c 1
 321 338 321 334 321 330 c 0xe8
 321 258 360 143 554 143 c 0
 733 143 853 210 902 264 c 1
 1004 155 l 1
 873 16 485 -77 458 -215 c 0
 457 -220 457 -225 457 -230 c 0
 457 -276 505 -299 563 -299 c 0
 621 -299 668 -266 702 -244 c 1
 760 -350 l 1
 707 -398 610 -443 531 -443 c 0
 369 -443 298 -374 298 -268 c 0xd8
 298 -251 299 -234 303 -215 c 0
 322 -130 390 -64 474 -8 c 1
 262 9 161 147 161 356 c 0xe8
 161 405 167 459 178 516 c 0
 234 802 424 1021 707 1021 c 0
EndSplineSet
Validated: 1
EndChar

StartChar: gdotaccent
Encoding: 289 289 227
Width: 1060
VWidth: 32
Flags: HW
HStem: 880 152<524.873 846.657 1034.38 1204.66> 1178 225<379 614>
VStem: 379 235<1178 1403>
LayerCount: 2
Fore
SplineSet
379 1403 m 1
 614 1403 l 1
 614 1178 l 1
 379 1178 l 1
 379 1403 l 1
EndSplineSet
Refer: 6 103 N 1 0 0 1 0 0 3
Validated: 1
EndChar

StartChar: Iogonek
Encoding: 302 302 238
Width: 1060
VWidth: 32
Flags: W
HStem: -480 144<487.311 707.1> 4 147<183 451 612 652 776.737 849> 1144 154<404 646 806 1072>
VStem: 320 159<-324.953 -198.488>
LayerCount: 2
Fore
SplineSet
404 1298 m 1
 561 1302 642 1302 738 1302 c 0
 843 1302 939 1301 1102 1299 c 1
 1072 1147 l 1
 949 1147 902 1152 806 1152 c 1
 612 152 l 1
 658 152 684 153 735 153 c 0
 780 153 827 152 878 149 c 1
 849 -1 l 1
 846 -1 843 -1 841 -1 c 1
 717 -84 493 -180 480 -252 c 0
 479 -257 479 -262 479 -267 c 0
 479 -313 527 -336 585 -336 c 0
 643 -336 690 -303 724 -281 c 1
 782 -387 l 1
 729 -435 632 -480 553 -480 c 0
 391 -480 320 -411 320 -305 c 0
 320 -288 321 -271 325 -252 c 0
 354 -99 555 -45 652 5 c 1
 599 5 549 4 485 4 c 0
 411 4 309 -3 154 -3 c 1
 183 146 l 1
 269 150 319 151 376 151 c 2
 451 151 l 1
 646 1151 l 1
 580 1150 487 1150 380 1144 c 1
 404 1298 l 1
EndSplineSet
Validated: 1
EndChar

StartChar: iogonek
Encoding: 303 303 239
Width: 1060
VWidth: 32
Flags: W
HStem: -474 144<523.311 743.1> 1181 225<586 778>
VStem: 356 159<-318.953 -198.357> 428 159<139.038 478.227>
LayerCount: 2
Fore
SplineSet
586 1406 m 1xc0
 821 1406 l 1
 778 1181 l 1
 543 1181 l 1
 586 1406 l 1xc0
729 1010 m 1
 592 284 l 2
 588 265 587 248 587 232 c 0xd0
 587 161 624 124 699 124 c 0
 792 124 890 148 969 200 c 1
 1045 83 l 1
 1037 77 1029 72 1020 67 c 0
 877 -22 529 -176 516 -246 c 0
 515 -251 515 -256 515 -261 c 0
 515 -307 563 -330 621 -330 c 0
 679 -330 726 -297 760 -275 c 1
 818 -381 l 1
 765 -429 668 -474 589 -474 c 0
 427 -474 356 -405 356 -299 c 0xe0
 356 -282 357 -265 361 -246 c 0
 376 -168 481 -85 600 -11 c 1
 468 15 428 115 428 209 c 0xd0
 428 234 431 257 435 280 c 2
 532 791 l 1
 497 765 392 725 318 701 c 1
 260 845 l 1
 534 938 579 1034 579 1034 c 1
 729 1010 l 1
EndSplineSet
Validated: 1
EndChar

StartChar: IJ
Encoding: 306 306 241
Width: 1060
VWidth: 0
Flags: W
HStem: 0 152<79 152 312 362 647.169 792.35> 1152 150<302 346 506 605 766 980 1140.29 1230>
VStem: 474 164<144.09 422.875>
LayerCount: 2
Fore
SplineSet
605 1151 m 1
 567 1152 541 1152 506 1152 c 1
 312 152 l 1
 391 150 l 1
 362 0 l 1
 332 1 295 1 257 1 c 0
 182 1 100 0 51 0 c 1
 79 146 l 1
 102 150 120 152 135 152 c 2
 152 152 l 1
 346 1152 l 1
 280 1151 302 1150 274 1144 c 1
 302 1298 l 1
 343 1302 343 1302 439 1302 c 0
 485 1302 526 1302 569 1302 c 0
 591 1302 613 1302 636 1302 c 1
 605 1151 l 1
766 1296 m 1
 815 1296 857 1295 896 1295 c 0
 1012 1295 1098 1297 1262 1297 c 1
 1230 1144 l 1
 1182 1144 1194 1145 1144 1145 c 1
 1125 967 1093 765 1069 642 c 0
 1000 288 928 -8 662 -8 c 0
 521 -8 474 107 474 254 c 0
 474 308 480 367 491 426 c 1
 651 425 l 1
 643 372 638 320 638 276 c 0
 638 197 653 142 690 142 c 0
 804 142 838 262 881 482 c 0
 891 536 901 594 914 659 c 0
 932 754 965 1007 980 1144 c 1
 858 1144 851 1144 735 1146 c 1
 766 1296 l 1
EndSplineSet
Validated: 1
EndChar

StartChar: ij
Encoding: 307 307 242
Width: 1060
VWidth: 0
Flags: W
HStem: -387 156<360.741 736.366> -6 137<451.676 631.731> 843 142<241 415.642 716 973.734> 864 156<245.221 416 721.48 978> 1179 225<458 649 1017 1207>
VStem: 283 165<134.249 409.486>
LayerCount: 2
Fore
SplineSet
789 -114 m 1xdc
 978 864 l 1
 972 864 968 864 962 864 c 0
 864 864 810 856 716 835 c 1
 716 977 l 1
 833 1003 944 1019 1048 1019 c 2
 1165 1019 l 1
 944 -118 l 0
 916 -263 831 -387 593 -387 c 3
 470 -387 349 -380 157 -269 c 1
 244 -120 l 1
 377 -225 539 -231 602 -231 c 0
 608 -231 614 -231 619 -231 c 3
 731 -231 780 -149 789 -114 c 1xdc
485 1020 m 2
 605 1020 l 1
 552 747 450 217 450 217 c 1
 448 208 448 200 448 193 c 0
 448 147 479 131 523 131 c 0
 574 131 615 153 647 192 c 1
 710 90 l 1
 649 19 548 -6 480 -6 c 0
 333 -6 283 65 283 155 c 0
 283 174 285 193 289 213 c 2
 416 864 l 1
 404 864 l 0xdc
 362 864 332 863 241 843 c 1
 239 985 l 1xec
 356 1011 381 1020 485 1020 c 2
1017 1404 m 1
 1250 1401 l 1
 1207 1176 l 1
 973 1179 l 1
 1017 1404 l 1
458 1410 m 1
 692 1407 l 1
 649 1182 l 1
 414 1185 l 1
 458 1410 l 1
EndSplineSet
Validated: 1
EndChar

StartChar: Lcaron
Encoding: 317 317 252
Width: 1060
VWidth: 32
Flags: W
HStem: -3 154<331 952.834> 1278 20<389.111 554>
VStem: 633 152<899.793 1021.75>
LayerCount: 2
Fore
SplineSet
894 1241 m 5
 856 1129 830 1020 785 869 c 5
 633 903 l 5
 651 1045 679 1186 700 1289 c 5
 894 1241 l 5
EndSplineSet
Refer: 35 76 N 1 0 0 1 0 0 2
Validated: 1
EndChar

StartChar: lcaron
Encoding: 318 318 253
Width: 1060
VWidth: 32
Flags: W
HStem: -18 142<556.209 910.381> 1424 20<557.325 723>
VStem: 355 161<166.217 556.789> 765 152<1050.79 1172.75>
LayerCount: 2
Fore
SplineSet
1027 1392 m 1
 989 1280 962 1171 917 1020 c 1
 765 1054 l 1
 783 1196 812 1337 833 1440 c 1
 1027 1392 l 1
EndSplineSet
Refer: 12 108 N 1 0 0 1 0 0 2
Validated: 1
EndChar

StartChar: Lslash
Encoding: 321 321 256
Width: 1060
VWidth: 0
Flags: W
HStem: -3 154<428 941.956> 1278 20G<267 428>
VStem: 267 161<151 678 890 1298>
LayerCount: 2
Fore
SplineSet
267 678 m 1
 120 622 l 1
 70 752 l 1
 267 828 l 1
 267 1298 l 1
 428 1298 l 1
 428 890 l 1
 681 988 l 1
 731 857 l 1
 428 740 l 1
 428 151 l 1
 823 151 l 1
 882 154 900 158 944 173 c 1
 985 27 l 1
 938 11 900 -3 825 -3 c 2
 267 -3 l 1
 267 678 l 1
EndSplineSet
Validated: 1
EndChar

StartChar: lslash
Encoding: 322 322 257
Width: 1060
VWidth: -2
Flags: W
HStem: -16 142<528.434 891.467> 1273 155<103.466 356>
VStem: 357 160<135.613 783 994 1273>
LayerCount: 2
Fore
SplineSet
396 1428 m 2
 516 1428 l 1
 516 1337 517 1173 517 994 c 1
 772 1092 l 1
 822 961 l 1
 517 844 l 1
 518 526 519 212 519 212 c 1
 524 130 564 126 656 126 c 0
 749 126 873 147 942 199 c 1
 1010 85 l 1
 924 14 781 -16 657 -16 c 0
 572 -16 496 -2 452 22 c 0
 367 69 359 149 359 208 c 2
 357 783 l 1
 211 726 l 1
 161 857 l 1
 357 932 l 1
 356 1273 l 1
 307 1273 194 1266 99 1244 c 1
 71 1387 l 1
 183 1413 292 1428 396 1428 c 2
EndSplineSet
Validated: 1
EndChar

StartChar: Eng
Encoding: 330 330 264
Width: 1060
VWidth: 0
Flags: W
HStem: -359 155<352 596.271> -3 21G<74 236.896> 1143 153<599.425 872.766> 1296 20G<388.754 451>
VStem: 291 171<1147 1268.25> 931 161<721.598 1086.54>
LayerCount: 2
Fore
SplineSet
792 1296 m 0xec
 1017 1296 1092 1178 1092 1013 c 0
 1092 965 1085 914 1075 860 c 0
 1030 629 990 400 944 165 c 2
 937 131 l 2
 887 -125 792 -359 356 -359 c 2
 322 -359 l 1
 352 -204 l 1
 699 -198 745 -58 777 106 c 2
 922 852 l 2
 928 883 931 912 931 939 c 0
 931 1069 863 1143 764 1143 c 0xec
 570 1143 461 984 412 916 c 1
 233 -3 l 1
 74 -3 l 1
 281 1059 l 2
 288 1097 291 1132 291 1162 c 0
 291 1221 281 1259 281 1259 c 1
 447 1316 l 1xdc
 455 1287 462 1263 462 1221 c 0
 462 1206 461 1189 459 1168 c 1
 539 1270 656 1296 792 1296 c 0xec
EndSplineSet
Validated: 1
EndChar

StartChar: eng
Encoding: 331 331 265
Width: 1060
VWidth: 6
Flags: W
HStem: -368 156<388 577.068> -1 21G<116.881 271> 872 150<569.767 830.653> 1020 20G<352.73 445>
VStem: 280 172<808.484 1005.35> 848 167<724.927 849.182>
LayerCount: 2
Fore
SplineSet
451 927 m 1xdc
 590 993 656 1022 766 1022 c 0
 877 1022 1015 957 1015 832 c 0
 1015 821 1013 808 1011 796 c 2
 897 211 l 2
 839 -88 782 -368 364 -368 c 2
 360 -368 l 1
 388 -212 l 2
 389 -212 390 -212 391 -212 c 0
 622 -212 675 -114 726 149 c 0
 766 354 806 560 846 765 c 0
 847 771 848 777 848 782 c 0
 848 844 776 872 714 872 c 0xec
 651 872 579 830 420 760 c 1
 271 0 l 1
 113 -1 l 1
 250 705 l 2
 273 823 280 875 280 923 c 0
 280 948 278 971 276 1003 c 1
 443 1040 l 1
 447 1020 452 990 452 953 c 0
 452 945 452 936 451 927 c 1xdc
EndSplineSet
Validated: 1
EndChar

StartChar: Scedilla
Encoding: 350 350 282
Width: 1060
VWidth: 32
Flags: W
HStem: -406 125<288.312 504.869> 1 141<352.065 391 527.577 716.016> 1148 154<524.685 956.998>
VStem: 79 162<237.58 319> 257 171<864.58 1065.2> 512 138<-269.877 -172.195> 868 164<277.396 547.404>
LayerCount: 2
Fore
SplineSet
241 358 m 1
 241 238 347 142 536 142 c 0
 749 142 868 277 868 429 c 0
 868 508 825 561 765 589 c 0
 659 639 506 649 385 709 c 1
 315 745 257 815 257 923 c 0
 257 1187 500 1302 723 1302 c 0
 931 1302 1072 1257 1141 1204 c 1
 1042 1051 l 1
 985 1102 883 1148 698 1148 c 0
 554 1148 428 1072 428 959 c 0
 428 900 455 869 498 847 c 0
 604 791 761 792 881 732 c 1
 963 688 1032 599 1032 468 c 0
 1032 137 780 -3 535 -9 c 1
 530 -31 523 -65 523 -67 c 1
 604 -71 650 -116 650 -193 c 0
 650 -207 648 -222 645 -238 c 0
 625 -339 512 -406 428 -406 c 0
 362 -406 295 -381 246 -345 c 1
 305 -239 l 1
 335 -257 370 -281 421 -281 c 0
 457 -281 502 -261 512 -223 c 1
 512 -221 l 2
 512 -219 513 -216 513 -214 c 0
 513 -188 481 -167 437 -167 c 0
 389 -167 386 -174 356 -184 c 1
 391 1 l 1
 176 39 79 170 79 319 c 1
 241 358 l 1
EndSplineSet
Validated: 1
EndChar

StartChar: scedilla
Encoding: 351 351 283
Width: 1060
VWidth: 32
Flags: W
HStem: -411 125<258.312 474.869> -20 143<498.718 697.89> 882 148<549.926 968.742>
VStem: 146 160<188.929 328.704> 342 168<694.631 841.832> 482 138<-274.877 -177.195> 790 172<199.846 372.533>
LayerCount: 2
Fore
SplineSet
442 574 m 0xf6
 376 622 342 685 342 756 c 0
 342 773 344 790 348 808 c 0
 380 955 507 1030 715 1030 c 0
 851 1030 960 1013 1059 972 c 1
 1001 823 l 1
 932 860 826 882 701 882 c 0
 571 882 510 821 510 766 c 0xfa
 510 744 519 724 538 708 c 0
 717 558 962 499 962 306 c 0
 962 290 960 273 957 256 c 0
 914 37 724 -19 504 -20 c 1
 499 -41 494 -70 493 -72 c 1
 574 -76 620 -121 620 -198 c 0
 620 -212 618 -227 615 -243 c 0
 595 -344 482 -411 398 -411 c 0
 332 -411 265 -386 216 -350 c 1
 275 -244 l 1
 305 -262 340 -286 391 -286 c 0
 427 -286 472 -266 482 -228 c 1
 482 -226 l 2
 482 -224 483 -221 483 -219 c 0
 483 -193 451 -172 407 -172 c 0
 359 -172 356 -179 326 -189 c 1
 362 -1 l 1
 364 -1 l 1
 236 37 146 132 146 267 c 0
 146 287 148 308 152 330 c 1
 309 329 l 1
 307 317 306 306 306 295 c 0
 306 183 420 123 523 123 c 0
 646 123 768 172 789 282 c 0
 790 286 790 291 790 295 c 0
 790 391 583 471 442 574 c 0xf6
EndSplineSet
Validated: 1
EndChar

StartChar: Tcommaaccent
Encoding: 354 354 286
Width: 1060
VWidth: 32
Flags: W
HStem: -367 125<363.445 568.66> 1167 158<39 403 563 909.955>
VStem: 403 160<-34.4613 1167> 572 136<-235.217 -136.936>
LayerCount: 2
Fore
SplineSet
403 -9 m 1
 403 1167 l 1
 205 1167 115 1166 39 1166 c 1
 39 1324 l 1
 161 1324 615 1325 803 1325 c 0
 876 1325 925 1313 943 1310 c 1
 910 1155 l 1
 910 1155 848 1167 798 1167 c 2
 563 1167 l 1
 563 -28 l 1
 660 -33 708 -95 708 -199 c 0
 708 -300 608 -367 524 -367 c 0
 458 -367 386 -342 330 -306 c 1
 368 -200 l 1
 401 -218 441 -242 492 -242 c 0
 528 -242 569 -222 572 -184 c 1
 572 -182 l 2
 572 -153 534 -128 486 -128 c 0
 438 -128 436 -135 408 -145 c 1
 408 -114 l 1
 405 -81 404 -41 403 -9 c 1
EndSplineSet
Validated: 1
EndChar

StartChar: tcommaaccent
Encoding: 355 355 287
Width: 1060
VWidth: 32
Flags: W
HStem: -377 125<437.445 642.66> -138 287<483.294 626.524> 872 145<132 160>
VStem: 162 159<209.621 865 1017 1245> 482 145<-44.4613 -1.16919> 646 136<-245.217 -146.936>
LayerCount: 2
Fore
SplineSet
321 437 m 1
 321 397 l 2
 321 264 357 163 468 152 c 0
 486 150 563 149 576 149 c 0
 641 149 705 159 730 173 c 0
 787 203 805 258 812 277 c 1
 938 221 l 1
 928 193 905 102 793 37 c 0
 747 10 691 -1 627 -5 c 1
 627 -38 l 1
 724 -43 782 -105 782 -209 c 0
 782 -310 682 -377 598 -377 c 0
 532 -377 460 -352 404 -316 c 1
 442 -210 l 1
 475 -228 515 -252 566 -252 c 0
 602 -252 643 -232 646 -194 c 1
 646 -192 l 2
 646 -163 608 -138 560 -138 c 0
 512 -138 510 -145 482 -155 c 1
 482 -104 482 -54 482 -3 c 1
 351 5 259 40 201 161 c 0
 166 233 162 308 162 394 c 2
 162 437 l 1
 166 541 168 672 174 865 c 1
 160 865 l 2
 132 865 104 861 78 854 c 1
 58 1000 l 1
 82 1009 127 1012 160 1012 c 2
 175 1012 l 1
 175 1082 176 1176 176 1246 c 1
 334 1245 l 1
 334 1179 333 1085 332 1017 c 1
 454 1017 l 1
 599 1018 753 1019 753 1019 c 1
 771 1019 l 1
 771 872 l 1
 454 872 l 2
 408 872 381 869 335 869 c 1
 326 665 325 537 321 437 c 1
EndSplineSet
Validated: 1
EndChar

StartChar: tcaron
Encoding: 357 357 289
Width: 1060
VWidth: 32
Flags: W
HStem: -6 155<494.13 810.479> 865 147<216.015 217 218.267 380 662 978> 999 20<989 1003.05>
VStem: 273 162<206.068 583.06> 602 152<1127.79 1249.75>
LayerCount: 2
Fore
SplineSet
863 1469 m 1x98
 825 1357 799 1248 754 1097 c 1
 602 1131 l 1
 620 1273 648 1414 669 1517 c 1
 863 1469 l 1x98
EndSplineSet
Refer: 19 116 N 1 0 0 1 0 0 2
Validated: 1
EndChar

StartChar: Tbar
Encoding: 358 358 290
Width: 1060
VWidth: 0
Flags: W
HStem: -9 21G<403 563> 577 158<161 403 563 816> 1144 155<39 403 563 909.955>
VStem: 403 160<-9 577 735 1144>
LayerCount: 2
Fore
SplineSet
403 577 m 1
 161 577 l 1
 161 735 l 1
 403 735 l 1
 403 1144 l 1
 205 1144 115 1143 39 1143 c 1
 39 1298 l 1
 161 1298 615 1299 803 1299 c 0
 876 1299 925 1287 943 1284 c 1
 910 1132 l 1
 910 1132 848 1144 798 1144 c 2
 563 1144 l 1
 563 735 l 1
 816 735 l 1
 816 577 l 1
 563 577 l 1
 563 -9 l 1
 403 -9 l 1
 403 577 l 1
EndSplineSet
Validated: 1
EndChar

StartChar: tbar
Encoding: 359 359 291
Width: 1060
VWidth: 0
Flags: W
HStem: -6 155<425.71 800.905> 504 158<28 206 369 638> 872 145<174 202>
VStem: 204 159<209.621 504 662 865 1017 1245>
LayerCount: 2
Fore
SplineSet
363 437 m 2
 363 397 l 2
 363 264 399 163 510 152 c 0
 528 150 605 149 618 149 c 0
 683 149 747 159 772 173 c 0
 829 203 847 258 854 277 c 1
 980 221 l 1
 970 193 947 102 835 37 c 0
 777 3 705 -6 620 -6 c 0
 436 -6 314 13 243 161 c 0
 208 233 204 308 204 394 c 2
 204 437 l 2
 205 458 205 480 206 504 c 1
 28 504 l 1
 28 662 l 1
 210 662 l 1
 211 721 214 788 216 865 c 1
 202 865 l 2
 174 865 146 861 120 854 c 1
 100 1000 l 1
 124 1009 169 1012 202 1012 c 2
 217 1012 l 1
 217 1082 218 1176 218 1246 c 1
 376 1245 l 1
 376 1179 375 1085 374 1017 c 1
 496 1017 l 1
 641 1018 795 1019 795 1019 c 1
 813 1019 l 1
 813 872 l 1
 496 872 l 2
 450 872 423 869 377 869 c 1
 373 790 371 721 369 662 c 1
 638 662 l 1
 638 504 l 1
 365 504 l 1
 364 480 364 458 363 437 c 2
EndSplineSet
Validated: 1
EndChar

StartChar: Uogonek
Encoding: 370 370 302
Width: 1060
VWidth: 32
Flags: W
HStem: -455 145<557.602 794.542> -10 151<332.561 511.917> 1293 9G<67 228 772 934>
VStem: 61 159<276.83 1302> 390 155<-293.478 -100.947> 769 158<290.259 1300.64>
LayerCount: 2
Fore
SplineSet
777 1313 m 1
 934 1300 l 1
 925 1240 925 1197 925 1143 c 0
 925 998 927 871 927 760 c 2
 927 702 l 2
 927 470 923 248 811 119 c 1
 713 0 545 -72 545 -227 c 0
 545 -283 601 -310 665 -310 c 0
 723 -310 764 -277 794 -255 c 1
 872 -362 l 1
 828 -410 740 -455 661 -455 c 0
 473 -455 390 -362 390 -227 c 0
 390 -125 444 -79 515 -9 c 1
 508 -9 500 -10 492 -10 c 0
 184 -10 86 156 68 447 c 0
 63 522 61 644 61 779 c 0
 61 951 64 1144 70 1302 c 1
 228 1302 l 1
 224 1137 220 913 220 728 c 0
 220 605 222 499 227 439 c 0
 245 229 327 141 479 141 c 1
 585 146 637 169 691 225 c 1
 758 299 769 505 769 702 c 0
 769 825 764 971 764 1141 c 0
 764 1212 767 1251 777 1313 c 1
EndSplineSet
Validated: 1
EndChar

StartChar: uogonek
Encoding: 371 371 303
Width: 1060
VWidth: 32
Flags: W
HStem: -444 145<628.602 865.542> 2 154<320.683 585.04> 1001 19G<132.481 262 739.97 898>
VStem: 114 156<180.892 701.424> 461 155<-282.478 -146.307> 739 158<276.783 1020>
LayerCount: 2
Fore
SplineSet
984 82 m 5
 756 -114 616 -128 616 -216 c 0
 616 -272 672 -299 736 -299 c 0
 794 -299 835 -266 865 -244 c 1
 943 -351 l 1
 899 -399 811 -444 732 -444 c 0
 544 -444 461 -351 461 -216 c 0
 461 -70 648 -19 804 86 c 1
 792 102 782 124 773 158 c 1
 689 72 592 5 442 2 c 1
 433 2 l 2
 371 2 286 3 226 44 c 0
 181 75 114 132 114 214 c 0
 111 482 118 911 91 994 c 1
 251 1021 l 1
 273 929 268 616 270 250 c 1
 276 216 298 190 320 174 c 0
 334 164 385 156 426 156 c 1
 493 159 534 167 585 198 c 0
 632 226 701 256 739 344 c 1
 740 1020 l 1
 898 1020 l 1
 897 239 l 1
 899 187 944 114 984 82 c 5
EndSplineSet
Validated: 1
EndChar

StartChar: zdotaccent
Encoding: 380 380 312
Width: 1060
VWidth: 32
Flags: W
HStem: -5 164<503.625 823.656> 61 154<388 578.186> 863 157<384.315 933> 1178 225<423 658>
VStem: 423 235<1178 1403> 868 150<205.002 274.676>
LayerCount: 2
Fore
SplineSet
423 1403 m 1x3c
 658 1403 l 1
 658 1178 l 1
 423 1178 l 1
 423 1403 l 1x3c
EndSplineSet
Refer: 25 122 N 1 0 0 1 0 0 3
Validated: 1
EndChar

StartChar: longs
Encoding: 383 383 315
Width: 1060
VWidth: -2
Flags: W
HStem: 0 21G<376 532.5> 859 153<345 539> 1266 152<806.44 1112.82>
LayerCount: 2
Fore
SplineSet
1111 1256 m 1
 1071 1264 1003 1266 932 1266 c 0
 784 1266 757 1168 736 1060 c 2
 727 1013 l 1
 697 859 533 4 532 0 c 1
 376 0 l 1
 381 25 512 712 539 859 c 1
 315 859 l 1
 345 1012 l 1
 571 1012 l 1
 574 1028 575 1045 579 1064 c 0
 607 1207 676 1418 954 1418 c 0
 1030 1418 1111 1415 1169 1404 c 1
 1111 1256 l 1
EndSplineSet
Validated: 1
EndChar

StartChar: Euro
Encoding: 8364 8364 316
Width: 1060
VWidth: 0
Flags: W
HStem: -31 155<455.909 718.308> 431 152<64 160 326 647> 676 151<61 161 331 732> 1180 163<481.603 722.464>
VStem: 160 152<315.292 431 584 676> 177 154<829 979.375>
LayerCount: 2
Fore
SplineSet
783 833 m 1xf4
 732 682 l 1
 720 682 l 0
 663 680 632 676 556 676 c 0
 499 676 414 676 314 676 c 1
 313 653 312 631 312 609 c 0
 312 601 312 593 312 584 c 1
 342 583 360 583 398 583 c 0
 484 583 584 584 673 585 c 0
 699 585 l 1
 647 435 l 1
 326 431 l 1
 353 253 451 124 567 124 c 1
 586 124 l 2
 685 124 765 181 813 287 c 1
 944 200 l 1
 870 26 720 -31 581 -31 c 0
 502 -31 382 3 298 113 c 0
 232 198 188 309 169 432 c 1
 140 433 116 433 91 433 c 0
 72 433 53 433 28 432 c 1
 4 431 l 1
 10 456 l 0
 18 493 41 525 60 572 c 0
 64 583 l 1
 75 583 l 0
 117 584 141 584 160 584 c 1
 160 601 160 617 160 632 c 0xf8
 160 647 160 662 161 676 c 1
 98 677 55 677 26 679 c 0
 1 681 l 1
 11 707 l 1
 28 753 48 790 61 821 c 0
 66 833 l 1
 78 832 l 0
 95 831 131 830 177 829 c 1
 196 942 225 1026 259 1102 c 0
 341 1281 499 1343 598 1343 c 0
 706 1343 811 1287 903 1184 c 1
 838 999 l 1
 784 1102 696 1180 595 1180 c 0
 463 1180 368 1023 331 827 c 1
 374 827 399 827 440 827 c 0
 522 827 594 827 628 827 c 1
 680 829 715 831 757 832 c 0
 783 833 l 1xf4
EndSplineSet
Validated: 1
EndChar

StartChar: uniE000
Encoding: 57344 57344 317
Width: 1060
VWidth: 6
Flags: W
HStem: 390 154<418.981 573.371> 486 158<208.671 369.117>
VStem: 67 635
LayerCount: 2
Fore
SplineSet
76 491 m 2x60
 135 603 198 644 262 644 c 0x60
 366 644 461 544 519 544 c 0
 542 544 566 560 589 624 c 0
 598 650 l 1
 702 546 l 1
 695 532 l 0
 640 430 580 390 519 390 c 0xa0
 415 390 327 486 269 486 c 0
 242 486 219 475 194 409 c 0
 186 387 l 1
 67 475 l 1
 76 491 l 2x60
EndSplineSet
Validated: 1
EndChar

StartChar: uniE001
Encoding: 57345 57345 318
Width: 1060
VWidth: 6
Flags: W
HStem: -312 150<347.529 575.23> -11 152<370.059 490.911> 513 151<403.205 550.976> 894 150<395.333 532.135> 1191 152<345.927 566.731>
VStem: 23 123<166.673 870.319> 219 129<151.289 456.948> 565 117<224.252 496.71> 774 114<148.623 863.075>
LayerCount: 2
Fore
SplineSet
406 -11 m 1
 275 -5 219 154 219 299 c 0
 219 300 219 302 219 303 c 1
 219 380 236 461 271 524 c 1
 329 628 403 661 472 664 c 0
 475 664 477 664 480 664 c 0
 516 664 545 652 564 641 c 1
 555 806 546 894 462 894 c 0
 403 894 396 860 340 727 c 0
 332 709 l 1
 228 770 l 1
 234 787 l 0
 289 963 364 1041 462 1044 c 1
 503 1044 561 1025 602 967 c 1
 644 907 682 805 682 663 c 0
 682 229 l 1
 685 155 690 157 709 133 c 1
 710 131 714 128 717 126 c 1
 727 132 733 149 739 169 c 0
 771 267 774 386 774 515 c 0
 774 900 635 1191 456 1191 c 0
 278 1191 146 901 146 515 c 0
 146 129 286 -162 456 -162 c 0
 516 -162 574 -129 624 -72 c 0
 636 -57 l 1
 713 -153 l 1
 702 -166 l 0
 639 -239 542 -312 456 -312 c 0
 209 -312 23 68 23 515 c 0
 23 962 209 1343 456 1343 c 0
 703 1343 888 962 888 515 c 0
 888 364 866 222 830 98 c 1
 821 71 789 -26 722 -26 c 0
 721 -26 720 -26 719 -26 c 0
 717 -26 l 1
 716 -25 l 0
 697 -20 668 -9 648 16 c 0
 647 16 l 0
 635 34 609 59 596 110 c 1
 573 80 553 65 524 38 c 1
 492 11 451 -11 406 -11 c 1
405 141 m 0
 431 141 459 155 476 170 c 1
 541 229 554 299 565 334 c 1
 565 367 564 433 564 452 c 1
 533 495 503 513 472 513 c 0
 471 513 470 513 469 513 c 0
 414 511 348 415 348 310 c 0
 348 308 348 307 348 305 c 1
 351 201 382 141 405 141 c 0
EndSplineSet
Validated: 1
EndChar

StartChar: uniE002
Encoding: 57346 57346 319
Width: 1060
VWidth: 6
Flags: W
HStem: -310 150<414.529 642.23> -9 153<491.048 609.012> 702 152<500.409 649.08> 1198 153<409.668 608.797>
VStem: 90 123<169.451 874.351> 315 129<193.676 639.402> 683 117<227.653 665.965>
LayerCount: 2
Fore
SplineSet
800 703 m 0
 800 703 800 678 800 666 c 0
 800 231 l 1
 803 159 822 126 854 98 c 0
 871 83 l 1
 776 4 l 1
 765 20 l 1
 752 39 727 63 714 113 c 1
 691 83 671 68 642 41 c 1
 610 14 570 -9 524 -9 c 1
 389 -2 315 233 315 378 c 0
 315 379 315 380 315 381 c 1
 315 393 315 407 315 422 c 0
 315 496 319 600 368 711 c 0
 418 823 503 851 571 854 c 0
 573 854 575 854 577 854 c 0
 620 854 658 835 680 821 c 1
 678 854 677 882 675 903 c 0
 666 1031 655 1198 509 1198 c 0
 352 1198 213 905 213 518 c 0
 213 132 353 -160 523 -160 c 0
 583 -160 641 -126 691 -69 c 0
 703 -54 l 1
 779 -150 l 1
 769 -163 l 0
 706 -236 609 -310 523 -310 c 0
 276 -310 90 71 90 518 c 0
 90 964 262 1351 509 1351 c 0
 774 1351 800 996 800 703 c 0
524 144 m 0
 550 144 577 158 594 173 c 1
 659 232 672 301 683 336 c 1
 683 621 l 1
 651 665 596 702 567 702 c 0
 467 702 444 498 444 375 c 0
 444 370 444 365 444 360 c 1
 447 256 503 144 524 144 c 0
EndSplineSet
Validated: 1
EndChar

StartChar: gravecomb
Encoding: 768 768 320
Width: 1060
VWidth: -43
Flags: HW
HStem: 1280 555
VStem: 549 519
LayerCount: 2
Fore
SplineSet
1068 1403 m 1
 961 1280 l 1
 837 1366 648 1566 574 1706 c 1
 734 1810 l 1
 814 1674 944 1489 1068 1403 c 1
EndSplineSet
Validated: 1
EndChar

StartChar: acutecomb
Encoding: 769 769 321
Width: 1060
VWidth: -43
Flags: HW
HStem: 1280 150<557.979 604.467>
VStem: 501 596
LayerCount: 2
Fore
SplineSet
501 1430 m 1
 646 1473 878 1637 997 1741 c 1
 1114 1591 l 1
 999 1483 709 1322 564 1280 c 1
 501 1430 l 1
EndSplineSet
Validated: 1
EndChar

StartChar: uni0302
Encoding: 770 770 322
Width: 1060
VWidth: -10
Flags: HW
HStem: 1265 435
LayerCount: 2
Fore
SplineSet
868 1699 m 1
 1161 1372 l 1
 1044 1270 l 1
 840 1501 l 1
 501 1265 l 1
 414 1387 l 1
 868 1699 l 1
EndSplineSet
Validated: 1
EndChar

StartChar: tildecomb
Encoding: 771 771 323
Width: 1060
VWidth: -12
Flags: HW
HStem: 1412 153<847.147 1055.19> 1533 153<527.177 751.849>
LayerCount: 2
Fore
SplineSet
674 1694 m 0x40
 810 1694 851 1565 941 1565 c 0
 1026 1565 1082 1604 1113 1692 c 1
 1266 1634 l 1
 1210 1514 1100 1412 948 1412 c 0x80
 786 1412 756 1541 672 1541 c 0
 594 1541 538 1512 480 1406 c 1
 330 1481 l 1
 436 1645 540 1694 674 1694 c 0x40
EndSplineSet
Validated: 1
EndChar

StartChar: uni0304
Encoding: 772 772 324
Width: 1060
VWidth: -34
Flags: W
HStem: 1473 152<570.946 996>
VStem: 543 483
LayerCount: 2
Fore
SplineSet
1026 1625 m 1
 996 1473 l 1
 979 1473 l 0
 921 1471 851 1471 777 1471 c 0
 703 1471 628 1471 560 1473 c 0
 543 1474 l 1
 573 1629 l 1
 591 1627 l 0
 656 1625 753 1625 845 1625 c 0
 906 1625 964 1625 1009 1625 c 0
 1026 1625 l 1
EndSplineSet
Validated: 1
EndChar

StartChar: uni0305
Encoding: 773 773 325
Width: 1060
VWidth: -34
Flags: W
HStem: 1473 155<403 1147>
LayerCount: 2
Fore
SplineSet
1177 1625 m 1
 1147 1473 l 1
 373 1473 l 1
 403 1628 l 1
 1177 1625 l 1
EndSplineSet
Validated: 1
EndChar

StartChar: uni0306
Encoding: 774 774 326
Width: 1060
VWidth: -12
Flags: HW
HStem: 1357 153<672.836 949.225>
VStem: 471 162<1553.67 1630>
LayerCount: 2
Fore
SplineSet
804 1510 m 0
 912 1510 1015 1584 1036 1662 c 1
 1196 1632 l 1
 1138 1455 977 1357 774 1357 c 1
 648 1357 473 1421 469 1646 c 1
 633 1660 l 1
 637 1543 711 1510 804 1510 c 0
EndSplineSet
Validated: 1
EndChar

StartChar: uni0308
Encoding: 776 776 327
Width: 1060
VWidth: -28
Flags: W
HStem: 1413 225<496 687 901 1092>
LayerCount: 2
Fore
SplineSet
901 1638 m 1
 1136 1635 l 1
 1092 1410 l 1
 858 1413 l 1
 901 1638 l 1
496 1641 m 1
 730 1638 l 1
 687 1413 l 1
 452 1416 l 1
 496 1641 l 1
EndSplineSet
Validated: 1
EndChar

StartChar: uni0307
Encoding: 775 775 328
Width: 1060
VWidth: -28
Flags: W
HStem: 1426 225<655 847>
VStem: 611 279
LayerCount: 2
Fore
SplineSet
655 1651 m 5
 890 1648 l 5
 847 1423 l 5
 611 1426 l 5
 655 1651 l 5
EndSplineSet
Validated: 1
EndChar

StartChar: uni030A
Encoding: 778 778 329
Width: 1060
VWidth: -8
Flags: W
HStem: 1286 116<719.048 883.064> 1543 125<727.606 894.993>
VStem: 575 140<1407.93 1526.94> 898 141<1419.43 1535.86>
LayerCount: 2
Fore
SplineSet
820 1543 m 4
 765 1543 723 1508 716 1473 c 4
 715 1470 715 1466 715 1463 c 0
 715 1432 744 1402 793 1402 c 4
 847 1402 890 1438 897 1473 c 4
 898 1476 898 1480 898 1483 c 0
 898 1514 870 1543 820 1543 c 4
578 1473 m 4
 600 1584 722 1668 845 1668 c 4
 955 1668 1039 1600 1039 1506 c 0
 1039 1495 1038 1484 1036 1473 c 4
 1015 1363 904 1286 771 1286 c 4
 657 1286 575 1349 575 1441 c 0
 575 1451 576 1462 578 1473 c 4
EndSplineSet
Validated: 1
EndChar

StartChar: uni0237
Encoding: 567 567 330
Width: 1060
VWidth: 0
Flags: HW
HStem: -387 156<285.666 552.366> 892 149<579.147 778.68>
VStem: 785 156<571.234 890.213>
LayerCount: 2
Fore
SplineSet
934 748 m 2
 760 -118 l 0
 732 -263 647 -387 409 -387 c 3
 286 -387 146 -365 60 -160 c 1
 205 -62 l 1
 273 -224 355 -231 418 -231 c 0
 424 -231 430 -231 435 -231 c 3
 547 -231 596 -149 605 -114 c 1
 781 762 l 2
 783 774 785 790 785 807 c 0
 785 847 774 891 731 892 c 0
 728 892 l 0
 679 892 614 891 494 781 c 1
 397 914 l 1
 532 1003 598 1041 733 1041 c 0
 909 1041 941 943 941 835 c 0
 941 810 939 772 934 748 c 2
EndSplineSet
Validated: 1
EndChar

StartChar: uni030B
Encoding: 779 779 331
Width: 1060
VWidth: -43
Flags: HW
HStem: 1158 517
LayerCount: 2
Fore
SplineSet
692 1273 m 1
 809 1368 974 1572 1044 1713 c 1
 1197 1613 l 1
 1132 1469 925 1252 808 1158 c 1
 692 1273 l 1
357 1280 m 1
 473 1375 638 1579 707 1720 c 1
 862 1621 l 1
 797 1477 588 1259 470 1165 c 1
 357 1280 l 1
EndSplineSet
Validated: 1
EndChar

StartChar: uni030C
Encoding: 780 780 332
Width: 1060
VWidth: -10
Flags: HWO
HStem: 1265 435
LayerCount: 2
Fore
SplineSet
760 1220 m 1
 462 1543 l 1
 576 1646 l 1
 784 1419 l 1
 1120 1660 l 1
 1208 1539 l 1
 760 1220 l 1
EndSplineSet
Validated: 1
EndChar

StartChar: uni030F
Encoding: 783 783 333
Width: 1060
VWidth: -43
Flags: HW
HStem: 1162 563
VStem: 674.957 180<1537.87 1619.61> 1005.96 180<1569.17 1648.61>
LayerCount: 2
Fore
SplineSet
1137 1246 m 1
 994 1168 l 1
 908 1291 803 1490 781 1646 c 1
 958 1696 l 1
 984 1541 1052 1370 1137 1246 c 1
813 1240 m 1
 671 1162 l 1
 585 1286 480 1484 459 1640 c 1
 635 1690 l 1
 662 1535 729 1365 813 1240 c 1
EndSplineSet
Validated: 1
EndChar

StartChar: hookabovecomb
Encoding: 777 777 334
Width: 1060
VWidth: 12
Flags: W
HStem: 953 175<704.2 817.591> 1242 125<686.689 873.034>
VStem: 666 145<957 1029.84> 874 142<1140.95 1235.88>
LayerCount: 2
Fore
SplineSet
811 953 m 5
 666 957 l 5
 703 1145 l 5
 729 1135 729 1128 777 1128 c 4
 825 1128 868 1153 874 1182 c 6
 874 1184 l 5
 874 1186 874 1188 874 1190 c 0
 874 1224 839 1242 805 1242 c 4
 754 1242 709 1218 673 1200 c 5
 656 1306 l 5
 719 1342 796 1367 862 1367 c 4
 938 1367 1016 1313 1016 1228 c 0
 1016 1219 1015 1209 1013 1199 c 4
 993 1095 923 1033 825 1028 c 5
 824 1025 812 961 811 953 c 5
EndSplineSet
Validated: 1
EndChar

StartChar: uni030D
Encoding: 781 781 335
Width: 1060
VWidth: -34
Flags: W
HStem: 1280 348<739 831>
VStem: 672 227
LayerCount: 2
Fore
SplineSet
739 1628 m 1
 899 1628 l 1
 831 1280 l 1
 672 1280 l 1
 739 1628 l 1
EndSplineSet
Validated: 1
EndChar

StartChar: uni0191
Encoding: 401 401 337
Width: 1060
VWidth: 0
Flags: W
HStem: -245 165<1 128.565> 668 150<514 836.348> 1145 153<577 1119.92>
LayerCount: 2
Fore
SplineSet
1 -80 m 1
 100 -80 200 -1 219 98 c 1
 452 1299 l 1
 1053 1298 l 1
 1129 1295 1175 1280 1206 1263 c 1
 1121 1117 l 1
 1098 1131 1079 1144 981 1145 c 1
 911 1145 l 2
 807 1145 760 1145 577 1144 c 1
 514 816 l 1
 634 816 618 818 740 818 c 0
 828 818 884 804 885 804 c 2
 902 799 l 1
 838 654 l 1
 803 663 753 668 708 668 c 0
 666 668 639 668 615 668 c 0
 579 668 549 668 484 666 c 1
 460 545 396 184 378 91 c 0
 341 -101 164 -237 -23 -245 c 1
 1 -80 l 1
EndSplineSet
Validated: 1
EndChar

StartChar: florin
Encoding: 402 402 338
Width: 1060
VWidth: -2
Flags: W
HStem: -313 147<67 233> 859 153<381 493 680 978.063> 1266 152<760.667 1066.82>
LayerCount: 2
Fore
SplineSet
360 152 m 0
 365 177 466 712 493 859 c 1
 351 859 l 1
 381 1012 l 1
 525 1012 l 1
 528 1028 529 1045 533 1064 c 0
 561 1207 631 1418 908 1418 c 0
 1069 1418 1197 1392 1249 1225 c 1
 1108 1148 l 1
 1077 1246 1018 1266 886 1266 c 0
 739 1266 710 1168 689 1060 c 2
 680 1013 l 1
 748 1013 807 1012 880 1012 c 1
 983 1009 1009 1001 1037 992 c 1
 979 846 l 1
 959 853 940 859 884 859 c 2
 650 859 l 1
 621 705 519 156 518 152 c 0
 468 -105 356 -313 26 -313 c 0
 67 -166 l 0
 240 -166 312 -93 360 152 c 0
EndSplineSet
Validated: 1
EndChar

StartChar: alpha
Encoding: 945 945 339
Width: 1060
VWidth: 4
Flags: W
HStem: -7 157<376.414 563.19> 865 153<488.144 683.511> 1014 20G<1014 1078.71>
VStem: 154 162<207.976 626.422>
LayerCount: 2
Fore
SplineSet
332 527 m 0xd0
 321 468 316 418 316 376 c 0
 316 155 451 150 466 150 c 2
 479 150 l 2
 564 150 657 298 759 494 c 1
 734 745 709 865 592 865 c 0
 514 865 378 766 332 527 c 0xd0
919 493 m 1
 928 416 937 329 950 232 c 0
 958 174 974 134 1035 108 c 1
 940 -32 l 1
 818 0 797 120 791 180 c 0
 788 203 786 226 783 248 c 1
 689 100 584 -7 453 -7 c 0
 231 -7 154 151 154 346 c 0
 154 404 161 465 173 527 c 0
 244 894 458 1018 633 1018 c 0xd0
 798 1018 851 940 885 743 c 1
 935 842 987 941 1041 1034 c 1xb0
 1173 964 l 1
 1084 838 1004 661 919 493 c 1
EndSplineSet
Validated: 1
EndChar

StartChar: beta
Encoding: 946 946 340
Width: 1060
VWidth: 0
Flags: W
HStem: 0 153<428.315 755.413> 669 153<453 713.989> 1176 152<509.778 766.146>
VStem: 21 148<-284.647 -119.049> 800 159<908.003 1139.68> 875 155<292.56 590.413>
LayerCount: 2
Fore
SplineSet
629 153 m 0xf8
 751 153 841 261 867 395 c 0
 872 422 875 446 875 468 c 0xf4
 875 659 681 669 423 669 c 1
 453 822 l 1
 618 822 760 822 796 1005 c 0
 799 1020 800 1034 800 1047 c 0
 800 1132 738 1176 619 1176 c 1
 523 1175 443 1083 426 993 c 0
 407 893 354 609 308 367 c 1
 371 192 460 153 629 153 c 0xf8
260 112 m 1
 254 83 250 59 246 39 c 0
 222 -85 196 -203 169 -300 c 1
 21 -283 l 1
 50 -183 74 -74 96 37 c 0
 132 224 241 829 275 1003 c 0
 305 1159 449 1328 648 1328 c 0
 827 1328 959 1255 959 1086 c 0xf8
 959 1063 956 1038 951 1011 c 0
 931 909 887 832 821 779 c 1
 957 739 1030 645 1030 494 c 0
 1030 459 1026 422 1018 381 c 0
 977 171 851 2 599 0 c 0
 597 0 594 0 592 0 c 0
 438 0 336 39 260 112 c 1
EndSplineSet
Validated: 1
EndChar

StartChar: gamma
Encoding: 947 947 341
Width: 1060
VWidth: 14
Flags: W
HStem: 1021 20G<218.209 238.5 1005.7 1067.07>
LayerCount: 2
Fore
SplineSet
418 -376 m 1
 438 -272 483 -26 483 60 c 0
 483 63 483 66 483 68 c 0
 474 315 395 627 332 784 c 0
 308 843 278 873 267 880 c 0
 254 889 233 889 208 889 c 0
 203 889 198 888 193 888 c 1
 222 1041 l 1
 255 1041 294 1040 321 1036 c 0
 382 1026 423 976 465 883 c 0
 532 731 587 488 618 287 c 1
 734 504 1016 1060 1016 1060 c 1
 1159 1004 l 1
 1159 1004 814 388 646 16 c 1
 636 -66 617 -174 594 -290 c 0
 588 -319 583 -349 577 -378 c 1
 418 -376 l 1
EndSplineSet
Validated: 1
EndChar

StartChar: delta
Encoding: 948 948 342
Width: 1060
VWidth: 6
Flags: W
HStem: 1 155<376.229 670.527> 1227 152<543.333 978.514>
VStem: 148 162<223.806 574.924> 331 163<1050.01 1178.37> 847 161<370.715 666.034>
LayerCount: 2
Fore
SplineSet
1000 504 m 0
 949 244 806 1 484 1 c 2
 482 1 l 1
 257 2 148 127 148 329 c 0
 148 371 153 416 162 464 c 0
 199 655 289 804 488 879 c 1
 447 901 411 921 388 942 c 0
 356 972 331 1014 331 1070 c 0
 331 1083 332 1096 335 1110 c 0
 339 1129 346 1149 355 1171 c 0
 426 1330 575 1379 740 1379 c 0
 864 1379 998 1351 1113 1322 c 1
 1044 1164 l 1
 918 1201 801 1227 705 1227 c 0
 616 1227 546 1204 508 1147 c 0
 501 1136 497 1126 495 1117 c 0
 494 1114 494 1110 494 1107 c 0
 494 1084 510 1067 530 1050 c 1
 723 908 1008 849 1008 587 c 0
 1008 561 1006 534 1000 504 c 0
659 786 m 1
 488 754 359 664 321 469 c 0
 314 433 310 399 310 368 c 0
 310 234 378 156 514 156 c 1
 590 157 638 173 696 215 c 1
 777 279 816 365 843 506 c 0
 846 519 847 532 847 544 c 0
 847 649 760 724 659 786 c 1
EndSplineSet
Validated: 1
EndChar

StartChar: epsilon
Encoding: 949 949 343
Width: 1060
VWidth: 0
Flags: W
HStem: -4 154<320.857 763.051> 510 151<425.514 735> 871 153<407.692 939.964>
VStem: 115 162<193.418 389.388> 213 158<710.781 834.819>
LayerCount: 2
Fore
SplineSet
954 131 m 1xf0
 873 78 714 -4 491 -4 c 0
 309 -4 235 31 171 90 c 0
 128 130 115 181 115 230 c 0xf0
 115 255 119 279 123 301 c 0
 148 431 236 548 395 584 c 1
 260 593 213 663 213 744 c 0
 213 759 214 774 217 789 c 0
 245 935 401 1024 711 1024 c 2
 725 1024 l 2
 957 1024 1019 972 1035 960 c 1
 941 830 l 1
 920 845 829 871 683 871 c 0
 479 871 384 846 372 783 c 0
 371 779 371 775 371 771 c 0xe8
 371 669 634 661 741 661 c 2
 746 661 l 1
 764 661 l 1
 735 509 l 1
 709 509 683 510 657 510 c 0
 594 510 531 506 452 478 c 0
 333 437 292 366 279 299 c 0
 277 290 277 282 277 274 c 0
 277 196 358 150 522 150 c 0
 690 150 832 206 892 252 c 1
 954 131 l 1xf0
EndSplineSet
Validated: 1
EndChar

StartChar: zeta
Encoding: 950 950 344
Width: 1060
VWidth: 0
Flags: W
HStem: -306 138<544 705.19> 0 150<381.559 735.251> 1191 161<445.611 912.503> 1408 20G<395 431>
VStem: 162 159<207.777 568.048> 742 161<-127.802 -7.7785>
LayerCount: 2
Fore
SplineSet
415 1428 m 1
 447 1386 486 1352 567 1352 c 0
 732 1352 1003 1358 1137 1376 c 1
 1172 1218 l 1
 993 1020 410 871 334 480 c 0
 325 435 321 395 321 360 c 0
 321 218 390 150 510 150 c 0
 513 150 630 151 633 151 c 0
 790 151 903 103 903 -19 c 0
 903 -33 901 -49 898 -66 c 0
 858 -274 634 -296 542 -306 c 1
 544 -168 l 1
 631 -155 728 -139 740 -77 c 0
 742 -69 742 -62 742 -55 c 0
 742 -3 694 0 616 0 c 0
 609 0 603 0 596 0 c 0
 592 0 437 0 433 0 c 0
 270 0 162 117 162 336 c 0
 162 386 168 443 180 504 c 0
 249 861 640 1027 918 1200 c 1
 787 1193 683 1191 556 1191 c 0
 441 1191 348 1218 287 1300 c 1
 415 1428 l 1
EndSplineSet
Validated: 1
EndChar

StartChar: eta
Encoding: 951 951 345
Width: 1060
VWidth: 6
Flags: W
HStem: -1 21G<116.881 271> 872 150<599.666 867.759> 1020 20G<352.73 444.5>
VStem: 280 168<900 1005.35> 694 163<-332.253 16.7031> 885 167<723.908 849.182>
LayerCount: 2
Fore
SplineSet
446 900 m 1xbc
 569 979 693 1022 803 1022 c 0
 914 1022 1052 957 1052 832 c 0
 1052 821 1050 808 1048 796 c 2
 878 -79 l 2
 868 -130 857 -225 857 -287 c 0
 857 -305 858 -319 860 -330 c 1
 696 -362 l 1
 695 -340 694 -319 694 -297 c 0
 694 -240 699 -179 717 -86 c 2
 883 765 l 2
 884 771 885 777 885 782 c 0
 885 844 814 872 752 872 c 0xdc
 689 872 562 820 414 733 c 1
 271 0 l 1
 113 -1 l 1
 250 705 l 2
 273 823 280 875 280 923 c 0
 280 948 278 971 276 1003 c 1
 443 1040 l 1
 446 1025 448 994 448 960 c 0
 448 940 447 918 446 900 c 1xbc
EndSplineSet
Validated: 1
EndChar

StartChar: theta
Encoding: 952 952 346
Width: 1060
VWidth: 0
Flags: W
HStem: -16 153<390.19 675.13> 595 158<356.473 924.367> 1170 153<612.035 870.798>
VStem: 139 164<229.11 575.016> 961 159<747.081 1067.33>
LayerCount: 2
Fore
SplineSet
336 247 m 0
 372 182 429 137 537 137 c 0
 653 137 741 224 802 307 c 1
 848 363 899 484 926 585 c 1
 883 592 828 595 762 595 c 0
 640 595 483 585 313 576 c 1
 307 535 303 488 303 440 c 0
 303 364 313 288 336 247 c 0
779 1323 m 0
 873 1323 1120 1258 1120 869 c 0
 1120 801 1112 722 1095 632 c 2
 1093 621 l 2
 1061 457 989 324 923 231 c 0
 820 87 672 -16 507 -16 c 0
 385 -16 270 32 208 132 c 0
 162 205 139 305 139 416 c 0
 139 471 144 530 156 590 c 0
 210 867 336 1059 424 1154 c 0
 507 1244 637 1323 779 1323 c 0
955 745 m 1
 959 779 961 814 961 849 c 0
 961 909 955 966 940 1014 c 0
 904 1128 826 1170 754 1170 c 0
 676 1170 609 1138 536 1062 c 0
 468 992 398 879 350 732 c 1
 572 747 717 753 813 753 c 0
 881 753 926 750 955 745 c 1
EndSplineSet
Validated: 1
EndChar

StartChar: iota
Encoding: 953 953 347
Width: 1060
VWidth: 0
Flags: W
HStem: -18 142<588.671 840.362> 857 156<285.653 545>
VStem: 418 164<132.713 429.653>
LayerCount: 2
Fore
SplineSet
614 1013 m 2
 734 1013 l 1
 681 740 588 259 588 259 c 2
 584 238 582 219 582 204 c 0
 582 135 624 124 699 124 c 0
 792 124 896 185 968 299 c 1
 1067 221 l 1
 968 71 857 -18 673 -18 c 0
 588 -18 514 -4 475 20 c 0
 430 48 418 105 418 159 c 0
 418 196 424 231 428 255 c 2
 545 857 l 1
 496 857 380 851 281 829 c 1
 280 971 l 1
 397 997 510 1013 614 1013 c 2
EndSplineSet
Validated: 1
EndChar

StartChar: kappa
Encoding: 954 954 348
Width: 1060
VWidth: 0
Flags: W
HStem: 0 21G<116 275.889> 1000 20G<310.118 470 1075.5 1100.16>
LayerCount: 2
Fore
SplineSet
676 605 m 1
 761 478 969 185 994 50 c 1
 845 -26 l 1
 820 83 635 364 543 501 c 1
 543 501 405 399 335 324 c 1
 272 0 l 1
 116 0 l 1
 314 1020 l 1
 470 1020 l 1
 379 550 l 1
 490 642 611 725 736 819 c 1
 978 997 1062 1030 1089 1049 c 1
 1161 920 l 1
 945 804 755 673 676 605 c 1
EndSplineSet
Validated: 1
EndChar

StartChar: lambda
Encoding: 955 955 349
Width: 1060
VWidth: 14
Flags: W
HStem: -17 21G<143.476 290> 0 156<807 990.613> 1234 155<471.301 604.248>
VStem: 284 156<1122 1201.89> 730 158<158.447 745.688>
LayerCount: 2
Fore
SplineSet
173 -17 m 1xb8
 49 67 l 1
 166 171 487 724 655 975 c 1
 638 1081 624 1234 550 1234 c 0
 498 1234 452 1186 440 1122 c 1
 284 1122 l 1
 284 1124 l 0
 309 1252 417 1389 576 1389 c 0
 725 1389 776 1280 798 1184 c 0
 857 931 885 596 888 408 c 0
 889 342 887 156 921 156 c 0
 947 156 975 197 975 197 c 1
 1055 87 l 1
 983 22 962 0 876 0 c 0x78
 738 0 730 184 730 293 c 0
 730 308 730 321 730 333 c 0
 730 338 730 344 730 348 c 0
 725 507 723 626 704 756 c 1
 501 480 407 273 173 -17 c 1xb8
EndSplineSet
Validated: 1
EndChar

StartChar: mu
Encoding: 956 956 350
Width: 1060
VWidth: 6
Flags: W
HStem: 2 154<354.589 624.988> 1001 20G<326.778 449>
VStem: 285 164<701.035 996.196>
LayerCount: 2
Fore
SplineSet
904 -10 m 1
 855 31 809 72 804 158 c 1
 703 72 593 5 442 2 c 1
 433 2 l 2
 385 2 323 2 273 22 c 1
 188 -400 l 1
 31 -400 l 1
 156 214 l 1
 202 467 285 863 285 977 c 0
 285 984 285 989 284 994 c 1
 449 1021 l 1
 449 1018 449 1015 449 1012 c 0
 449 910 386 605 319 250 c 1
 319 249 319 248 319 247 c 0
 319 215 336 190 354 174 c 0
 366 164 415 156 456 156 c 1
 524 159 566 167 623 198 c 0
 675 226 751 256 806 344 c 1
 935 1001 l 1
 1093 1001 l 1
 943 239 l 1
 942 234 942 229 942 225 c 0
 942 178 978 136 1009 107 c 1
 904 -10 l 1
EndSplineSet
Validated: 1
EndChar

StartChar: nu
Encoding: 957 957 351
Width: 1060
VWidth: 6
Flags: W
HStem: -3 21G<367.5 486.5> 1028 20G<326.167 384.5 1022.64 1102.5>
VStem: 371 161<152 491.041> 946 163<618.143 1008.8>
LayerCount: 2
Fore
SplineSet
357 1048 m 1
 412 973 432 935 443 860 c 0
 463 741 532 308 532 173 c 0
 532 165 531 158 531 152 c 1
 838 251 883 483 932 733 c 2
 933 738 l 2
 942 781 946 828 946 871 c 0
 946 920 940 965 931 1002 c 1
 1099 1046 l 1
 1106 1016 1109 978 1109 939 c 0
 1109 870 1100 796 1092 754 c 0
 1091 750 1091 746 1090 742 c 0
 1086 724 1084 706 1080 688 c 0
 1044 504 1000 313 798 138 c 0
 722 72 607 0 366 -3 c 1
 369 14 371 38 371 66 c 0
 371 266 295 704 267 839 c 0
 263 860 230 927 209 952 c 1
 357 1048 l 1
EndSplineSet
Validated: 1
EndChar

StartChar: xi
Encoding: 958 958 352
Width: 1060
VWidth: 0
Flags: W
HStem: -320 153<545 706.979> 0 150<326.798 735.251> 1191 161<446.124 768.459> 1408 20G<397 433>
VStem: 132 162<182.455 404.338> 444 179<886.875 1030.91> 742 161<-127.722 -7.7785>
LayerCount: 2
Fore
SplineSet
417 1428 m 1
 449 1386 488 1352 569 1352 c 0
 734 1352 884 1358 1019 1376 c 1
 1055 1218 l 1
 960 1144 650 1096 624 964 c 0
 623 959 623 954 623 949 c 0
 623 868 765 849 907 849 c 1
 877 695 l 1
 601 629 346 547 298 301 c 0
 295 288 294 276 294 265 c 0
 294 175 376 150 510 150 c 0
 513 150 630 151 633 151 c 0
 790 151 903 103 903 -19 c 0
 903 -33 901 -49 898 -66 c 0
 858 -274 627 -310 535 -320 c 1
 545 -167 l 1
 632 -154 728 -139 740 -77 c 0
 742 -69 742 -62 742 -55 c 0
 742 -3 694 0 616 0 c 0
 609 0 603 0 596 0 c 0
 592 0 437 0 433 0 c 0
 260 0 132 43 132 224 c 0
 132 254 136 287 143 325 c 0
 192 577 440 721 563 757 c 1
 528 767 444 786 444 904 c 0
 444 922 446 944 451 967 c 0
 481 1122 628 1162 770 1212 c 1
 708 1203 654 1191 558 1191 c 0
 443 1191 350 1218 289 1300 c 1
 417 1428 l 1
EndSplineSet
Validated: 1
EndChar

StartChar: omicron
Encoding: 959 959 353
Width: 1060
VWidth: 6
Flags: W
HStem: 1 155<376.229 671.059> 878 154<515.388 803.186>
VStem: 148 162<223.806 585.515> 862 161<425.993 817.774>
LayerCount: 2
Fore
SplineSet
482 1 m 1
 257 2 148 127 148 329 c 0
 148 371 153 416 162 464 c 0
 219 756 375 1032 667 1032 c 0
 864 1032 961 963 1005 831 c 0
 1018 792 1023 745 1023 695 c 0
 1023 644 1018 592 1008 543 c 0
 953 258 806 1 484 1 c 2
 482 1 l 1
696 215 m 1
 773 276 817 382 846 530 c 0
 847 536 849 542 850 548 c 0
 857 588 862 627 862 662 c 0
 862 789 809 878 671 878 c 0
 463 878 368 713 321 469 c 0
 314 433 310 399 310 368 c 0
 310 234 378 156 514 156 c 1
 590 157 638 173 696 215 c 1
EndSplineSet
Validated: 1
EndChar

StartChar: pi
Encoding: 960 960 354
Width: 1060
VWidth: 6
Flags: W
HStem: 0 148<808 961.877> 861 159<523 789.575 952 1075.78>
VStem: 687 162<93.004 407.594> 793 164<523.891 860.042>
LayerCount: 2
Fore
SplineSet
1002 1020 m 0xd0
 1043 1020 1061 1038 1095 1088 c 1
 1231 1014 l 1
 1185 940 1115 861 983 861 c 2
 952 861 l 1
 955 846 957 831 957 811 c 0xd0
 957 771 950 715 932 626 c 2
 852 217 l 2
 850 206 849 196 849 188 c 0
 849 159 862 148 879 148 c 0
 904 148 937 169 959 188 c 1
 1006 70 l 1
 964 42 899 0 842 0 c 0
 774 0 687 38 687 152 c 0xe0
 687 168 688 185 692 204 c 2
 773 622 l 2
 788 698 793 745 793 777 c 0
 793 817 785 835 777 861 c 1
 692 861 608 860 523 860 c 1
 398 215 l 2
 384 142 351 45 326 -12 c 1
 168 8 l 1
 199 76 225 146 239 219 c 2
 362 853 l 1
 314 844 270 827 232 800 c 1
 198 956 l 1
 254 988 358 1019 458 1019 c 2
 458 1019 790 1020 1002 1020 c 0xd0
EndSplineSet
Validated: 1
EndChar

StartChar: rho
Encoding: 961 961 355
Width: 1060
VWidth: -2
Flags: W
HStem: 0 156<501.444 746.792> 878 154<575.664 870.186>
VStem: 102 162<-396.65 42.5625> 929 161<423.014 817.774>
LayerCount: 2
Fore
SplineSet
248 562 m 2
 305 854 496 1032 734 1032 c 0
 931 1032 1028 963 1072 831 c 0
 1085 792 1090 745 1090 695 c 0
 1090 644 1085 592 1075 543 c 0
 1020 258 896 0 574 0 c 2
 572 0 l 2
 435 0 361 80 329 168 c 1
 281 -75 l 2
 269 -139 264 -202 264 -257 c 0
 264 -315 269 -365 276 -396 c 1
 113 -438 l 1
 106 -411 102 -364 102 -308 c 0
 102 -236 109 -149 124 -70 c 2
 248 562 l 2
913 530 m 0
 914 536 916 542 917 548 c 0
 924 588 929 627 929 662 c 0
 929 789 876 878 738 878 c 0
 595 878 451 793 404 549 c 0
 398 516 395 484 395 454 c 0
 395 281 493 156 616 156 c 1
 793 158 874 329 913 530 c 0
EndSplineSet
Validated: 1
EndChar

StartChar: sigma1
Encoding: 962 962 356
Width: 1060
VWidth: 4
Flags: W
HStem: -351 152<541 700.422> 865 153<512.259 859.084>
VStem: 154 163<225.968 626.422> 742 161<-158.755 -44.2198>
LayerCount: 2
Fore
SplineSet
332 527 m 0
 322 473 317 426 317 387 c 0
 317 151 481 154 537 150 c 0
 769 131 903 89 903 -46 c 0
 903 -61 901 -77 898 -95 c 0
 879 -191 800 -343 534 -351 c 1
 541 -199 l 1
 658 -185 728 -168 741 -99 c 0
 742 -96 742 -94 742 -92 c 0
 742 -32 591 -16 511 -7 c 0
 267 18 154 129 154 350 c 0
 154 403 160 461 173 527 c 0
 244 894 447 1018 762 1018 c 0
 857 1018 926 994 977 948 c 0
 1029 901 1048 841 1060 789 c 1
 895 729 l 1
 892 770 881 865 721 865 c 0
 500 865 378 766 332 527 c 0
EndSplineSet
Validated: 1
EndChar

StartChar: sigma
Encoding: 963 963 357
Width: 1060
VWidth: 6
Flags: W
HStem: 1 155<376.229 638.308> 874 148<539.639 819.254 966 1170.91>
VStem: 148 162<221.274 580.911> 835 161<451.053 871.098>
LayerCount: 2
Fore
SplineSet
795 874 m 1
 787 874 780 874 773 874 c 0
 751 874 736 874 732 874 c 0
 476 874 368 713 321 469 c 0
 314 433 310 399 310 368 c 0
 310 234 378 156 514 156 c 0
 685 156 776 342 813 530 c 0
 814 536 816 542 817 548 c 0
 827 607 835 668 835 722 c 0
 835 784 825 838 795 874 c 1
966 872 m 1
 972 864 978 853 982 840 c 0
 992 809 996 771 996 731 c 0
 996 669 987 601 975 543 c 0
 920 258 761 1 484 1 c 2
 482 1 l 1
 257 2 148 127 148 329 c 0
 148 371 153 416 162 464 c 0
 219 756 378 1019 732 1022 c 0
 749 1022 808 1023 880 1023 c 0
 1007 1023 1174 1021 1223 1012 c 1
 1173 859 l 1
 1129 866 1048 870 966 872 c 1
EndSplineSet
Validated: 1
EndChar

StartChar: tau
Encoding: 964 964 358
Width: 1060
VWidth: 0
Flags: W
HStem: -3 155<616.176 835.351> 875 145<288.625 570 722.1 1156>
VStem: 444 162<165.562 495.673>
LayerCount: 2
Fore
SplineSet
758 1020 m 1
 880 1020 l 2
 928 1020 977 1020 1019 1020 c 0
 1166 1020 l 1
 1184 1020 l 1
 1156 873 l 1
 852 875 l 1
 731 875 l 1
 682 671 658 540 635 440 c 1
 627 400 l 2
 614 335 606 286 606 249 c 0
 606 176 639 152 735 152 c 0
 805 152 863 210 906 286 c 1
 1026 228 l 1
 995 172 903 -3 706 -3 c 0
 512 -3 444 58 444 206 c 0
 444 258 452 321 467 397 c 2
 476 440 l 1
 500 544 526 683 570 876 c 1
 550 875 436 874 436 874 c 2
 366 873 301 839 245 807 c 1
 201 933 l 1
 260 977 363 1019 459 1019 c 2
 758 1020 l 1
EndSplineSet
Validated: 1
EndChar

StartChar: upsilon
Encoding: 965 965 359
Width: 1060
VWidth: 6
Flags: W
HStem: -4 156<370.38 643.285> 1012 20G<328.778 451 1022.64 1102.5>
VStem: 176 161<187.16 549.123> 287 164<706.373 1004.67> 946 163<615.81 1008.8>
LayerCount: 2
Fore
SplineSet
185 366 m 0xe8
 197 426 209 489 221 549 c 0
 257 731 287 900 287 980 c 0
 287 990 287 998 286 1005 c 1
 451 1032 l 1
 451 1029 451 1025 451 1022 c 0xd8
 451 944 419 769 381 573 c 0
 370 517 359 459 348 402 c 0
 341 365 337 333 337 305 c 0
 337 197 391 152 497 152 c 0
 555 152 673 193 745 273 c 0
 856 398 887 500 933 738 c 0
 942 781 946 828 946 871 c 0
 946 920 940 965 931 1002 c 1
 1099 1046 l 1
 1106 1016 1109 978 1109 939 c 0
 1109 870 1100 796 1092 754 c 0
 1091 750 1091 746 1090 742 c 0
 1088 730 1085 717 1083 705 c 0
 1046 514 1000 303 792 123 c 0
 716 57 584 -4 421 -4 c 0
 259 -4 176 116 176 272 c 0
 176 302 179 334 185 366 c 0xe8
EndSplineSet
Validated: 1
EndChar

StartChar: phi
Encoding: 966 966 360
Width: 1060
VWidth: 0
Flags: W
HStem: 894 146<772.817 941.204>
VStem: 135 161<236.636 680.368> 957 157<529.487 878.744>
LayerCount: 2
Fore
SplineSet
606 145 m 1
 689 165 754 218 803 284 c 1
 855 348 915 517 937 624 c 1
 941 643 l 2
 951 695 957 739 957 775 c 0
 957 855 928 894 851 894 c 2
 850 894 l 2
 823 894 749 893 701 644 c 0
 673 502 639 318 606 145 c 1
577 -11 m 1
 539 -215 510 -377 507 -398 c 1
 345 -396 l 1
 347 -375 379 -211 418 -8 c 1
 329 9 250 52 204 127 c 0
 158 200 135 292 135 399 c 0
 135 452 140 509 152 569 c 0
 196 797 282 963 391 1044 c 1
 499 954 l 1
 402 870 346 765 309 573 c 0
 301 531 296 480 296 430 c 0
 296 357 306 285 331 242 c 0
 356 197 393 164 449 148 c 1
 544 640 l 2
 605 955 733 1040 877 1040 c 0
 991 1040 1114 1020 1114 804 c 0
 1114 757 1108 700 1095 632 c 2
 1093 621 l 2
 1061 457 987 304 921 211 c 0
 833 88 713 9 577 -11 c 1
EndSplineSet
Validated: 1
EndChar

StartChar: chi
Encoding: 967 967 361
Width: 1060
VWidth: 14
Flags: W
HStem: -398 156<819.959 925.308> 888 153<222 328.767> 1040 20G<1003.07 1067.07>
LayerCount: 2
Fore
SplineSet
480 289 m 1xa0
 461 465 446 631 365 792 c 0
 323 876 271 888 193 888 c 1
 222 1041 l 1xc0
 369 1041 435 1032 508 913 c 0
 587 784 632 466 632 466 c 1
 764 667 1016 1060 1016 1060 c 1
 1159 1004 l 1
 1159 1004 914 606 688 273 c 1
 697 100 792 -242 867 -242 c 0
 898 -242 900 -223 910 -211 c 1
 991 -270 l 1
 978 -308 936 -398 834 -398 c 0
 616 -398 558 -6 539 114 c 1
 206 -410 l 1
 43 -338 l 1
 480 289 l 1xa0
EndSplineSet
Validated: 1
EndChar

StartChar: psi
Encoding: 968 968 362
Width: 1060
VWidth: 6
Flags: W
HStem: -4 158<347.049 426> 1012 8G<286.778 409 627.129 791 1074.64 1154.5>
VStem: 135 163<201.212 550.447> 245 164<706.373 1004.67> 998 163<615.81 1008.8>
LayerCount: 2
Fore
SplineSet
143 366 m 0xe8
 155 426 167 489 179 549 c 0
 215 731 245 900 245 980 c 0
 245 990 245 998 244 1005 c 1
 409 1032 l 1
 409 1029 409 1025 409 1022 c 0xd8
 409 944 377 769 339 573 c 0
 328 517 317 459 306 402 c 0
 301 374 298 348 298 325 c 0
 298 216 357 164 458 154 c 1
 514 438 568 693 613 927 c 2
 631 1020 l 1
 791 1020 l 1
 763 875 l 2
 717 639 675 431 623 168 c 1
 693 187 751 222 797 273 c 0
 908 398 939 500 985 738 c 0
 994 781 998 828 998 871 c 0
 998 920 992 965 983 1002 c 1
 1151 1046 l 1
 1158 1016 1161 978 1161 939 c 0
 1161 870 1152 796 1144 754 c 0
 1143 750 1143 746 1142 742 c 0
 1140 730 1137 717 1135 705 c 0
 1098 514 1052 303 844 123 c 0
 789 75 721 29 592 8 c 1
 566 -124 l 2
 544 -239 532 -295 507 -396 c 1
 346 -395 l 1
 362 -333 371 -290 382 -235 c 0
 391 -188 401 -132 418 -46 c 0
 421 -32 423 -18 426 -4 c 1
 424 -4 423 -4 421 -4 c 0
 233 -4 135 121 135 282 c 0
 135 309 137 337 143 366 c 0xe8
EndSplineSet
Validated: 1
EndChar

StartChar: omega
Encoding: 969 969 363
Width: 1060
VWidth: 6
Flags: W
HStem: -10 155<284.557 434.389 677.137 833.217> 1013 28G<280 395.424 1032 1097>
VStem: 101 167<152.396 558.672> 958 164<407.815 982.41>
LayerCount: 2
Fore
SplineSet
567 684 m 1
 730 703 l 1
 711 618 694 524 675 431 c 0
 674 423 673 414 671 405 c 0
 663 359 658 318 658 285 c 0
 658 188 693 144 753 144 c 0
 842 144 895 270 924 420 c 0
 945 529 958 634 958 729 c 0
 958 820 946 902 917 967 c 1
 1082 1033 l 1
 1112 959 1122 869 1122 780 c 0
 1122 652 1101 524 1085 441 c 0
 1042 218 944 -12 699 -12 c 0
 624 -12 565 33 532 104 c 1
 468 34 391 -10 315 -10 c 0
 153 -10 101 109 101 259 c 0
 101 318 109 381 121 444 c 0
 154 612 207 858 353 1041 c 1
 493 975 l 1
 387 848 328 675 288 468 c 0
 276 404 268 343 268 291 c 0
 268 205 288 145 338 145 c 0
 408 145 463 196 500 321 c 1
 502 337 505 352 508 368 c 0
 528 474 550 584 567 684 c 1
EndSplineSet
Validated: 1
EndChar

StartChar: Alpha
Encoding: 913 913 366
Width: 1060
VWidth: 0
Flags: W
HStem: -19 21G<827.145 942.333> 326 163<437.944 772> 1278 20G<702.368 827.704>
LayerCount: 2
Fore
SplineSet
713 1298 m 1
 825 1298 l 1
 999 11 l 1
 829 -19 l 1
 797 326 l 1
 655 323 461 324 345 297 c 1
 180 -24 l 1
 23 0 l 1
 713 1298 l 1
772 490 m 1
 708 982 l 1
 435 470 l 1
 498 483 548 485 632 489 c 1
 772 490 l 1
EndSplineSet
Validated: 1
EndChar

StartChar: Beta
Encoding: 914 914 367
Width: 1060
VWidth: 0
Flags: W
HStem: 3 150<281 722.812> 647 156<413 695.131> 1150 149<472.876 746.75>
VStem: 787 162<984 1107.36> 869 157<308.503 573.422>
LayerCount: 2
Fore
SplineSet
820 578 m 0xe8
 759 639 700 649 605 649 c 0
 556 649 498 647 425 647 c 2
 381 647 l 1
 333 410 297 229 281 153 c 1
 389 153 427 146 502 146 c 0
 542 146 578 148 614 153 c 0
 723 166 835 265 863 409 c 0
 867 429 869 447 869 464 c 0
 869 512 853 546 820 578 c 0xe8
784 992 m 2
 786 1004 787 1015 787 1025 c 0xf0
 787 1114 704 1150 581 1150 c 2
 564 1150 l 2
 525 1150 509 1148 478 1145 c 1
 474 1108 466 1064 457 1017 c 0
 444 950 427 877 413 803 c 1
 560 806 608 799 709 854 c 0
 739 870 771 925 782 984 c 2
 784 992 l 2
257 823 m 0
 291 996 319 1158 335 1285 c 1
 417 1291 467 1299 580 1299 c 0
 586 1299 592 1299 598 1299 c 0
 784 1299 949 1233 949 1062 c 0xf0
 949 1043 947 1023 943 1002 c 0
 924 906 883 823 811 767 c 1
 935 722 1026 619 1026 471 c 0xe8
 1026 446 1023 420 1018 393 c 0
 974 168 798 23 627 3 c 0
 587 -2 545 -5 506 -5 c 0
 421 -5 333 3 225 3 c 2
 89 3 l 1
 127 197 176 407 257 823 c 0
EndSplineSet
Validated: 1
EndChar

StartChar: Gamma
Encoding: 915 915 368
Width: 1060
VWidth: 0
Flags: W
HStem: 0 21G<111 275.888> 1147 154<495 1131.09>
LayerCount: 2
Fore
SplineSet
364 1301 m 1
 1048 1301 l 2
 1123 1301 1158 1287 1202 1271 c 1
 1133 1125 l 1
 1092 1140 1074 1144 1016 1147 c 1
 495 1147 l 1
 272 0 l 1
 111 0 l 1
 364 1301 l 1
EndSplineSet
Validated: 1
EndChar

StartChar: Epsilon
Encoding: 917 917 369
Width: 1060
VWidth: 0
Flags: W
HStem: -3 150<286 932.952> 666 150<419 827> 1144 153<482 1111>
LayerCount: 2
Fore
SplineSet
353 1293 m 1
 410 1297 480 1297 558 1297 c 0
 589 1297 622 1297 656 1297 c 2
 766 1297 l 2
 915 1297 1051 1294 1125 1294 c 2
 1141 1294 l 1
 1111 1144 l 1
 482 1144 l 1
 419 816 l 1
 857 816 l 1
 827 666 l 1
 389 666 l 1
 384 636 l 2
 345 433 301 224 286 147 c 1
 811 149 l 2
 867 149 933 175 933 175 c 1
 948 27 l 1
 897 14 859 -3 783 -3 c 2
 101 -3 l 1
 353 1293 l 1
EndSplineSet
Validated: 1
EndChar

StartChar: Zeta
Encoding: 918 918 370
Width: 1060
VWidth: 0
Flags: W
HStem: -3 154<292 957.795> 1150 152<340 979>
LayerCount: 2
Fore
SplineSet
122 -5 m 1
 44 83 l 1
 979 1150 l 1
 765 1150 426 1145 312 1145 c 1
 340 1298 l 1
 460 1298 883 1302 1071 1302 c 0
 1146 1302 1190 1289 1208 1286 c 1
 1199 1253 1171 1172 1163 1149 c 1
 292 151 l 1
 779 150 l 2
 864 150 892 154 961 175 c 1
 972 27 l 1
 924 11 883 -3 808 -3 c 2
 565 -3 l 2
 353 -3 177 -5 129 -5 c 2
 122 -5 l 1
EndSplineSet
Validated: 1
EndChar

StartChar: Eta
Encoding: 919 919 371
Width: 1060
VWidth: 0
Flags: W
HStem: 0 21G<60 238.5 754 915.888> 625 152<370.082 875> 1276 20G<312 468.088>
LayerCount: 2
Fore
SplineSet
472 1296 m 1
 365 749 l 1
 461 770 557 777 677 777 c 2
 905 777 l 1
 958 1051 973 1129 1004 1291 c 1
 1163 1291 l 1
 912 0 l 1
 754 0 l 1
 875 625 l 1
 832 625 789 625 746 625 c 0
 600 625 458 622 335 597 c 1
 268 254 256 181 221 0 c 1
 60 0 l 1
 312 1294 l 1
 472 1296 l 1
EndSplineSet
Validated: 1
EndChar

StartChar: Theta
Encoding: 920 920 372
Width: 1060
VWidth: 0
Flags: W
HStem: -16 153<383.984 689.428> 572 153<437 821> 1170 153<596.179 875.813>
VStem: 135 162<224.749 688.372> 960 160<549.799 1067.95>
LayerCount: 2
Fore
SplineSet
331 242 m 0
 367 177 429 137 537 137 c 0
 653 137 738 204 799 287 c 1
 851 351 913 517 935 624 c 1
 939 643 l 2
 951 707 960 783 960 855 c 0
 960 913 955 968 940 1014 c 0
 904 1128 842 1170 754 1170 c 0
 659 1170 598 1142 525 1066 c 0
 439 977 362 835 311 573 c 0
 302 529 297 475 297 423 c 0
 297 352 307 284 331 242 c 0
779 1323 m 1
 884 1323 1120 1270 1120 879 c 0
 1120 808 1113 726 1095 632 c 1
 1093 621 l 2
 1061 457 987 304 921 211 c 0
 818 67 672 -16 507 -16 c 0
 385 -16 266 27 204 127 c 0
 158 200 135 292 135 399 c 0
 135 452 140 509 152 569 c 0
 219 914 325 1063 413 1158 c 0
 496 1248 622 1320 779 1323 c 1
437 725 m 1
 851 725 l 1
 821 572 l 1
 407 572 l 1
 437 725 l 1
EndSplineSet
Validated: 1
EndChar

StartChar: Iota
Encoding: 921 921 373
Width: 1060
VWidth: 0
Flags: W
HStem: 4 147<162 451 612 849> 1144 154<384 646 806 1076>
LayerCount: 2
Fore
SplineSet
384 1298 m 1
 541 1302 642 1302 738 1302 c 0
 843 1302 943 1301 1106 1299 c 1
 1076 1147 l 1
 953 1147 902 1152 806 1152 c 1
 612 152 l 1
 658 152 684 153 735 153 c 0
 780 153 827 152 878 149 c 1
 849 -1 l 1
 765 4 703 5 640 5 c 0
 593 5 544 4 485 4 c 0
 411 4 288 -3 133 -3 c 1
 162 146 l 1
 248 150 319 151 376 151 c 2
 451 151 l 1
 646 1151 l 1
 580 1150 467 1150 360 1144 c 1
 384 1298 l 1
EndSplineSet
Validated: 1
EndChar

StartChar: Kappa
Encoding: 922 922 374
Width: 1060
VWidth: 0
Flags: W
HStem: -5 9G<115 276.899 852.5 903.947> 1288 20G<366.116 528 1104.5 1133.98>
LayerCount: 2
Fore
SplineSet
625 725 m 1
 722 608 988 194 1013 59 c 1
 865 -17 l 1
 840 92 611 474 505 600 c 1
 505 600 402 502 358 431 c 1
 273 -5 l 1
 115 -5 l 1
 370 1308 l 1
 528 1308 l 1
 411 703 l 1
 513 814 599 893 718 996 c 1
 947 1191 1092 1289 1117 1310 c 1
 1207 1204 l 1
 999 1072 699 798 625 725 c 1
EndSplineSet
Validated: 1
EndChar

StartChar: Mu
Encoding: 924 924 375
Width: 1060
VWidth: 31
Flags: W
HStem: -5 21G<61 222.889 730 890.87> 1293 20G<312 439 973 1142>
VStem: 1026 116<1258.23 1313>
LayerCount: 2
Fore
SplineSet
312 1304 m 1
 415 1313 l 1
 463 1216 507 1060 552 938 c 0
 585 848 601 797 613 759 c 1
 726 914 920 1183 1026 1313 c 1
 1142 1313 l 1
 887 -5 l 1
 730 -5 l 1
 908 920 l 1
 807 779 650 575 632 539 c 1
 510 542 l 1
 505 558 469 668 414 837 c 1
 402 881 405 872 395 900 c 1
 219 -5 l 1
 61 -5 l 1
 312 1304 l 1
EndSplineSet
Validated: 1
EndChar

StartChar: Nu
Encoding: 925 925 376
Width: 1060
VWidth: 0
Flags: W
HStem: -3 18G<74 248 704 910> 1278 19G<323.111 486 993 1168>
VStem: 751 159<-5 157.392>
LayerCount: 2
Fore
SplineSet
751 -6 m 1
 657 351 561 648 428 1001 c 1
 388 797 l 2
 331 504 263 149 233 -3 c 1
 74 -3 l 1
 327 1298 l 1
 486 1294 l 1
 576 1110 753 605 822 357 c 1
 845 487 871 623 897 757 c 0
 933 943 972 1126 1014 1297 c 1
 1168 1297 l 1
 1140 1184 1110 1035 1078 872 c 0
 1034 646 988 392 943 162 c 0
 932 105 920 48 910 -5 c 1
 751 -6 l 1
EndSplineSet
Validated: 1
EndChar

StartChar: Omicron
Encoding: 927 927 377
Width: 1060
VWidth: 0
Flags: W
HStem: -16 153<383.984 689.428> 1170 153<596.179 875.813>
VStem: 135 162<224.749 688.372> 960 160<549.799 1067.95>
LayerCount: 2
Fore
SplineSet
331 242 m 0
 367 177 429 137 537 137 c 0
 653 137 738 204 799 287 c 1
 851 351 913 517 935 624 c 1
 939 643 l 2
 951 707 960 783 960 855 c 0
 960 913 955 968 940 1014 c 0
 904 1128 842 1170 754 1170 c 0
 659 1170 598 1142 525 1066 c 0
 439 977 362 835 311 573 c 0
 302 529 297 475 297 423 c 0
 297 352 307 284 331 242 c 0
779 1323 m 1
 884 1323 1120 1270 1120 879 c 0
 1120 808 1113 726 1095 632 c 1
 1093 621 l 2
 1061 457 987 304 921 211 c 0
 818 67 672 -16 507 -16 c 0
 385 -16 266 27 204 127 c 0
 158 200 135 292 135 399 c 0
 135 452 140 509 152 569 c 0
 219 914 325 1063 413 1158 c 0
 496 1248 622 1320 779 1323 c 1
EndSplineSet
Validated: 1
EndChar

StartChar: Rho
Encoding: 929 929 378
Width: 1060
VWidth: 0
Flags: W
HStem: -10 21G<102 275> 460 152<382 794.91> 1151 151<487 907.063>
VStem: 997 166<796.778 1077.34>
LayerCount: 2
Fore
SplineSet
260 -10 m 1
 102 -9 l 1
 356 1294 l 1
 474 1294 513 1302 646 1302 c 0
 871 1302 1040 1289 1128 1151 c 0
 1153 1111 1163 1061 1163 1008 c 0
 1163 975 1160 940 1153 906 c 0
 1135 815 1109 715 1032 628 c 0
 907 488 744 460 505 460 c 0
 457 460 407 461 353 463 c 1
 302 200 290 146 260 -10 c 1
990 900 m 0
 994 923 997 944 997 963 c 0
 997 1116 857 1146 639 1151 c 1
 578 1151 532 1147 487 1146 c 1
 462 1020 l 2
 426 837 382 613 382 613 c 1
 418 612 452 612 485 612 c 0
 771 612 946 672 990 900 c 0
EndSplineSet
Validated: 1
EndChar

StartChar: Tau
Encoding: 932 932 379
Width: 1060
VWidth: 0
Flags: W
HStem: -9 21G<401 564.885> 1144 155<291 625 785 1129.96>
LayerCount: 2
Fore
SplineSet
401 -9 m 1
 625 1144 l 1
 427 1144 337 1143 261 1143 c 1
 291 1298 l 1
 413 1298 868 1299 1056 1299 c 0
 1129 1299 1176 1287 1193 1284 c 1
 1130 1132 l 1
 1130 1132 1070 1144 1020 1144 c 2
 785 1144 l 1
 561 -9 l 1
 401 -9 l 1
EndSplineSet
Validated: 1
EndChar

StartChar: Upsilon
Encoding: 933 933 380
Width: 1060
VWidth: 0
Flags: W
HStem: -6 21G<398 561.817>
LayerCount: 2
Fore
SplineSet
398 -6 m 1
 425 135 l 2
 442 225 500 482 523 601 c 1
 466 712 307 1151 277 1257 c 1
 431 1328 l 1
 456 1251 580 896 640 759 c 1
 765 898 1034 1254 1089 1341 c 1
 1212 1262 l 1
 1147 1168 1047 1026 909 858 c 1
 797 727 705 616 681 590 c 1
 672 543 660 495 650 441 c 1
 621 309 591 167 583 125 c 2
 558 -6 l 1
 398 -6 l 1
EndSplineSet
Validated: 1
EndChar

StartChar: Chi
Encoding: 935 935 381
Width: 1060
VWidth: 0
Flags: W
LayerCount: 2
Fore
SplineSet
1054 1340 m 1
 1172 1255 l 1
 696 657 l 1
 815 390 878 214 993 77 c 1
 867 -36 l 1
 744 111 682 266 577 508 c 1
 154 -31 l 1
 38 54 l 1
 507 654 l 1
 427 858 374 1082 264 1238 c 1
 407 1331 l 1
 509 1185 560 971 630 799 c 1
 1054 1340 l 1
EndSplineSet
Validated: 1
EndChar

StartChar: Delta
Encoding: 916 916 382
Width: 1060
VWidth: 0
Flags: W
HStem: 0 151<265 820> 1278 20G<702.289 827.823>
LayerCount: 2
Fore
SplineSet
834 0 m 1
 185 -5 l 1
 28 19 l 1
 713 1298 l 1
 825 1298 l 1
 1004 30 l 1
 834 0 l 1
708 982 m 1
 559 698 411 438 265 151 c 1
 820 151 l 1
 796 444 744 699 708 982 c 1
EndSplineSet
Validated: 1
EndChar

StartChar: Lambda
Encoding: 923 923 383
Width: 1060
VWidth: 0
Flags: W
HStem: -19 21G<807 942.333> 1278 20G<702.368 827.704>
LayerCount: 2
Fore
SplineSet
829 -19 m 1
 785 318 752 651 708 982 c 1
 529 650 368 306 180 -24 c 1
 23 0 l 1
 713 1298 l 1
 825 1298 l 1
 999 11 l 1
 829 -19 l 1
EndSplineSet
Validated: 1
EndChar

StartChar: Xi
Encoding: 926 926 384
Width: 1060
VWidth: 0
Flags: W
HStem: -3 150<129 932.952> 666 150<419 827> 1144 153<353 1111>
LayerCount: 2
Fore
SplineSet
419 816 m 1
 857 816 l 1
 827 666 l 1
 389 666 l 1
 419 816 l 1
353 1293 m 1
 410 1297 480 1297 558 1297 c 0
 589 1297 622 1297 656 1297 c 2
 766 1297 l 2
 915 1297 1051 1294 1125 1294 c 2
 1141 1294 l 1
 1111 1144 l 1
 326 1144 l 1
 353 1293 l 1
129 147 m 1
 811 149 l 2
 867 149 933 175 933 175 c 1
 948 27 l 1
 897 14 859 -3 783 -3 c 2
 101 -3 l 1
 129 147 l 1
EndSplineSet
Validated: 1
EndChar

StartChar: Pi
Encoding: 928 928 385
Width: 1060
VWidth: 0
Flags: W
HStem: 0 21G<139 303.867 783.5 938> 1144 152<521 975 1134 1222>
VStem: 781 157<9 365.803>
LayerCount: 2
Fore
SplineSet
300 0 m 1
 139 0 l 1
 359 1131 l 1
 329 1127 300 1122 269 1116 c 1
 279 1268 l 1
 375 1289 472 1296 592 1296 c 2
 1252 1296 l 1
 1222 1144 l 1
 1134 1144 l 1
 985 378 l 2
 960 251 947 126 938 9 c 1
 781 -4 l 1
 786 117 803 255 828 384 c 2
 975 1144 l 1
 643 1144 l 2
 599 1144 559 1144 521 1143 c 1
 300 0 l 1
EndSplineSet
Validated: 1
EndChar

StartChar: Sigma
Encoding: 931 931 386
Width: 1060
VWidth: 0
Flags: W
HStem: -3 150<294 932.952> 1144 153<543 1111>
LayerCount: 2
Fore
SplineSet
543 1144 m 1
 891 752 l 1
 859 620 l 1
 294 147 l 1
 811 149 l 2
 867 149 933 175 933 175 c 1
 948 27 l 1
 897 14 859 -3 783 -3 c 2
 101 -3 l 1
 110 172 l 1
 728 687 l 1
 299 1170 l 1
 353 1293 l 1
 410 1297 480 1297 558 1297 c 0
 589 1297 622 1297 656 1297 c 2
 766 1297 l 2
 915 1297 1051 1294 1125 1294 c 2
 1141 1294 l 1
 1111 1144 l 1
 543 1144 l 1
EndSplineSet
Validated: 1
EndChar

StartChar: Phi
Encoding: 934 934 387
Width: 1060
VWidth: 0
Flags: W
HStem: 0 21G<414 581.5> 170 165<377.752 449> 984 154<797 871.188> 1287 20G<666.129 830>
VStem: 147 166<397.27 727.725> 949 161<638 902.25>
LayerCount: 2
Fore
SplineSet
449 170 m 1
 361 182 281 214 231 268 c 0
 175 328 147 407 147 498 c 0
 147 528 150 559 156 591 c 0
 205 843 303 952 386 1021 c 0
 446 1071 531 1113 636 1131 c 1
 641 1158 647 1186 652 1214 c 2
 670 1307 l 1
 830 1307 l 1
 802 1162 l 1
 797 1138 l 1
 919 1124 1110 1054 1110 777 c 0
 1110 735 1106 689 1096 637 c 1
 1094 629 l 2
 1071 509 1005 397 944 329 c 0
 863 239 747 182 611 168 c 1
 606 142 603 122 599 102 c 0
 594 74 587 46 576 0 c 1
 414 1 l 1
 422 32 425 49 428 64 c 0
 431 79 435 93 440 121 c 0
 443 136 446 152 449 170 c 1
643 332 m 1
 723 345 782 380 825 422 c 1
 873 463 924 570 938 638 c 1
 940 650 l 2
 945 679 949 712 949 745 c 0
 949 796 940 848 916 888 c 0
 880 947 830 975 767 984 c 1
 732 798 702 639 652 382 c 2
 643 332 l 1
480 335 m 1
 529 585 568 781 606 975 c 1
 568 965 533 947 497 921 c 0
 417 864 351 773 318 605 c 0
 315 587 313 567 313 546 c 0
 313 489 327 428 361 394 c 0
 389 366 426 345 480 335 c 1
EndSplineSet
Validated: 1
EndChar

StartChar: Psi
Encoding: 936 936 388
Width: 1060
VWidth: 6
Flags: W
HStem: 0 21G<453 628> 403 159<426.32 536 732 890.628> 1302 8G<344.778 467 694.5 876 1108 1264>
VStem: 217 162<608.425 963.37> 304 164<999.555 1303> 1108 159<1013.95 1298>
LayerCount: 2
Fore
SplineSet
224 770 m 0xf4
 236 830 246 886 256 937 c 0
 284 1082 304 1190 304 1259 c 0
 304 1273 304 1284 302 1295 c 1
 467 1322 l 1
 467 1316 468 1310 468 1303 c 0xec
 468 1231 448 1123 417 963 c 0
 408 915 398 863 387 806 c 0
 381 777 379 753 379 730 c 0
 379 599 467 562 569 562 c 1
 579 614 590 665 600 716 c 0
 640 921 676 1121 713 1310 c 1
 876 1310 l 1
 839 1119 806 940 768 743 c 0
 757 684 745 624 732 561 c 1
 951 561 1002 680 1070 1028 c 1
 1086 1120 1101 1220 1108 1298 c 1
 1267 1315 l 1
 1261 1233 1246 1132 1233 1066 c 0
 1230 1053 1229 1042 1227 1032 c 0
 1152 644 1066 439 700 404 c 1
 671 264 642 127 614 0 c 1
 453 1 l 1
 469 63 500 220 511 275 c 0
 519 316 527 359 536 403 c 1
 319 423 217 546 217 698 c 0
 217 722 219 745 224 770 c 0xf4
EndSplineSet
Validated: 1
EndChar

StartChar: Omega
Encoding: 937 937 389
Width: 1060
VWidth: 0
Flags: W
HStem: 1 150<63 230 824 1025.95> 1170 153<573.9 914.123>
VStem: 129 161<313.125 763.799> 1013 153<636.1 1068.86>
LayerCount: 2
Fore
SplineSet
394 1 m 1
 36 1 l 1
 63 151 l 1
 230 151 l 1
 174 243 129 372 129 509 c 0
 129 546 132 583 139 620 c 0
 206 965 297 1062 385 1157 c 0
 468 1247 607 1323 779 1323 c 0
 974 1323 1166 1261 1166 929 c 0
 1166 859 1158 778 1139 683 c 2
 1137 672 l 2
 1089 423 933 250 824 151 c 1
 904 152 l 2
 960 152 1026 178 1026 178 c 1
 1041 30 l 1
 991 17 954 0 882 0 c 0
 880 0 878 0 876 0 c 2
 608 0 l 1
 608 148 l 1
 693 209 922 383 979 675 c 2
 983 694 l 2
 985 706 988 717 990 729 c 0
 1002 790 1013 849 1013 907 c 0
 1013 945 1008 983 996 1020 c 0
 960 1134 842 1170 754 1170 c 0
 659 1170 570 1141 497 1065 c 0
 411 976 349 886 298 624 c 0
 292 594 290 564 290 534 c 0
 290 352 387 180 451 152 c 1
 394 1 l 1
EndSplineSet
Validated: 1
EndChar

StartChar: tonos
Encoding: 900 900 390
Width: 1060
VWidth: -43
Flags: W
HStem: 1222 491
VStem: 542 180<1562.42 1667.9>
LayerCount: 2
Fore
SplineSet
362 1311 m 1
 457 1428 503 1560 542 1713 c 1
 722 1664 l 1
 689 1510 594 1338 499 1222 c 1
 362 1311 l 1
EndSplineSet
Validated: 1
EndChar

StartChar: uni03D0
Encoding: 976 976 411
Width: 1060
VWidth: 0
Flags: W
HStem: 0 153<420.856 725.36> 668 131<386.598 657.756> 1176 152<546.625 767.005>
VStem: 170 161<244.454 641.657> 800 159<913.979 1141.41> 874 156<302.496 585.986>
LayerCount: 2
Fore
SplineSet
352 644 m 1xf4
 340 570 331 498 331 434 c 0
 331 271 386 153 573 153 c 0
 713 153 841 261 867 395 c 0
 872 419 874 441 874 461 c 0
 874 608 757 668 579 668 c 0
 511 668 435 660 352 644 c 1xf4
383 799 m 1
 566 811 760 822 796 1005 c 0
 799 1020 800 1034 800 1047 c 0xf8
 800 1132 739 1176 643 1176 c 0
 578 1176 457 1110 383 799 c 1
212 736 m 0
 294 1156 486 1328 672 1328 c 0
 832 1328 959 1255 959 1088 c 0xf8
 959 1064 956 1039 951 1011 c 0
 931 909 887 832 821 779 c 1
 957 739 1030 645 1030 494 c 0xf4
 1030 459 1026 422 1018 381 c 0
 977 171 811 0 543 0 c 0
 256 0 170 157 170 386 c 0
 170 490 187 610 212 736 c 0
EndSplineSet
Validated: 1
EndChar

StartChar: theta1
Encoding: 977 977 412
Width: 1060
VWidth: 0
Flags: W
HStem: -16 153<390.19 675.13> 590 158<470.631 924.022> 1170 153<596.644 870.798>
VStem: 139 164<229.11 589.579> 275 163<781.119 1019.78> 960 160<743.772 1069.42>
LayerCount: 2
Fore
SplineSet
318 603 m 1xf4
 309 557 303 497 303 437 c 0xf4
 303 362 313 288 336 247 c 0
 372 182 429 137 537 137 c 0
 653 137 741 224 802 307 c 1
 848 363 899 483 926 584 c 1
 884 590 829 591 765 591 c 0
 714 591 657 590 595 590 c 0
 451 590 275 656 275 847 c 0xec
 275 869 277 893 282 918 c 0
 296 990 324 1069 409 1160 c 0
 492 1250 637 1323 779 1323 c 0
 873 1323 1120 1258 1120 869 c 0
 1120 801 1112 722 1095 632 c 2
 1093 621 l 2
 1061 457 989 324 923 231 c 0
 820 87 672 -16 507 -16 c 0
 385 -16 270 32 208 132 c 0
 162 205 139 305 139 416 c 0
 139 471 144 530 156 590 c 1
 318 603 l 1xf4
954 742 m 1
 958 779 960 818 960 855 c 0
 960 913 955 968 940 1014 c 0
 904 1128 826 1170 754 1170 c 0
 676 1170 597 1143 522 1068 c 0
 462 1008 448 957 442 927 c 0
 439 910 438 895 438 881 c 0xec
 438 765 533 748 633 748 c 0
 813 748 904 747 954 742 c 1
EndSplineSet
Validated: 1
EndChar

StartChar: Upsilon1
Encoding: 978 978 413
Width: 1060
VWidth: 4
Flags: W
HStem: 0 21G<432 591.889> 1070 298<1083.49 1225> 1215 161<348.719 434>
VStem: 1080 168<1071.31 1282.5> 1080 146<1070 1210.91>
LayerCount: 2
Fore
SplineSet
700 1020 m 1xb0
 791 1165 976 1368 1109 1368 c 0
 1216 1368 1248 1323 1248 1242 c 0xd0
 1248 1197 1239 1141 1226 1076 c 0
 1226 1074 1225 1072 1225 1070 c 1
 1068 1070 l 1xc8
 1076 1124 1080 1164 1080 1188 c 0
 1080 1200 1079 1208 1077 1212 c 1
 1056 1199 772 945 721 684 c 2
 588 0 l 1
 432 1 l 1
 565 683 l 2
 569 701 570 721 570 741 c 0
 570 922 434 1171 264 1215 c 1
 357 1376 l 1
 522 1328 674 1162 700 1020 c 1xb0
EndSplineSet
Validated: 1
EndChar

StartChar: phi1
Encoding: 981 981 416
Width: 1060
VWidth: 6
Flags: W
HStem: 0 21G<414 581.5> 221 157<392.322 458> 882 157<487.476 587 778 832.917> 1287 20G<666.129 830>
VStem: 179 163<429.336 710.449> 878 163<529.78 837.87>
LayerCount: 2
Fore
SplineSet
736 414 m 1
 810 458 848 534 869 640 c 0
 870 644 871 649 872 653 c 0
 876 674 878 695 878 715 c 0
 878 797 842 861 748 882 c 1
 720 735 693 591 652 382 c 2
 652 381 l 1
 681 388 707 398 736 414 c 1
458 221 m 1
 271 241 179 343 179 498 c 0
 179 527 182 557 188 589 c 0
 231 809 362 1018 619 1043 c 1
 630 1099 641 1156 652 1214 c 2
 670 1307 l 1
 830 1307 l 1
 802 1162 l 2
 794 1119 786 1078 778 1039 c 1
 906 1021 978 969 1017 884 c 0
 1034 847 1041 801 1041 753 c 0
 1041 719 1037 684 1031 652 c 0
 991 446 877 259 621 223 c 1
 610 166 605 134 599 102 c 0
 594 74 587 46 576 0 c 1
 414 1 l 1
 422 32 425 49 428 64 c 0
 431 79 435 93 440 121 c 0
 445 149 450 181 458 221 c 1
587 881 m 1
 442 851 377 744 348 596 c 0
 344 576 342 557 342 540 c 0
 342 453 390 396 488 378 c 1
 525 568 557 728 587 881 c 1
EndSplineSet
Validated: 1
EndChar

StartChar: omega1
Encoding: 982 982 417
Width: 1060
VWidth: 6
Flags: W
HStem: -10 155<284.557 434.389 677.137 833.217> 868 154<236 296 446.293 912.106 1078 1152>
VStem: 101 167<152.396 539.847> 944 159<334.64 860.815>
LayerCount: 2
Fore
SplineSet
567 684 m 1
 730 703 l 1
 711 618 694 524 675 431 c 0
 674 423 673 414 671 405 c 0
 663 359 658 318 658 285 c 0
 658 188 693 144 753 144 c 0
 842 144 895 270 924 420 c 0
 938 490 944 553 944 611 c 0
 944 709 926 792 897 868 c 1
 478 868 l 1
 391 759 323 649 288 468 c 0
 276 404 268 343 268 291 c 0
 268 205 288 145 338 145 c 0
 408 145 463 196 500 321 c 1
 502 337 505 352 508 368 c 0
 528 474 550 584 567 684 c 1
236 1018 m 1
 293 1022 363 1022 441 1022 c 0
 472 1022 505 1022 539 1022 c 2
 649 1022 l 2
 798 1022 1091 1018 1165 1018 c 2
 1181 1018 l 1
 1152 868 l 1
 1078 868 l 1
 1096 791 1103 712 1103 638 c 0
 1103 565 1096 497 1085 441 c 0
 1042 218 944 -12 699 -12 c 0
 624 -12 565 33 532 104 c 1
 468 34 391 -10 315 -10 c 0
 153 -10 101 109 101 259 c 0
 101 318 109 381 121 444 c 0
 147 577 203 722 296 868 c 1
 209 868 l 1
 236 1018 l 1
EndSplineSet
Validated: 1
EndChar

StartChar: uni03D7
Encoding: 983 983 418
Width: 1060
VWidth: 0
Flags: W
HStem: -345 150<595 792.459> 0 156<687 868.573> 863 157<347.01 491.99>
VStem: 497 161<634.234 858.07> 577 162<158.097 381.183>
LayerCount: 2
Fore
SplineSet
179 828 m 1xf0
 179 828 320 1020 467 1020 c 0
 570 1020 658 946 658 810 c 0xf0
 658 788 656 765 651 740 c 0
 646 715 612 616 581 570 c 1
 635 604 708 658 781 709 c 1
 801 724 l 1
 893 878 967 1018 1114 1018 c 0
 1164 1018 1183 988 1183 943 c 0
 1183 930 1182 917 1179 902 c 0
 1158 792 1003 668 885 588 c 1
 841 511 762 377 745 287 c 0
 741 266 739 248 739 233 c 0
 739 179 763 156 803 156 c 0
 855 156 890 180 926 240 c 1
 1057 191 l 1
 1053 169 l 2
 996 -122 948 -345 566 -345 c 1
 595 -195 l 1
 798 -195 866 -127 901 55 c 0
 902 58 902 62 903 65 c 1
 848 30 784 0 727 0 c 0
 647 0 577 70 577 198 c 0xe8
 577 223 579 250 585 279 c 0
 590 304 624 404 655 450 c 1
 601 416 526 360 453 309 c 1
 436 296 l 1
 344 142 269 1 122 1 c 0
 72 1 53 31 53 76 c 0
 53 89 55 103 58 118 c 0
 83 249 237 354 355 434 c 1
 399 511 474 642 491 732 c 0
 495 753 497 771 497 786 c 0
 497 840 473 863 433 863 c 0
 381 863 316 789 249 734 c 1
 179 828 l 1xf0
EndSplineSet
Validated: 1
EndChar

StartChar: uni03CF
Encoding: 975 975 419
Width: 1060
VWidth: 0
Flags: W
HStem: -345 134<592 755.637> -5 21G<115 276.899> 1288 20G<366.116 528 1104.5 1133.98>
LayerCount: 2
Fore
SplineSet
865 -17 m 1
 840 92 611 474 505 600 c 1
 505 600 402 502 358 431 c 1
 273 -5 l 1
 115 -5 l 1
 370 1308 l 1
 528 1308 l 1
 411 703 l 1
 513 814 599 893 718 996 c 1
 947 1191 1092 1289 1117 1310 c 1
 1207 1204 l 1
 999 1072 699 798 625 725 c 1
 722 608 988 194 1013 59 c 1
 965 -166 890 -345 566 -345 c 1
 592 -211 l 1
 754 -211 829 -133 865 -17 c 1
EndSplineSet
Validated: 1
EndChar

StartChar: uni03D8
Encoding: 984 984 420
Width: 1060
VWidth: 0
Flags: W
HStem: -9 146<383.523 424 595 688.547> 1170 153<596.179 875.813>
VStem: 135 162<224.749 688.372> 960 160<549.799 1067.95>
LayerCount: 2
Fore
SplineSet
331 242 m 0
 367 177 429 137 537 137 c 0
 653 137 738 204 799 287 c 1
 851 351 913 517 935 624 c 1
 939 643 l 2
 951 707 960 783 960 855 c 0
 960 913 955 968 940 1014 c 0
 904 1128 842 1170 754 1170 c 0
 659 1170 598 1142 525 1066 c 0
 439 977 362 835 311 573 c 0
 302 529 297 475 297 423 c 0
 297 352 307 284 331 242 c 0
779 1323 m 1
 884 1323 1120 1270 1120 879 c 0
 1120 808 1113 726 1095 632 c 1
 1093 621 l 2
 1061 457 987 304 921 211 c 0
 837 93 724 16 595 -8 c 1
 536 -315 l 1
 365 -315 l 1
 424 -9 l 1
 333 7 251 50 204 127 c 0
 158 200 135 292 135 399 c 0
 135 452 140 509 152 569 c 0
 219 914 325 1063 413 1158 c 0
 496 1248 622 1320 779 1323 c 1
EndSplineSet
Validated: 1
EndChar

StartChar: uni03D9
Encoding: 985 985 421
Width: 1060
VWidth: 6
Flags: W
HStem: 8 148<378 396 566 669.729> 878 154<515.388 803.186>
VStem: 148 162<221.026 586.445> 862 161<425.23 817.774>
LayerCount: 2
Fore
SplineSet
696 215 m 1
 773 276 817 382 846 530 c 0
 847 536 849 542 850 548 c 0
 857 588 862 627 862 662 c 0
 862 789 809 878 671 878 c 0
 463 878 368 713 321 469 c 0
 314 433 310 399 310 368 c 0
 310 234 378 156 514 156 c 1
 590 157 638 173 696 215 c 1
396 8 m 1
 229 38 148 155 148 329 c 0
 148 371 153 416 162 464 c 0
 219 756 375 1032 667 1032 c 0
 864 1032 961 963 1005 831 c 0
 1018 792 1023 745 1023 695 c 0
 1023 644 1018 592 1008 543 c 0
 957 283 831 47 566 7 c 1
 504 -315 l 1
 333 -315 l 1
 396 8 l 1
EndSplineSet
Validated: 1
EndChar

StartChar: uni03DB
Encoding: 987 987 422
Width: 1060
VWidth: 4
Flags: W
HStem: -351 152<477 636.422> 865 153<512.928 1163>
VStem: 145 167<193.267 596.723> 678 161<-158.755 -44.2198>
LayerCount: 2
Fore
SplineSet
332 527 m 0
 318 456 312 398 312 351 c 0
 312 151 420 154 473 150 c 0
 705 131 839 89 839 -46 c 0
 839 -61 837 -77 834 -95 c 0
 815 -191 736 -343 470 -351 c 1
 477 -199 l 1
 594 -185 664 -168 677 -99 c 0
 678 -96 678 -94 678 -92 c 0
 678 -32 527 -16 447 -7 c 0
 225 16 145 110 145 294 c 0
 145 360 156 437 173 527 c 0
 244 894 447 1018 762 1018 c 0
 868 1018 949 1017 1025 1017 c 0
 1082 1017 1134 1017 1192 1020 c 1
 1163 855 l 1
 1122 859 881 865 721 865 c 0
 500 865 378 766 332 527 c 0
EndSplineSet
Validated: 1
EndChar

StartChar: uni03DA
Encoding: 986 986 423
Width: 1060
VWidth: 4
Flags: W
HStem: -351 152<477 636.422> 1168 153<597.501 1213>
VStem: 161 168<212.32 694.105> 678 161<-158.755 -45.1503>
LayerCount: 2
Fore
SplineSet
366 700 m 0
 342 574 329 473 329 395 c 0
 329 240 377 171 473 150 c 0
 696 102 839 83 839 -49 c 0
 839 -63 837 -78 834 -95 c 0
 815 -191 736 -343 470 -351 c 1
 477 -199 l 1
 594 -185 664 -168 677 -99 c 0
 677 -96 678 -94 678 -92 c 0
 678 -32 525 -20 447 -7 c 0
 224 28 161 166 161 347 c 0
 161 453 183 574 207 700 c 0
 278 1067 443 1321 811 1321 c 0
 917 1321 999 1320 1075 1320 c 0
 1132 1320 1184 1320 1242 1323 c 1
 1213 1157 l 1
 1172 1161 930 1168 770 1168 c 0
 509 1168 412 939 366 700 c 0
EndSplineSet
Validated: 1
EndChar

StartChar: uni03DC
Encoding: 988 988 424
Width: 1060
VWidth: 0
Flags: W
HStem: -1 21G<117 286> 668 150<430 836.348> 1145 153<494 1119.92>
LayerCount: 2
Fore
SplineSet
277 -1 m 1
 117 3 l 1
 368 1298 l 1
 1053 1298 l 1
 1129 1295 1175 1280 1206 1263 c 1
 1121 1117 l 1
 1098 1131 1079 1144 981 1145 c 1
 911 1145 l 2
 807 1145 677 1144 494 1143 c 1
 430 815 l 1
 550 815 618 818 740 818 c 0
 828 818 884 804 885 804 c 2
 902 799 l 1
 838 654 l 1
 803 663 753 668 708 668 c 0
 602 668 510 668 401 665 c 1
 377 544 295 92 277 -1 c 1
EndSplineSet
Validated: 1
EndChar

StartChar: uni03DD
Encoding: 989 989 425
Width: 1060
VWidth: -2
Flags: W
HStem: -308 146<17.6943 259.154> 859 154<735 1032.06> 1266 152<817.443 1124.93>
LayerCount: 2
Fore
SplineSet
414 152 m 0
 438 275 547 857 587 1064 c 0
 615 1207 685 1418 962 1418 c 0
 979 1418 994 1418 1008 1418 c 0
 1126 1418 1142 1413 1264 1321 c 1
 1168 1191 l 1
 1088 1251 1072 1266 940 1266 c 0
 793 1266 765 1168 744 1060 c 2
 735 1013 l 1
 803 1013 861 1012 934 1012 c 1
 1037 1009 1063 1001 1091 992 c 1
 1033 846 l 1
 1013 853 994 859 938 859 c 2
 705 859 l 1
 676 705 572 156 571 152 c 0
 525 -84 415 -308 76 -308 c 0
 46 -308 14 -307 -19 -303 c 1
 20 -156 l 1
 47 -160 73 -162 97 -162 c 0
 305 -162 383 -6 414 152 c 0
EndSplineSet
Validated: 1
EndChar

StartChar: uni0190
Encoding: 400 400 426
Width: 1060
VWidth: 0
Flags: W
HStem: 0 154<354.817 752.11> 656 151<509.915 732> 1055 21G<1027 1072.86> 1144 153<558.305 976.693>
VStem: 116 159<226.568 491.714> 294 155<862.595 1054.39>
LayerCount: 2
Fore
SplineSet
971 161 m 1
 892 108 750 0 501 0 c 0
 326 0 242 34 178 106 c 0
 132 158 116 218 116 280 c 0
 116 316 122 353 129 390 c 0
 164 568 250 694 404 730 c 1
 325 758 294 832 294 914 c 0
 294 937 296 961 301 985 c 0
 339 1180 508 1297 787 1297 c 2
 799 1297 l 2
 1024 1297 1098 1236 1162 1195 c 1
 1058 1055 l 1
 996 1097 898 1144 759 1144 c 0
 599 1144 471 1082 452 985 c 0
 450 974 449 963 449 953 c 0
 449 818 640 807 740 807 c 2
 744 807 l 1
 762 807 l 1
 732 655 l 1
 707 655 682 656 657 656 c 0
 596 656 536 652 459 624 c 0
 344 583 293 455 280 388 c 0
 277 372 275 357 275 342 c 0
 275 223 377 154 532 154 c 0
 716 154 838 238 897 284 c 1
 971 161 l 1
EndSplineSet
Validated: 1
EndChar

StartChar: aringacute
Encoding: 507 507 457
Width: 1060
VWidth: 0
Flags: HW
HStem: -6 152<275.367 562.638> 504 144<324.611 688.29> 877 151<307.034 638.987> 1056 125<404.543 561.062> 1322 124<403.637 561.812> 1432 150<617.979 664.467>
VStem: 78 156<186.95 423.484> 266 130<1191.22 1312.04> 561 596 568 132<1190.77 1312.04> 724 157<285.558 463.324 597 789.375>
LayerCount: 2
Fore
SplineSet
396 1253 m 0xfb40
 396 1218 432 1181 482 1181 c 0
 534 1181 568 1218 568 1253 c 0
 568 1288 534 1322 482 1322 c 0
 430 1322 396 1288 396 1253 c 0xfb40
266 1251 m 0
 266 1362 368 1446 484 1446 c 0
 598 1446 700 1362 700 1251 c 0
 700 1140 598 1056 484 1056 c 0
 368 1056 266 1140 266 1251 c 0
234 311 m 0
 234 206 290 146 383 146 c 0
 593 146 698 304 724 345 c 1
 724 440 l 1xf320
 667 475 593 504 489 504 c 0
 353 503 234 429 234 311 c 0
881 318 m 0
 881 283 881 190 894 173 c 0
 907 155 944 132 973 109 c 1
 890 -10 l 1
 838 30 778 55 760 156 c 1
 682 81 580 -6 383 -6 c 0
 212 -6 78 135 78 301 c 0
 78 377 108 466 167 527 c 0
 262 624 363 648 481 648 c 0
 607 648 670 630 724 597 c 1
 724 786 655 877 485 877 c 0
 347 877 284 847 204 704 c 1
 74 786 l 1
 170 968 304 1028 483 1028 c 1
 725 1028 881 873 881 648 c 0
 881 318 l 0
EndSplineSet
Refer: 321 769 N 1 0 0 1 60 152 2
Validated: 1
EndChar

StartChar: uni0227
Encoding: 551 551 481
Width: 1060
VWidth: 0
Flags: HW
HStem: -8 152<338.542 569.273> 890 144<495.442 819.614> 1178 225<355 590>
VStem: 141 152<187.28 570.631> 355 235<1178 1403> 790 151<79.8303 230>
LayerCount: 2
Fore
SplineSet
355 1403 m 1
 590 1403 l 1
 590 1178 l 1
 355 1178 l 1
 355 1403 l 1
EndSplineSet
Refer: 0 97 N 1 0 0 1 0 0 3
Validated: 1
EndChar

StartChar: uni0228
Encoding: 552 552 482
Width: 1060
VWidth: 0
Flags: W
HStem: -403 125<325.445 530.66> -3 150<257 370 515 898.956> 666 150<260 698> 1144 153<260 889>
VStem: 102 158<147 666 816 1144> 370 145<-70.4613 -3> 534 136<-271.217 -172.936>
LayerCount: 2
Fore
SplineSet
102 1293 m 1
 158 1297 228 1297 306 1297 c 0
 337 1297 370 1297 404 1297 c 2
 514 1297 l 2
 663 1297 799 1294 873 1294 c 2
 889 1294 l 1
 889 1144 l 1
 260 1144 l 1
 260 816 l 1
 698 816 l 1
 698 666 l 1
 260 666 l 1
 260 636 l 2
 260 433 257 224 257 147 c 1
 782 149 l 2
 838 149 899 175 899 175 c 1
 943 27 l 1
 895 14 860 -3 784 -3 c 2
 515 -3 l 1
 515 -24 515 -62 515 -64 c 1
 612 -69 670 -131 670 -235 c 0
 670 -336 570 -403 486 -403 c 0
 420 -403 348 -378 292 -342 c 1
 330 -236 l 1
 363 -254 403 -278 454 -278 c 0
 490 -278 531 -258 534 -220 c 1
 534 -218 l 2
 534 -189 496 -164 448 -164 c 0
 400 -164 398 -171 370 -181 c 1
 370 -3 l 1
 102 -3 l 1
 102 1293 l 1
EndSplineSet
Validated: 1
EndChar

StartChar: uni0229
Encoding: 553 553 483
Width: 1060
VWidth: 0
Flags: W
HStem: -410 125<383.445 588.66> -5 148<348.888 428 574 677.409> 460 150<440.379 764> 869 152<361.998 651.11>
VStem: 78 158<258.732 429.895 580 738.031> 428 145<-77.4613 -1.32291> 592 136<-278.217 -179.936> 764 159<611 749.303>
LayerCount: 2
Fore
SplineSet
236 580 m 1
 344 591 586 606 729 610 c 2
 764 611 l 1
 758 767 646 869 510 869 c 0
 340 869 237 734 236 580 c 1
509 1021 m 0
 886 1021 923 641 923 503 c 0
 923 483 923 468 922 460 c 1
 637 456 401 439 236 427 c 1
 236 274 319 143 505 143 c 0
 662 143 750 230 785 286 c 1
 906 183 l 1
 894 163 801 20 574 -6 c 1
 573 -26 573 -69 573 -71 c 1
 670 -76 728 -138 728 -242 c 0
 728 -343 628 -410 544 -410 c 0
 478 -410 406 -385 350 -349 c 1
 388 -243 l 1
 421 -261 461 -285 512 -285 c 0
 548 -285 589 -265 592 -227 c 1
 592 -225 l 2
 592 -196 554 -171 506 -171 c 0
 458 -171 456 -178 428 -188 c 1
 428 -5 l 1
 192 29 78 231 78 516 c 0
 78 802 226 1021 509 1021 c 0
EndSplineSet
Validated: 1
EndChar

StartChar: uni022F
Encoding: 559 559 489
Width: 1060
VWidth: 0
Flags: W
HStem: 1 155<376.229 671.059> 878 154<515.388 803.186> 1178 225<351 586>
VStem: 148 162<221.274 586.445> 351 235<1178 1403> 862 161<425.993 817.774>
LayerCount: 2
Fore
SplineSet
351 1403 m 1
 586 1403 l 1
 586 1178 l 1
 351 1178 l 1
 351 1403 l 1
EndSplineSet
Refer: 14 111 N 1 0 0 1 0 0 3
Validated: 1
EndChar

StartChar: uni0311
Encoding: 785 785 492
Width: 1060
VWidth: -12
Flags: W
HStem: 1510 153<656.48 934.964>
VStem: 973 171<1399 1466.46>
LayerCount: 2
Fore
SplineSet
804 1510 m 4
 711 1510 624 1477 574 1360 c 5
 424 1390 l 5
 516 1615 707 1663 833 1663 c 5
 993 1663 1144 1581 1144 1415 c 0
 1144 1410 1144 1404 1144 1399 c 5
 972 1369 l 5
 973 1374 973 1379 973 1383 c 0
 973 1455 906 1510 804 1510 c 4
EndSplineSet
Validated: 1
EndChar

StartChar: uni0312
Encoding: 786 786 494
Width: 1060
VWidth: -43
Flags: W
HStem: 1235 420
VStem: 526 327
LayerCount: 2
Fore
SplineSet
526 1283 m 1
 586 1395 634 1504 708 1655 c 1
 853 1621 l 1
 807 1479 752 1338 711 1235 c 1
 526 1283 l 1
EndSplineSet
Validated: 1
EndChar

StartChar: uni0313
Encoding: 787 787 495
Width: 1060
VWidth: 26
Flags: W
HStem: 1099 498
VStem: 637 321
LayerCount: 2
Fore
SplineSet
738 1597 m 5
 958 1597 l 5
 917 1382 l 5
 888 1231 806 1155 666 1099 c 5
 637 1226 l 5
 702 1254 733 1277 752 1376 c 5
 695 1376 l 5
 738 1597 l 5
EndSplineSet
Validated: 1
EndChar

StartChar: uni0314
Encoding: 788 788 496
Width: 1060
VWidth: 26
Flags: W
HStem: 1099 498<749.991 829.692>
VStem: 672 162<1206.1 1375.29>
LayerCount: 2
Fore
SplineSet
941 1597 m 1
 898 1376 l 1
 841 1376 l 1
 836 1352 834 1332 834 1316 c 0
 834 1265 856 1247 898 1226 c 1
 821 1099 l 1
 724 1145 672 1204 672 1307 c 0
 672 1330 675 1355 680 1382 c 1
 721 1597 l 1
 941 1597 l 1
EndSplineSet
Validated: 1
EndChar

StartChar: uni0328
Encoding: 808 808 510
Width: 1060
VWidth: 12
Flags: W
HStem: -444 144<430.311 650.1>
VStem: 263 159<-288.953 -161.071>
LayerCount: 2
Fore
SplineSet
792 41 m 4
 670 -44 437 -142 423 -216 c 4
 422 -221 422 -226 422 -231 c 0
 422 -277 470 -300 528 -300 c 4
 586 -300 633 -267 667 -245 c 5
 725 -351 l 5
 672 -399 575 -444 496 -444 c 4
 334 -444 263 -375 263 -269 c 0
 263 -252 264 -235 268 -216 c 4
 303 -36 575 7 636 68 c 5
 792 41 l 4
EndSplineSet
Validated: 1
EndChar

StartChar: ogonek
Encoding: 731 731 511
Width: 1060
VWidth: 12
Flags: W
HStem: -444 144<430.311 650.1>
VStem: 263 159<-288.953 -161.071>
LayerCount: 2
Fore
SplineSet
792 41 m 4
 670 -44 437 -142 423 -216 c 4
 422 -221 422 -226 422 -231 c 0
 422 -277 470 -300 528 -300 c 4
 586 -300 633 -267 667 -245 c 5
 725 -351 l 5
 672 -399 575 -444 496 -444 c 4
 334 -444 263 -375 263 -269 c 0
 263 -252 264 -235 268 -216 c 4
 303 -36 575 7 636 68 c 5
 792 41 l 4
EndSplineSet
Validated: 1
EndChar

StartChar: uni01EA
Encoding: 490 490 514
Width: 1060
VWidth: 0
Flags: W
HStem: -476 144<497.182 734.362> 1170 153<376.35 654.552>
VStem: 41 159<320.826 920.593> 328 156<-314.775 -133.489> 814 158<350.765 944.703>
LayerCount: 2
Fore
SplineSet
522 1323 m 1
 646 1323 967 1249 972 632 c 1
 972 621 l 2
 972 457 928 304 880 211 c 1
 773 -14 485 -60 484 -248 c 0
 484 -304 540 -332 604 -332 c 0
 662 -332 704 -299 734 -277 c 1
 812 -383 l 1
 768 -431 679 -476 600 -476 c 0
 412 -476 328 -383 328 -248 c 0
 328 -149 371 -88 450 -12 c 1
 348 0 247 43 179 127 c 0
 89 237 41 389 41 569 c 0
 41 914 118 1063 188 1158 c 0
 254 1248 366 1320 522 1323 c 1
284 242 m 0
 333 177 402 137 510 137 c 0
 626 137 698 204 743 287 c 1
 783 351 813 517 814 624 c 1
 814 643 l 2
 814 758 796 911 743 1014 c 0
 685 1128 615 1170 527 1170 c 0
 432 1170 376 1142 318 1066 c 0
 249 977 200 835 200 573 c 0
 200 469 228 315 284 242 c 0
EndSplineSet
Validated: 1
EndChar

StartChar: uni01EB
Encoding: 491 491 515
Width: 1060
VWidth: 0
Flags: W
HStem: -473 144<449.778 686.542> 878 154<352.497 639.881>
VStem: 72 158<270.649 736.885> 281 155<-311.191 -159.208> 743 159<278.234 758.636>
LayerCount: 2
Fore
SplineSet
654 215 m 1
 719 276 743 382 743 530 c 0
 743 536 743 542 743 548 c 0
 741 732 677 878 500 878 c 0
 292 878 230 713 230 469 c 0
 230 274 317 156 484 156 c 1
 560 157 604 173 654 215 c 1
802 149 m 1
 684 -26 436 -135 436 -245 c 0
 436 -301 493 -329 557 -329 c 0
 615 -329 656 -296 686 -274 c 1
 764 -380 l 1
 720 -428 632 -473 553 -473 c 0
 365 -473 281 -380 281 -245 c 0
 281 -142 364 -71 455 2 c 1
 201 15 72 193 72 464 c 0
 72 756 174 1032 466 1032 c 0
 663 1032 773 963 843 831 c 0
 884 752 902 639 902 543 c 0
 902 392 875 250 802 149 c 1
EndSplineSet
Validated: 1
EndChar

StartChar: uni0326
Encoding: 806 806 518
Width: 1060
VWidth: 26
Flags: W
HStem: -494 498
VStem: 349 322
LayerCount: 2
Fore
SplineSet
451 4 m 1
 671 4 l 1
 629 -211 l 2
 600 -362 518 -438 378 -494 c 1
 349 -367 l 1
 414 -339 445 -316 464 -217 c 1
 408 -217 l 1
 451 4 l 1
EndSplineSet
Validated: 1
EndChar

StartChar: uni2016
Encoding: 8214 8214 527
Width: 1060
VWidth: 66
Flags: W
VStem: 243 162<-194.108 1492> 684 162<-194.108 1492>
LayerCount: 2
Fore
SplineSet
242 152 m 0
 242 517 233 1111 233 1399 c 2
 233 1492 l 1
 393 1492 l 1
 393 1347 l 2
 393 1070 405 558 405 224 c 2
 405 74 l 2
 405 -41 404 -97 399 -198 c 1
 238 -197 l 1
 242 -135 243 -92 243 -37 c 0
 243 10 242 66 242 152 c 0
683 152 m 0
 683 517 674 1111 674 1399 c 2
 674 1492 l 1
 834 1492 l 1
 834 1347 l 2
 834 1070 846 558 846 224 c 2
 846 74 l 2
 846 -41 845 -97 840 -198 c 1
 679 -197 l 1
 683 -135 684 -92 684 -37 c 0
 684 10 683 66 683 152 c 0
EndSplineSet
Validated: 1
EndChar

StartChar: underscoredbl
Encoding: 8215 8215 528
Width: 1060
VWidth: 41
Flags: W
HStem: -509 152<56 1002> -236 152<56 1002>
LayerCount: 2
Fore
SplineSet
56 -84 m 1
 1002 -84 l 1
 1002 -236 l 1
 52 -236 l 1
 56 -84 l 1
56 -357 m 1
 1002 -357 l 1
 1002 -509 l 1
 52 -509 l 1
 56 -357 l 1
EndSplineSet
Validated: 1
EndChar

StartChar: quoteleft
Encoding: 8216 8216 529
Width: 1060
VWidth: -25
Flags: W
HStem: 846 651
VStem: 300 253<877.13 1034.19>
LayerCount: 2
Fore
SplineSet
553 846 m 1
 300 879 l 1
 336 1178 518 1388 647 1497 c 1
 783 1357 l 1
 716 1300 577 1074 553 846 c 1
EndSplineSet
Validated: 1
EndChar

StartChar: quoteright
Encoding: 8217 8217 530
Width: 1060
VWidth: -25
Flags: W
HStem: 816 651
VStem: 562 253<1278.81 1435.87>
LayerCount: 2
Fore
SplineSet
562 1467 m 1
 815 1434 l 1
 779 1135 597 925 468 816 c 1
 332 956 l 1
 399 1013 538 1239 562 1467 c 1
EndSplineSet
Validated: 1
EndChar

StartChar: quotesinglbase
Encoding: 8218 8218 531
Width: 1060
VWidth: -25
Flags: W
HStem: -328 651
VStem: 481 253<134.815 291.87>
LayerCount: 2
Fore
SplineSet
481 323 m 1
 734 290 l 1
 698 -9 516 -219 387 -328 c 1
 251 -188 l 1
 318 -131 457 95 481 323 c 1
EndSplineSet
Validated: 1
EndChar

StartChar: quotereversed
Encoding: 8219 8219 532
Width: 1060
VWidth: -25
Flags: W
HStem: 816 651
VStem: 370 253<1278.81 1435.87>
LayerCount: 2
Fore
SplineSet
623 1467 m 1
 647 1239 787 1013 854 956 c 1
 718 816 l 1
 589 925 406 1135 370 1434 c 1
 623 1467 l 1
EndSplineSet
Validated: 1
EndChar

StartChar: quotedblleft
Encoding: 8220 8220 533
Width: 1060
VWidth: -25
Flags: W
HStem: 911 654
VStem: 152 206<947.286 1112.65> 512 206<945.286 1110.65>
LayerCount: 2
Fore
SplineSet
374 1010 m 0
 366 976 362 944 358 911 c 1
 152 950 l 1
 156 991 161 1026 171 1068 c 0
 236 1328 307 1458 423 1565 c 1
 550 1442 l 1
 496 1391 425 1215 374 1010 c 0
734 1008 m 0
 726 974 722 942 718 909 c 1
 512 948 l 1
 516 989 521 1024 531 1066 c 0
 596 1326 667 1456 783 1563 c 1
 910 1440 l 1
 856 1389 785 1213 734 1008 c 0
EndSplineSet
Validated: 1
EndChar

StartChar: quotedblright
Encoding: 8221 8221 534
Width: 1060
VWidth: -25
Flags: W
HStem: 830 654
VStem: 340 206<1293.28 1449.71> 700 206<1291.28 1446.78>
LayerCount: 2
Fore
SplineSet
683 1384 m 0
 691 1418 696 1451 700 1484 c 1
 906 1444 l 1
 902 1403 896 1369 886 1327 c 0
 821 1067 750 937 634 830 c 1
 507 952 l 1
 561 1003 632 1179 683 1384 c 0
323 1387 m 0
 331 1421 336 1453 340 1486 c 1
 546 1447 l 1
 542 1406 536 1371 526 1329 c 0
 461 1069 390 939 274 832 c 1
 147 955 l 1
 201 1006 272 1182 323 1387 c 0
EndSplineSet
Validated: 1
EndChar

StartChar: quotedblbase
Encoding: 8222 8222 535
Width: 1060
VWidth: -25
Flags: W
HStem: -335 654
VStem: 340 206<128.283 284.714> 700 206<126.283 282.714>
LayerCount: 2
Fore
SplineSet
683 220 m 0
 691 254 696 286 700 319 c 1
 906 280 l 1
 902 239 896 204 886 162 c 0
 821 -98 750 -228 634 -335 c 1
 507 -212 l 1
 561 -161 632 15 683 220 c 0
323 222 m 0
 331 256 336 288 340 321 c 1
 546 282 l 1
 542 241 536 206 526 164 c 0
 461 -96 390 -226 274 -333 c 1
 147 -210 l 1
 201 -159 272 17 323 222 c 0
EndSplineSet
Validated: 1
EndChar

StartChar: uni201F
Encoding: 8223 8223 536
Width: 1060
VWidth: -25
Flags: W
HStem: 830 653
VStem: 213 206<1281.35 1446.71> 573 206<1284.35 1449.71>
LayerCount: 2
Fore
SplineSet
435 1384 m 0
 486 1179 558 1003 612 952 c 1
 484 830 l 1
 368 937 297 1067 232 1327 c 0
 222 1369 217 1403 213 1444 c 1
 419 1483 l 1
 423 1450 427 1418 435 1384 c 0
795 1387 m 0
 846 1182 917 1006 971 955 c 1
 844 832 l 1
 728 939 657 1069 592 1329 c 0
 582 1371 577 1406 573 1447 c 1
 779 1486 l 1
 783 1453 787 1421 795 1387 c 0
EndSplineSet
Validated: 1
EndChar

StartChar: daggerdbl
Encoding: 8225 8225 537
Width: 1060
VWidth: 6
Flags: W
HStem: 194 163<60 399 563 905> 1008 162<64.3538 392 554 905>
VStem: 391 160<-194.108 192 357 1008 1172 1492>
LayerCount: 2
Fore
SplineSet
563 192 m 1
 563 74 l 2
 563 -41 562 -97 557 -198 c 1
 396 -197 l 1
 400 -135 401 -92 401 -37 c 0
 401 10 400 66 400 152 c 0
 400 165 400 179 400 193 c 1
 351 193 303 194 252 194 c 0
 192 194 129 193 60 189 c 1
 60 349 l 1
 189 356 294 357 399 357 c 1
 398 562 396 799 394 1008 c 1
 301 1008 195 1014 55 1023 c 1
 55 1076 55 1130 58 1181 c 1
 194 1172 301 1170 392 1170 c 1
 391 1257 391 1336 391 1399 c 2
 391 1492 l 1
 551 1492 l 1
 551 1347 l 2
 551 1296 551 1237 552 1172 c 1
 666 1175 763 1179 905 1179 c 1
 905 1020 l 1
 766 1020 670 1013 554 1010 c 1
 557 799 561 559 562 356 c 1
 679 354 784 349 907 349 c 1
 905 188 l 1
 784 188 678 191 563 192 c 1
EndSplineSet
Validated: 1
EndChar

StartChar: bullet
Encoding: 8226 8226 538
Width: 1060
VWidth: 0
Flags: W
HStem: 237 552<357.429 654.571>
VStem: 230 552<364.429 661.571>
LayerCount: 2
Fore
SplineSet
230 513 m 0
 230 665 354 789 506 789 c 0
 658 789 782 665 782 513 c 0
 782 361 658 237 506 237 c 0
 354 237 230 361 230 513 c 0
EndSplineSet
Validated: 1
EndChar

StartChar: uni2023
Encoding: 8227 8227 539
Width: 1060
VWidth: 0
Flags: W
HStem: 190 667
VStem: 198 608<476 542>
LayerCount: 2
Fore
SplineSet
226 857 m 1
 806 542 l 1
 806 476 l 1
 230 190 l 1
 198 278 l 1
 198 781 l 1
 226 857 l 1
EndSplineSet
Validated: 1
EndChar

StartChar: dagger
Encoding: 8224 8224 544
Width: 1060
VWidth: 6
Flags: W
HStem: 1023 158<58 389.631 554 905>
VStem: 401 162<-194.108 1008 1172 1492>
LayerCount: 2
Fore
SplineSet
552 1172 m 1
 666 1175 763 1179 905 1179 c 1
 905 1020 l 1
 766 1020 670 1013 554 1010 c 1
 558 751 563 448 563 224 c 2
 563 74 l 2
 563 -41 562 -97 557 -198 c 1
 396 -197 l 1
 400 -135 401 -92 401 -37 c 0
 401 10 400 66 400 152 c 0
 400 389 397 724 394 1008 c 1
 301 1008 195 1014 55 1023 c 1
 55 1076 55 1130 58 1181 c 1
 194 1172 301 1170 392 1170 c 1
 391 1257 391 1336 391 1399 c 2
 391 1492 l 1
 551 1492 l 1
 551 1347 l 2
 551 1296 551 1237 552 1172 c 1
EndSplineSet
Validated: 1
EndChar

StartChar: guilsinglleft
Encoding: 8249 8249 545
Width: 1060
VWidth: 6
Flags: W
VStem: 585 152<103.907 161.156> 599 156<871.117 942.4>
LayerCount: 2
Fore
SplineSet
269 574 m 1x80
 413 704 576 836 599 976 c 1
 755 939 l 1x40
 715 750 579 627 454 518 c 1
 582 400 692 281 737 109 c 1
 585 55 l 1
 547 204 427 318 269 459 c 1
 269 574 l 1x80
EndSplineSet
Validated: 1
EndChar

